<svg width="459" height="340" viewBox="0 0 459 340" fill="none" xmlns="http://www.w3.org/2000/svg">
<g clip-path="url(#clip0)">
<path d="M458.105 125.897H265.547V131.587H458.105V125.897Z" fill="#E6E6E6"/>
<path d="M330.246 78.3093H281.465V127.449H330.246V78.3093Z" fill="#E6E6E6"/>
<path d="M320.491 88.1373H291.222V117.621H320.491V88.1373Z" fill="#CCCCCC"/>
<path d="M403.162 78.3093H390.838V127.449H403.162V78.3093Z" fill="#E6E6E6"/>
<path d="M403.162 86.0682H390.838V91.758H403.162V86.0682Z" fill="#CCCCCC"/>
<path d="M403.162 110.897H390.838V116.586H403.162V110.897Z" fill="#CCCCCC"/>
<path d="M384.163 78.3093H371.839V127.449H384.163V78.3093Z" fill="#E6E6E6"/>
<path d="M384.163 86.0682H371.839V91.758H384.163V86.0682Z" fill="#CCCCCC"/>
<path d="M384.163 110.897H371.839V116.586H384.163V110.897Z" fill="#CCCCCC"/>
<path d="M413.781 78.1061L402.736 83.6142L424.38 127.652L435.424 122.144L413.781 78.1061Z" fill="#E6E6E6"/>
<path d="M417.198 85.0595L406.153 90.5676L408.659 95.6667L419.704 90.1586L417.198 85.0595Z" fill="#CCCCCC"/>
<path d="M428.133 107.31L417.089 112.818L419.595 117.917L430.639 112.409L428.133 107.31Z" fill="#CCCCCC"/>
<path d="M299.693 98.0339L305.9 108.862L312.106 119.69H299.693H287.281L293.487 108.862L299.693 98.0339Z" fill="#E6E6E6"/>
<path d="M310.477 100.103L316.683 110.931L322.89 121.759H310.477H298.065L304.271 110.931L310.477 100.103Z" fill="#E6E6E6"/>
<path d="M314.842 96.9306C316.827 96.9306 318.436 95.3095 318.436 93.3098C318.436 91.3101 316.827 89.689 314.842 89.689C312.856 89.689 311.247 91.3101 311.247 93.3098C311.247 95.3095 312.856 96.9306 314.842 96.9306Z" fill="#E6E6E6"/>
<path d="M265.547 53.4809L458.105 53.4809V47.791L265.547 47.791V53.4809Z" fill="#E6E6E6"/>
<path d="M393.406 49.3428L442.188 49.3428V0.203171L393.406 0.203171V49.3428Z" fill="#E6E6E6"/>
<path d="M403.162 39.5149L432.431 39.5149V10.0311L403.162 10.0311V39.5149Z" fill="#CCCCCC"/>
<path d="M320.49 49.3428H332.813V0.203171H320.49V49.3428Z" fill="#E6E6E6"/>
<path d="M320.49 13.6519L332.813 13.6519V7.96207L320.49 7.96207V13.6519Z" fill="#CCCCCC"/>
<path d="M320.49 38.4803H332.813V32.7905H320.49V38.4803Z" fill="#CCCCCC"/>
<path d="M339.49 49.3428H351.813V0.203171H339.49V49.3428Z" fill="#E6E6E6"/>
<path d="M339.49 13.6519L351.813 13.6519V7.96207L339.49 7.96207V13.6519Z" fill="#CCCCCC"/>
<path d="M339.49 38.4803H351.813V32.7905H339.49V38.4803Z" fill="#CCCCCC"/>
<path d="M288.228 44.0379L299.272 49.546L320.916 5.50804L309.872 -2.32017e-05L288.228 44.0379Z" fill="#E6E6E6"/>
<path d="M303.948 12.0525L314.992 17.5606L317.498 12.4615L306.454 6.95341L303.948 12.0525Z" fill="#CCCCCC"/>
<path d="M293.012 34.3032L304.057 39.8113L306.563 34.7121L295.518 29.2041L293.012 34.3032Z" fill="#CCCCCC"/>
<path d="M423.959 19.9276L417.753 30.7556L411.547 41.5837H423.959H436.371L430.165 30.7556L423.959 19.9276Z" fill="#E6E6E6"/>
<path d="M413.175 21.9967L406.97 32.8247L400.764 43.6528H413.175H425.588L419.382 32.8247L413.175 21.9967Z" fill="#E6E6E6"/>
<path d="M408.81 18.8245C410.795 18.8245 412.405 17.2034 412.405 15.2037C412.405 13.204 410.795 11.5829 408.81 11.5829C406.825 11.5829 405.216 13.204 405.216 15.2037C405.216 17.2034 406.825 18.8245 408.81 18.8245Z" fill="#E6E6E6"/>
<path d="M265.547 209.693L458.105 209.693V204.003L265.547 204.003V209.693Z" fill="#E6E6E6"/>
<path d="M393.406 205.555H442.188V156.415H393.406V205.555Z" fill="#E6E6E6"/>
<path d="M403.162 195.727H432.431V166.243H403.162V195.727Z" fill="#CCCCCC"/>
<path d="M320.49 205.555H332.813V156.415H320.49V205.555Z" fill="#E6E6E6"/>
<path d="M320.49 169.864H332.813V164.174H320.49V169.864Z" fill="#CCCCCC"/>
<path d="M320.49 194.693H332.813V189.003H320.49V194.693Z" fill="#CCCCCC"/>
<path d="M339.49 205.555H351.813V156.415H339.49V205.555Z" fill="#E6E6E6"/>
<path d="M339.49 169.864H351.813V164.174H339.49V169.864Z" fill="#CCCCCC"/>
<path d="M339.49 194.693H351.813V189.003H339.49V194.693Z" fill="#CCCCCC"/>
<path d="M288.228 200.25L299.272 205.758L320.916 161.72L309.872 156.212L288.228 200.25Z" fill="#E6E6E6"/>
<path d="M303.948 168.265L314.992 173.773L317.498 168.674L306.454 163.166L303.948 168.265Z" fill="#CCCCCC"/>
<path d="M293.012 190.515L304.057 196.024L306.563 190.924L295.519 185.416L293.012 190.515Z" fill="#CCCCCC"/>
<path d="M423.959 176.14L417.753 186.968L411.547 197.796H423.959H436.371L430.165 186.968L423.959 176.14Z" fill="#E6E6E6"/>
<path d="M413.175 178.209L406.97 189.037L400.764 199.865H413.175H425.588L419.382 189.037L413.175 178.209Z" fill="#E6E6E6"/>
<path d="M408.81 175.037C410.795 175.037 412.405 173.416 412.405 171.416C412.405 169.416 410.795 167.795 408.81 167.795C406.825 167.795 405.216 169.416 405.216 171.416C405.216 173.416 406.825 175.037 408.81 175.037Z" fill="#E6E6E6"/>
<path d="M226.834 340C352.111 340 453.668 332.734 453.668 323.771C453.668 314.809 352.111 307.543 226.834 307.543C101.557 307.543 0 314.809 0 323.771C0 332.734 101.557 340 226.834 340Z" fill="#E6E6E6"/>
<path d="M404.049 332.859C367.062 326.228 326.615 327.33 284.188 332.859C303.525 316.414 320.215 299.969 300.877 283.524C338.598 291.363 343.881 290.57 385.842 283.524C376.109 299.969 394.316 316.414 404.049 332.859Z" fill="#00487C"/>
<path opacity="0.2" d="M404.049 332.859C367.062 326.228 326.615 327.33 284.188 332.859C303.525 316.414 320.215 299.969 300.877 283.524C338.598 291.363 343.881 290.57 385.842 283.524C376.109 299.969 394.316 316.414 404.049 332.859Z" fill="black"/>
<path d="M395.027 325.843C363.607 320.55 329.249 321.43 293.209 325.843C309.636 312.717 323.813 299.59 307.386 286.463C339.428 292.72 343.916 292.087 379.561 286.463C371.293 299.59 386.759 312.717 395.027 325.843Z" fill="#00487C"/>
<path d="M383.059 304.693C392.305 304.693 399.8 297.143 399.8 287.829C399.8 278.516 392.305 270.965 383.059 270.965C373.814 270.965 366.318 278.516 366.318 287.829C366.318 297.143 373.814 304.693 383.059 304.693Z" fill="#2F2E41"/>
<path d="M307.064 268.269L318.664 270.217L324.463 287.094L307.709 297.481L288.376 268.269H306.42H307.064Z" fill="#A0616A"/>
<path d="M339.93 294.235C354.878 294.235 366.995 282.029 366.995 266.971C366.995 251.914 354.878 239.707 339.93 239.707C324.982 239.707 312.864 251.914 312.864 266.971C312.864 282.029 324.982 294.235 339.93 294.235Z" fill="#A0616A"/>
<path d="M190.424 167.652C190.424 167.652 124.694 174.792 113.095 173.494C101.495 172.196 96.3397 170.897 96.3397 170.897C96.3397 170.897 88.6067 181.284 92.4732 185.828C94.6387 188.446 97.259 190.646 100.206 192.319C100.206 192.319 107.295 190.372 112.45 192.319C117.605 194.267 169.803 202.706 178.825 194.916C187.847 187.126 190.424 167.652 190.424 167.652Z" fill="#2F2E41"/>
<path d="M194.936 312.411C194.936 312.411 151.76 300.078 144.027 245.549V240.356C144.027 240.356 135.484 255.453 132.427 258.532C128.883 262.103 116.317 294.235 116.961 297.481C117.606 300.727 116.961 302.025 116.961 302.025L98.2734 300.078V294.235C98.2734 294.235 108.262 264.05 108.906 256.909C109.551 249.769 133.716 200.109 133.716 200.109C133.716 200.109 142.738 181.284 158.204 200.109C173.67 218.934 174.959 231.917 174.959 231.917L194.936 270.866L194.936 312.411Z" fill="#2F2E41"/>
<path d="M98.2736 168.95L77.6523 161.809C77.6523 161.809 58.3198 147.528 62.8308 161.809C67.3417 176.091 87.963 207.25 93.7627 204.004C99.5624 200.758 106.538 192.702 104.983 191.537C103.429 190.372 93.1183 181.933 98.2736 168.95Z" fill="#2F2E41"/>
<path d="M100.766 290.403L84.1195 298.592C84.1195 298.592 63.9889 301.712 75.2156 307.561C86.4423 313.411 117.412 319.65 118.961 314.191C120.509 308.731 119.895 299.67 118.267 299.911C116.638 300.152 105.411 301.322 100.766 290.403Z" fill="#2F2E41"/>
<path d="M186.559 269.568C186.559 269.568 178.181 305.92 192.358 313.71C206.535 321.499 305.775 322.798 313.508 308.516C321.241 294.235 317.375 294.235 317.375 294.235L296.754 270.866L313.508 269.568C313.508 269.568 313.508 264.375 307.709 263.725C301.909 263.076 283.865 256.585 268.399 261.129C252.933 265.673 243.911 252.041 243.911 252.041L186.559 269.568Z" fill="#00487C"/>
<path d="M175.603 155.967L164.647 216.338L240.044 207.25L253.577 152.721L175.603 155.967Z" fill="#3F3D56"/>
<path d="M177.859 158.239L168.837 212.118L237.467 204.004L250.677 154.993L177.859 158.239Z" fill="white"/>
<path d="M167.226 216.987L164.648 216.338L163.359 218.934L183.981 276.708L185.92 275.961L186.558 272.165L167.226 216.987Z" fill="#B3B3B3"/>
<path d="M164.647 215.688L185.269 276.059L263.243 264.375L240.044 207.25L164.647 215.688Z" fill="#D0CDE1"/>
<path d="M174.959 213.741V216.987L232.312 210.496L231.667 207.25L174.959 213.741Z" fill="#3F3D56"/>
<path d="M176.247 220.233L185.269 245.549L243.911 238.409L233.6 214.39L176.247 220.233Z" fill="#3F3D56"/>
<path d="M249.711 255.936L247.777 250.742C247.777 250.742 232.956 224.777 225.223 229.97C217.49 235.163 241.333 260.48 241.333 260.48H249.066L249.711 255.936Z" fill="#A0616A"/>
<path d="M200.736 259.83L198.802 252.041C198.802 252.041 193.647 228.022 202.669 229.321C211.691 230.619 214.268 253.339 214.268 253.339L213.624 258.532L200.736 259.83Z" fill="#A0616A"/>
<path d="M216.202 256.585C216.202 256.585 199.447 253.988 198.802 257.883C198.158 261.778 194.936 320.201 211.046 322.148C227.157 324.096 307.064 332.535 298.687 312.411C290.309 292.288 277.421 294.884 277.421 294.884L222.646 300.727L216.202 256.585Z" fill="#00487C"/>
<path d="M266.788 264.05L249.711 252.041L238.434 260.804L252.611 276.384L266.788 264.05Z" fill="#00487C"/>
<path opacity="0.2" d="M221.034 275.735L223.611 300.402L268.076 297.806L229.411 297.157L221.034 275.735Z" fill="black"/>
<path d="M353.289 304.382C371.084 304.382 385.51 289.851 385.51 271.925C385.51 253.999 371.084 239.468 353.289 239.468C335.494 239.468 321.068 253.999 321.068 271.925C321.068 289.851 335.494 304.382 353.289 304.382Z" fill="#2F2E41"/>
<path d="M187.524 177.064L227.478 175.663L231.345 160.836L190.102 162.09L187.524 177.064Z" fill="#00487C"/>
<path d="M177.215 185.503L237.79 183.556L238.434 180.959L177.859 183.108L177.215 185.503Z" fill="#E6E6E6"/>
<path d="M175.926 191.995L236.501 190.047L237.145 187.451L176.57 189.599L175.926 191.995Z" fill="#E6E6E6"/>
<path d="M175.281 197.188L235.856 195.241L236.501 192.644L175.926 194.792L175.281 197.188Z" fill="#E6E6E6"/>
</g>
<defs>
<clipPath id="clip0">
<rect width="458.105" height="340" fill="white"/>
</clipPath>
</defs>
</svg>
