<svg width="449" height="340" viewBox="0 0 449 340" fill="none" xmlns="http://www.w3.org/2000/svg">
<g clip-path="url(#clip0)">
<path d="M366.702 310.948L371.747 323.827H379.036L372.869 308.708L366.702 310.948Z" fill="#FFB8B8"/>
<path d="M388.567 316.548L393.613 329.427H400.901L394.734 314.308L388.567 316.548Z" fill="#FFB8B8"/>
<path d="M370.127 321.867L360.596 325.787C360.596 325.787 349.384 326.347 351.065 331.947C352.747 337.546 369.567 333.627 369.567 333.627C369.567 333.627 384.704 334.186 384.704 330.267C384.704 326.347 382.462 321.867 380.219 321.867H370.127Z" fill="#2F2E41"/>
<path d="M391.432 326.907L381.901 330.827C381.901 330.827 370.688 331.387 372.37 336.986C374.052 342.586 390.871 338.666 390.871 338.666C390.871 338.666 406.009 339.226 406.009 335.306C406.009 331.387 403.766 326.907 401.523 326.907H391.432Z" fill="#2F2E41"/>
<path d="M361.133 0.204468H0.15332V231.108H361.133V0.204468Z" fill="#E6E6E6"/>
<path d="M350.811 29.1654H10.4761V217.447H350.811V29.1654Z" fill="white"/>
<path d="M360.979 0H0V15.3169H360.979V0Z" fill="#00487C"/>
<path d="M11.3961 10.6694C12.9659 10.6694 14.2384 9.39843 14.2384 7.83056C14.2384 6.2627 12.9659 4.9917 11.3961 4.9917C9.82628 4.9917 8.55371 6.2627 8.55371 7.83056C8.55371 9.39843 9.82628 10.6694 11.3961 10.6694Z" fill="white"/>
<path d="M22.1851 10.6694C23.7549 10.6694 25.0275 9.39843 25.0275 7.83056C25.0275 6.2627 23.7549 4.9917 22.1851 4.9917C20.6153 4.9917 19.3428 6.2627 19.3428 7.83056C19.3428 9.39843 20.6153 10.6694 22.1851 10.6694Z" fill="white"/>
<path d="M32.9742 10.6694C34.544 10.6694 35.8166 9.39843 35.8166 7.83056C35.8166 6.2627 34.544 4.9917 32.9742 4.9917C31.4044 4.9917 30.1318 6.2627 30.1318 7.83056C30.1318 9.39843 31.4044 10.6694 32.9742 10.6694Z" fill="white"/>
<path d="M128.85 48.7013H41.4004V197.912H128.85V48.7013Z" fill="#E6E6E6"/>
<path d="M216.821 48.7013H143.946V89.7731H216.821V48.7013Z" fill="#00487C"/>
<path d="M216.821 101.211H143.946V145.402H216.821V101.211Z" fill="#E6E6E6"/>
<path d="M216.821 156.84H143.946V197.911H216.821V156.84Z" fill="#E6E6E6"/>
<path d="M319.888 48.7013H232.438V113.726H319.888V48.7013Z" fill="#E6E6E6"/>
<path d="M319.888 132.887H232.438V197.912H319.888V132.887Z" fill="#00487C"/>
<path d="M412.994 115.732C407.226 105.912 395.813 105.455 395.813 105.455C395.813 105.455 384.693 104.022 377.559 118.977C370.909 132.916 361.732 146.375 376.081 149.638L378.673 141.511L380.278 150.243C382.321 150.391 384.371 150.426 386.418 150.348C401.784 149.848 416.419 150.495 415.947 144.939C415.321 137.555 418.545 125.18 412.994 115.732Z" fill="#2F2E41"/>
<path d="M358.292 168.159L353.246 181.038L328.017 204.556C328.017 204.556 312.88 215.755 319.607 219.115C326.335 222.475 332.502 206.796 332.502 206.796L359.413 190.557L365.02 172.078L358.292 168.159Z" fill="#FFB8B8"/>
<path d="M388.006 318.787L397.537 316.548L385.203 266.711L389.298 228.365L389.408 228.354C389.408 228.354 396.416 201.196 390.81 193.917C385.203 186.637 357.171 189.437 357.171 189.437C357.171 189.437 346.518 200.076 347.079 224.154C347.64 248.233 347.079 268.951 351.004 278.47C354.928 287.99 366.141 313.188 366.141 313.188L375.111 312.068L365.58 270.631L364.056 234.61C365.269 249.045 367.71 276.416 368.944 278.47C370.626 281.27 388.006 318.787 388.006 318.787Z" fill="#2F2E41"/>
<path d="M416.599 179.918L420.524 193.917L437.904 225.274C437.904 225.274 453.041 238.713 446.874 240.393C440.707 242.073 431.176 228.074 431.176 228.074L411.554 200.636L406.508 180.478L416.599 179.918Z" fill="#FFB8B8"/>
<path d="M396.416 140.161C404.157 140.161 410.432 133.893 410.432 126.162C410.432 118.43 404.157 112.163 396.416 112.163C388.675 112.163 382.4 118.43 382.4 126.162C382.4 133.893 388.675 140.161 396.416 140.161Z" fill="#FFB8B8"/>
<path d="M389.128 133.441L385.764 144.08L380.157 156.399L400.901 148C400.901 148 399.78 139.041 400.901 136.801L389.128 133.441Z" fill="#FFB8B8"/>
<path d="M413.236 155.839L400.341 145.2L385.764 151.36L386.335 142.274L370.782 147.235L368.384 148L365.02 165.359C365.02 165.359 362.777 167.039 360.535 176.558C359.24 182.152 357.361 187.595 354.928 192.797C354.928 192.797 379.036 183.277 390.81 196.156C390.81 196.156 392.492 195.037 391.931 193.357C391.37 191.677 396.977 183.277 396.977 183.277C396.977 183.277 396.977 184.957 399.219 181.598C401.462 178.238 403.144 177.678 403.144 177.678L413.236 155.839Z" fill="#00487C"/>
<path d="M371.748 149.68L369.299 147.708C369.299 147.708 367.262 146.88 365.58 149.68C363.898 152.48 355.489 169.838 355.489 169.838L365.58 174.878L371.748 149.68Z" fill="#00487C"/>
<path d="M405.386 155.28L413.235 155.84C413.235 155.84 417.721 158.08 417.721 161.439C417.721 164.799 418.842 182.718 418.842 182.718L406.508 186.637L401.462 170.959L405.386 155.28Z" fill="#00487C"/>
<path d="M410.444 114.785L399.169 108.835L383.599 111.269L380.378 125.603L388.397 125.292L390.637 120.026V125.206L394.338 125.062L396.485 116.679L397.827 125.603L410.981 125.332L410.444 114.785Z" fill="#2F2E41"/>
<path d="M335.032 46.7825C323.816 37.3306 310.092 31.3382 295.529 29.5345C280.967 27.7308 266.193 30.1936 253.006 36.6232C239.819 43.0527 228.787 53.1719 221.253 65.7493C213.719 78.3266 210.008 92.8199 210.571 107.466C211.134 122.111 215.947 136.278 224.424 148.241C232.901 160.205 244.677 169.449 258.319 174.85C271.96 180.251 286.88 181.575 301.261 178.662C315.643 175.748 328.867 168.723 339.323 158.44L432.177 236.693C432.877 237.283 433.686 237.73 434.559 238.007C435.432 238.285 436.351 238.388 437.264 238.311C438.177 238.234 439.066 237.978 439.88 237.557C440.693 237.137 441.416 236.561 442.007 235.862C442.598 235.162 443.045 234.354 443.323 233.482C443.601 232.61 443.704 231.692 443.627 230.78C443.549 229.868 443.293 228.981 442.872 228.168C442.451 227.355 441.874 226.633 441.174 226.043L348.32 147.79C359.107 132.328 363.724 113.4 361.265 94.7155C358.807 76.0308 349.451 58.9365 335.032 46.7825ZM329.046 140.255C321.812 148.817 312.199 155.045 301.421 158.15C290.644 161.256 279.186 161.099 268.498 157.701C257.809 154.303 248.37 147.815 241.373 139.059C234.376 130.303 230.136 119.671 229.189 108.507C228.243 97.3443 230.631 86.1514 236.053 76.3442C241.476 66.5369 249.688 58.5558 259.652 53.4101C269.615 48.2644 280.883 46.1853 292.03 47.4355C303.177 48.6858 313.702 53.2093 322.275 60.4342C333.771 70.1223 340.942 83.9747 342.212 98.944C343.482 113.913 338.746 128.773 329.046 140.255Z" fill="#3F3D56"/>
</g>
<defs>
<clipPath id="clip0">
<rect width="448.352" height="340" fill="white"/>
</clipPath>
</defs>
</svg>
