<svg width="533" height="373" viewBox="0 0 533 373" fill="none" xmlns="http://www.w3.org/2000/svg">
<path opacity="0.1" d="M501.465 216.907C483.013 242.335 489.102 278.631 499.768 307.548C503.34 317.228 507.398 327.467 505.546 337.999C503.284 350.874 492.651 360.521 481.599 365.775C461.45 375.351 437.649 373.822 419.626 361.756C404.072 351.342 393.124 334.037 377.269 324.12C350.734 307.529 316.286 314.942 286.753 327.609C265.86 336.569 242.973 348.11 222.612 339.835C208.284 334.013 198.637 319.193 193.561 303.35C191.11 295.7 189.394 287.398 184.511 281.41C181.608 277.85 177.772 275.37 173.827 273.297C137.823 254.363 91.5119 266.197 56.6065 245.071C33.0408 230.804 18.3736 203.118 12.2795 174.012C6.18543 144.906 7.69364 114.181 10.1209 83.981C11.8459 62.5194 14.5748 39.5856 27.4228 22.7202C41.0107 4.88445 63.7846 -2.20631 84.15 0.591177C104.515 3.38867 122.769 14.7632 138.747 28.301C158.716 45.2232 177.102 66.4624 201.955 72.881C218.88 77.2547 236.86 74.159 254.454 72.791C283.864 70.5095 313.17 73.1366 342.298 76.1045C370.18 78.9446 398.257 82.116 424.664 91.4268C443.352 98.0158 458.165 110.47 475.759 118.98C487.226 124.528 499.843 125.816 510.636 132.982C523.956 141.81 535.993 157.449 532.086 176.218C528.395 194.054 511.258 203.412 501.465 216.907Z" fill="#00487C"/>
<path d="M272.712 75.224H184.935C182.433 75.224 180.405 77.2606 180.405 79.7729V136.016C180.405 138.528 182.433 140.565 184.935 140.565H272.712C275.213 140.565 277.241 138.528 277.241 136.016V79.7729C277.241 77.2606 275.213 75.224 272.712 75.224Z" fill="#474059"/>
<path d="M274.998 82.8544H182.441V136.234H274.998V82.8544Z" fill="white"/>
<path d="M228.72 80.98C229.17 80.98 229.535 80.5837 229.535 80.0949C229.535 79.606 229.17 79.2097 228.72 79.2097C228.269 79.2097 227.904 79.606 227.904 80.0949C227.904 80.5837 228.269 80.98 228.72 80.98Z" fill="white"/>
<path d="M237.052 138.198H220.085V156.186H237.052V138.198Z" fill="#474059"/>
<path d="M218.672 154.766H239.409C240.159 154.766 240.879 155.065 241.409 155.597C241.939 156.13 242.237 156.852 242.237 157.606H215.844C215.844 156.852 216.142 156.13 216.672 155.597C217.202 155.065 217.922 154.766 218.672 154.766Z" fill="#474059"/>
<path d="M180.495 169.913H110.74V194.054H180.495V169.913Z" fill="#C0BCCF"/>
<path d="M410.496 158.079H395.414V289.67H410.496V158.079Z" fill="#C0BCCF"/>
<path opacity="0.1" d="M180.495 169.913H110.74V171.333H180.495V169.913Z" fill="black"/>
<path opacity="0.1" d="M410.496 158.079H395.414V171.333H410.496V158.079Z" fill="black"/>
<path d="M180.495 193.107H110.74V217.248H180.495V193.107Z" fill="#C0BCCF"/>
<path d="M145.618 209.201C147.96 209.201 149.86 207.293 149.86 204.941C149.86 202.588 147.96 200.68 145.618 200.68C143.275 200.68 141.376 202.588 141.376 204.941C141.376 207.293 143.275 209.201 145.618 209.201Z" fill="#00487C"/>
<path d="M145.618 186.007C147.96 186.007 149.86 184.099 149.86 181.746C149.86 179.394 147.96 177.486 145.618 177.486C143.275 177.486 141.376 179.394 141.376 181.746C141.376 184.099 143.275 186.007 145.618 186.007Z" fill="#00487C"/>
<path d="M180.495 217.248H110.74V241.388H180.495V217.248Z" fill="#C0BCCF"/>
<path d="M145.618 232.868C147.96 232.868 149.86 230.961 149.86 228.608C149.86 226.255 147.96 224.348 145.618 224.348C143.275 224.348 141.376 226.255 141.376 228.608C141.376 230.961 143.275 232.868 145.618 232.868Z" fill="#00487C"/>
<path d="M180.495 241.388H110.74V265.529H180.495V241.388Z" fill="#C0BCCF"/>
<path d="M145.618 257.009C147.96 257.009 149.86 255.102 149.86 252.749C149.86 250.396 147.96 248.489 145.618 248.489C143.275 248.489 141.376 250.396 141.376 252.749C141.376 255.102 143.275 257.009 145.618 257.009Z" fill="#00487C"/>
<path d="M180.495 265.529H110.74V289.67H180.495V265.529Z" fill="#C0BCCF"/>
<path d="M145.618 281.15C147.96 281.15 149.86 279.242 149.86 276.89C149.86 274.537 147.96 272.629 145.618 272.629C143.275 272.629 141.376 274.537 141.376 276.89C141.376 279.242 143.275 281.15 145.618 281.15Z" fill="#00487C"/>
<path opacity="0.1" d="M180.495 215.828H110.74V217.721H180.495V215.828Z" fill="black"/>
<path opacity="0.1" d="M180.495 192.16H110.74V194.053H180.495V192.16Z" fill="black"/>
<path opacity="0.1" d="M180.495 239.969H110.74V241.862H180.495V239.969Z" fill="black"/>
<path opacity="0.1" d="M180.495 264.109H110.74V266.003H180.495V264.109Z" fill="black"/>
<path d="M72.4552 272.293C72.4552 272.293 70.8998 226.019 45.9721 199.871C35.509 188.899 28.6372 174.963 26.818 159.883C25.9675 152.725 25.7719 145.505 26.2335 138.312" stroke="#535461" stroke-width="2" stroke-miterlimit="10"/>
<path d="M10.6191 121.754C12.3252 126.923 26.5872 138.795 26.5872 138.795C26.5872 138.795 30.9562 120.708 29.2501 115.544C28.4307 113.063 26.6634 111.01 24.337 109.837C22.0107 108.665 19.3157 108.468 16.8451 109.291C14.3745 110.114 12.3305 111.889 11.1629 114.225C9.99533 116.562 9.79969 119.268 10.6191 121.75V121.754Z" fill="#00487C"/>
<path d="M4.67095 155.499C8.91277 158.907 27.294 161.094 27.294 161.094C27.294 161.094 21.1669 143.528 16.9251 140.125C14.8945 138.489 12.3 137.73 9.71242 138.016C7.12485 138.301 4.75615 139.607 3.1274 141.647C1.49865 143.686 0.743273 146.292 1.02744 148.891C1.31161 151.489 2.61205 153.868 4.64267 155.504L4.67095 155.499Z" fill="#00487C"/>
<path d="M21.4976 204.183C26.8611 204.978 43.8426 197.556 43.8426 197.556C43.8426 197.556 29.7267 185.481 24.3679 184.681C21.7929 184.299 19.1722 184.96 17.0822 186.518C14.9923 188.076 13.6043 190.405 13.2237 192.991C12.8431 195.577 13.501 198.209 15.0526 200.308C16.6043 202.407 18.9226 203.801 21.4976 204.183Z" fill="#00487C"/>
<path d="M42.4806 238.141C47.632 239.836 65.622 235.386 65.622 235.386C65.622 235.386 53.7402 221.105 48.5888 219.411C46.1156 218.595 43.4211 218.799 41.0978 219.978C38.7745 221.158 37.0128 223.215 36.2003 225.699C35.3878 228.183 35.591 230.889 36.7653 233.223C37.9395 235.556 39.9886 237.325 42.4617 238.141H42.4806Z" fill="#00487C"/>
<path d="M47.1925 155.58C44.6898 160.408 28.7312 169.865 28.7312 169.865C28.7312 169.865 27.2795 151.315 29.7822 146.482C30.377 145.334 31.1912 144.315 32.1782 143.483C33.1652 142.65 34.3057 142.022 35.5346 141.632C36.7635 141.243 38.0568 141.1 39.3406 141.213C40.6244 141.325 41.8735 141.691 43.0167 142.288C44.1599 142.886 45.1747 143.703 46.0032 144.694C46.8318 145.686 47.4578 146.831 47.8455 148.065C48.2333 149.3 48.3752 150.598 48.2632 151.888C48.1511 153.177 47.7873 154.432 47.1925 155.58Z" fill="#00487C"/>
<path d="M71.2351 195.606C67.4081 199.464 49.3662 203.686 49.3662 203.686C49.3662 203.686 53.509 185.547 57.3314 181.69C59.1683 179.838 61.6623 178.795 64.2649 178.79C66.8675 178.785 69.3655 179.819 71.2092 181.664C73.053 183.508 74.0915 186.013 74.0964 188.627C74.1012 191.241 73.072 193.75 71.2351 195.601V195.606Z" fill="#00487C"/>
<path d="M89.2866 237.729C86.1665 242.179 69.0908 249.407 69.0908 249.407C69.0908 249.407 70.1183 230.828 73.2431 226.374C73.966 225.27 74.9028 224.323 75.9975 223.589C77.0922 222.856 78.3227 222.351 79.6156 222.105C80.9085 221.859 82.2374 221.877 83.5234 222.157C84.8093 222.438 86.026 222.975 87.1011 223.737C88.1761 224.499 89.0875 225.471 89.7811 226.594C90.4747 227.717 90.9363 228.968 91.1385 230.274C91.3406 231.58 91.2792 232.914 90.9578 234.195C90.6364 235.477 90.0617 236.68 89.2677 237.734L89.2866 237.729Z" fill="#00487C"/>
<path d="M66.9785 253.142C66.9785 253.142 81.1179 232.485 78.6388 213.049C77.5463 204.904 79.1142 196.622 83.1069 189.448C85.027 186.052 87.2531 182.84 89.7571 179.853" stroke="#535461" stroke-width="2" stroke-miterlimit="10"/>
<path d="M88.2691 167.612C87.3594 170.414 89.7631 180.194 89.7631 180.194C89.7631 180.194 97.4597 173.728 98.3693 170.93C98.5859 170.264 98.6698 169.562 98.6162 168.863C98.5625 168.165 98.3724 167.484 98.0566 166.859C97.7408 166.234 97.3056 165.678 96.7758 165.222C96.246 164.766 95.632 164.419 94.9688 164.202C93.6294 163.762 92.1711 163.875 90.9147 164.516C89.6582 165.156 88.7066 166.272 88.2691 167.617V167.612Z" fill="#00487C"/>
<path d="M74.8693 180.383C75.6187 183.223 82.9334 190.129 82.9334 190.129C82.9334 190.129 85.8933 180.502 85.1439 177.652C84.9653 176.974 84.6556 176.339 84.2325 175.781C83.8094 175.224 83.281 174.756 82.6777 174.404C82.0744 174.051 81.4079 173.822 80.7163 173.728C80.0247 173.635 79.3215 173.679 78.6469 173.858C77.9722 174.037 77.3394 174.348 76.7844 174.773C76.2294 175.198 75.7633 175.729 75.4125 176.335C75.0617 176.941 74.8332 177.61 74.74 178.305C74.6468 178.999 74.6907 179.706 74.8693 180.383Z" fill="#00487C"/>
<path d="M66.6019 207.019C68.6804 209.097 78.4601 211.345 78.4601 211.345C78.4601 211.345 76.179 201.532 74.0958 199.454C73.0958 198.456 71.742 197.898 70.3322 197.903C68.9224 197.907 67.5721 198.474 66.5784 199.478C65.5846 200.482 65.0288 201.842 65.0332 203.258C65.0376 204.674 65.6019 206.03 66.6019 207.028V207.019Z" fill="#00487C"/>
<path d="M64.8679 228.608C66.5693 231.008 75.8306 234.885 75.8306 234.885C75.8306 234.885 75.232 224.826 73.5306 222.426C72.7143 221.272 71.4752 220.492 70.0857 220.255C68.6963 220.019 67.2703 220.347 66.1215 221.167C64.9728 221.987 64.1954 223.231 63.9602 224.627C63.7251 226.022 64.0516 227.454 64.8679 228.608Z" fill="#00487C"/>
<path d="M93.3584 194.158C90.7238 195.455 80.7461 194.413 80.7461 194.413C80.7461 194.413 86.0531 185.865 88.6924 184.587C89.3191 184.279 90 184.098 90.6964 184.054C91.3927 184.01 92.0908 184.105 92.7508 184.332C93.4108 184.559 94.0197 184.915 94.5429 185.378C95.066 185.842 95.4931 186.404 95.7998 187.034C96.1065 187.663 96.2868 188.347 96.3303 189.046C96.3738 189.746 96.2797 190.447 96.0535 191.11C95.8272 191.773 95.4732 192.384 95.0116 192.909C94.5499 193.435 93.9898 193.864 93.3631 194.172L93.3584 194.158Z" fill="#00487C"/>
<path d="M91.0119 219.354C88.1086 219.794 78.918 215.827 78.918 215.827C78.918 215.827 86.5297 209.267 89.433 208.822C90.8261 208.609 92.2463 208.961 93.3812 209.8C94.5161 210.639 95.2728 211.896 95.4846 213.295C95.6965 214.694 95.3463 216.121 94.511 217.26C93.6757 218.4 92.4238 219.16 91.0307 219.373L91.0119 219.354Z" fill="#00487C"/>
<path d="M85.3787 243.528C82.5933 244.475 72.8418 242.108 72.8418 242.108C72.8418 242.108 79.2422 234.35 82.0277 233.417C83.3652 232.971 84.8244 233.077 86.0844 233.711C87.3444 234.345 88.3019 235.456 88.7463 236.799C89.1906 238.143 89.0855 239.608 88.454 240.874C87.8224 242.139 86.7162 243.101 85.3787 243.547V243.528Z" fill="#00487C"/>
<path opacity="0.5" d="M88.2691 167.612C87.3594 170.414 89.7631 180.194 89.7631 180.194C89.7631 180.194 97.4597 173.728 98.3693 170.93C98.5859 170.264 98.6698 169.562 98.6162 168.863C98.5625 168.165 98.3724 167.484 98.0566 166.859C97.7408 166.234 97.3056 165.678 96.7758 165.222C96.246 164.766 95.632 164.419 94.9688 164.202C93.6294 163.762 92.1711 163.875 90.9147 164.516C89.6582 165.156 88.7066 166.272 88.2691 167.617V167.612Z" fill="white"/>
<path opacity="0.5" d="M74.8693 180.383C75.6187 183.223 82.9334 190.129 82.9334 190.129C82.9334 190.129 85.8933 180.502 85.1439 177.652C84.9653 176.974 84.6556 176.339 84.2325 175.781C83.8094 175.224 83.281 174.756 82.6777 174.404C82.0744 174.051 81.4079 173.822 80.7163 173.728C80.0247 173.635 79.3215 173.679 78.6469 173.858C77.9722 174.037 77.3394 174.348 76.7844 174.773C76.2294 175.198 75.7633 175.729 75.4125 176.335C75.0617 176.941 74.8332 177.61 74.74 178.305C74.6468 178.999 74.6907 179.706 74.8693 180.383Z" fill="white"/>
<path opacity="0.5" d="M66.6019 207.019C68.6804 209.097 78.4601 211.345 78.4601 211.345C78.4601 211.345 76.179 201.532 74.0958 199.454C73.0958 198.456 71.742 197.898 70.3322 197.903C68.9224 197.907 67.5721 198.474 66.5784 199.478C65.5846 200.482 65.0288 201.842 65.0332 203.258C65.0376 204.674 65.6019 206.03 66.6019 207.028V207.019Z" fill="white"/>
<path opacity="0.5" d="M64.8679 228.608C66.5693 231.008 75.8306 234.885 75.8306 234.885C75.8306 234.885 75.232 224.826 73.5306 222.426C72.7143 221.272 71.4752 220.492 70.0857 220.255C68.6963 220.019 67.2703 220.347 66.1215 221.167C64.9728 221.987 64.1954 223.231 63.9602 224.627C63.7251 226.022 64.0516 227.454 64.8679 228.608Z" fill="white"/>
<path opacity="0.5" d="M93.3584 194.158C90.7238 195.455 80.7461 194.413 80.7461 194.413C80.7461 194.413 86.0531 185.865 88.6924 184.587C89.3191 184.279 90 184.098 90.6964 184.054C91.3927 184.01 92.0908 184.105 92.7508 184.332C93.4108 184.559 94.0197 184.915 94.5429 185.378C95.066 185.842 95.4931 186.404 95.7998 187.034C96.1065 187.663 96.2868 188.347 96.3303 189.046C96.3738 189.746 96.2797 190.447 96.0535 191.11C95.8272 191.773 95.4732 192.384 95.0116 192.909C94.5499 193.435 93.9898 193.864 93.3631 194.172L93.3584 194.158Z" fill="white"/>
<path opacity="0.5" d="M91.0119 219.354C88.1086 219.794 78.918 215.827 78.918 215.827C78.918 215.827 86.5297 209.267 89.433 208.822C90.8261 208.609 92.2463 208.961 93.3812 209.8C94.5161 210.639 95.2728 211.896 95.4846 213.295C95.6965 214.694 95.3463 216.121 94.511 217.26C93.6757 218.4 92.4238 219.16 91.0307 219.373L91.0119 219.354Z" fill="white"/>
<path opacity="0.5" d="M85.3787 243.528C82.5933 244.475 72.8418 242.108 72.8418 242.108C72.8418 242.108 79.2422 234.35 82.0277 233.417C83.3652 232.971 84.8244 233.077 86.0844 233.711C87.3444 234.345 88.3019 235.456 88.7463 236.799C89.1906 238.143 89.0855 239.608 88.454 240.874C87.8224 242.139 86.7162 243.101 85.3787 243.547V243.528Z" fill="white"/>
<path d="M93.1423 309.153H52.9252L42.8721 247.556H103.2L93.1423 309.153Z" fill="#474059"/>
<path opacity="0.1" d="M95.4982 247.556L86.1049 305.115H52.2646L52.9245 309.153H93.1416L103.199 247.556H95.4982Z" fill="black"/>
<path d="M412.381 156.186H109.327V170.386H412.381V156.186Z" fill="#C0BCCF"/>
<path d="M228.097 86.5465H184.736V132.57H228.097V86.5465Z" fill="#E8EAF1"/>
<path d="M227.155 87.55H185.68V131.571H227.155V87.55Z" fill="white"/>
<path d="M222.668 119.634C223.248 115.023 222.088 114.734 222.088 114.734L220.425 113.935C220.452 113.664 220.463 113.392 220.458 113.12C220.471 112.895 220.471 112.669 220.458 112.443C220.293 110.626 219.218 109.04 218.455 107.383C217.753 105.853 217.311 104.217 217.144 102.541C216.942 100.472 217.144 98.3235 216.437 96.3875C215.779 94.8308 214.775 93.4464 213.501 92.3403C212.151 90.9755 210.55 89.8858 208.788 89.131C207.002 88.3771 205 88.3197 203.175 88.9701C201.572 89.6044 200.347 90.8635 199.131 92.1084C198.254 92.9386 197.486 93.877 196.845 94.9012C196.172 96.2217 195.737 97.651 195.558 99.1234C195.175 101.461 194.911 103.817 194.766 106.181C194.639 108.15 194.446 110.389 192.881 111.601C192.113 112.193 191.038 112.524 190.685 113.419C190.587 113.688 190.548 113.975 190.572 114.261C190.562 114.5 190.578 114.74 190.619 114.976C190.619 115.113 190.671 115.25 190.699 115.388C190.249 116.593 189.871 117.824 189.568 119.075C188.502 123.339 187.726 127.671 187.244 132.04H215.202C215.467 132.072 215.734 132.072 215.999 132.04H223.271L222.668 119.634Z" fill="url(#paint0_linear)"/>
<path d="M214.529 100.515H198.48V112.675H214.529V100.515Z" fill="#B96B6B"/>
<path opacity="0.1" d="M214.529 100.515H198.48V112.675H214.529V100.515Z" fill="black"/>
<path d="M215.094 113.239L208.901 122.005L202.402 121.442C202.402 121.442 193.956 122.005 199.574 115.501C202.279 112.377 203.165 109.774 203.344 107.928C203.502 106.858 203.363 105.766 202.944 104.771L209.985 103.923C209.669 104.875 209.629 105.898 209.872 106.872C210.786 110.536 215.094 113.239 215.094 113.239Z" fill="#FFB9B9"/>
<path opacity="0.1" d="M209.909 106.858C208.99 107.555 207.915 108.015 206.777 108.198C205.64 108.38 204.475 108.279 203.386 107.904C203.544 106.835 203.405 105.742 202.985 104.747L210.027 103.9C209.707 104.854 209.666 105.881 209.909 106.858Z" fill="black"/>
<path d="M205.658 108.008C209.547 108.008 212.699 104.842 212.699 100.936C212.699 97.0307 209.547 93.8645 205.658 93.8645C201.769 93.8645 198.616 97.0307 198.616 100.936C198.616 104.842 201.769 108.008 205.658 108.008Z" fill="#FFB9B9"/>
<path opacity="0.1" d="M206.083 119.738C206.083 119.738 208.618 116.628 208.618 114.081C208.966 113.406 209.443 112.807 210.023 112.319C210.604 111.832 211.275 111.465 211.998 111.241C214.533 110.394 214.251 111.241 214.251 111.241L215.938 118.029L215.377 130.189L215.66 131.609H194.818L196.232 125.953L195.945 121.158L197.071 113.807L200.451 111.828L202.986 115.222L206.083 119.738Z" fill="black"/>
<path d="M206.083 120.026C206.083 120.026 208.618 116.917 208.618 114.37C208.966 113.695 209.443 113.096 210.023 112.608C210.604 112.121 211.275 111.754 211.998 111.53C214.533 110.683 214.251 111.53 214.251 111.53L215.938 118.318L215.377 130.478L215.66 131.898H194.818L196.232 126.242L195.95 121.432L197.076 114.081L200.455 112.103L202.991 115.497L206.083 120.026Z" fill="#FEC5D9"/>
<path opacity="0.1" d="M202.143 111.26L193.414 112.68C193.414 112.68 192 112.396 190.317 119.184C189.284 123.37 188.532 127.621 188.064 131.907H198.952C198.952 131.907 199.607 120.594 201.308 119.747L203.665 116.088C203.665 116.088 199.894 115.79 200.45 113.811C201.007 111.833 202.143 111.26 202.143 111.26Z" fill="black"/>
<path d="M201.86 111.26L193.131 112.68C193.131 112.68 191.717 112.396 190.034 119.184C189.005 123.368 188.255 127.618 187.791 131.903H198.678C198.678 131.903 199.333 120.59 201.035 119.742L203.391 116.083C203.391 116.083 199.621 115.785 200.177 113.807C200.733 111.828 201.86 111.26 201.86 111.26Z" fill="#00487C"/>
<path opacity="0.1" d="M211.997 110.413L221.287 114.938C221.287 114.938 222.413 115.222 221.848 119.747L222.408 131.908H212.417C213.176 128.091 213.32 124.177 212.841 120.315C212.349 117.036 212.067 113.728 211.997 110.413Z" fill="black"/>
<path d="M212.299 110.413L221.588 114.938C221.588 114.938 222.715 115.222 222.149 119.747L222.71 131.908H212.699C213.459 128.091 213.603 124.177 213.124 120.315C212.638 117.036 212.363 113.728 212.299 110.413Z" fill="#00487C"/>
<path opacity="0.1" d="M203.345 97.85C203.222 98.9956 202.44 99.9375 201.789 100.889C201.139 101.84 200.573 103.014 200.936 104.108C201.078 104.534 201.356 104.912 201.455 105.353C201.624 106.11 201.243 106.891 201.309 107.663C201.398 108.723 202.294 109.509 202.789 110.446C203.835 112.429 203.034 114.886 201.902 116.817C200.771 118.748 199.291 120.58 198.919 122.791C198.575 124.836 199.235 126.904 199.947 128.85C200.133 129.226 200.189 129.654 200.107 130.066C199.89 130.719 199.075 130.913 198.386 130.961C197.635 131.008 196.881 131.008 196.129 130.961C195.844 130.966 195.562 130.906 195.304 130.786C194.786 130.502 194.63 129.839 194.437 129.29C194.244 128.741 193.819 128.116 193.23 128.177C192.844 128.22 192.542 128.551 192.16 128.618C191.984 128.634 191.806 128.607 191.642 128.54C191.478 128.472 191.332 128.366 191.218 128.23C190.516 127.467 190.685 126.237 191.147 125.309C191.609 124.381 192.316 123.572 192.622 122.583C193.381 120.121 191.482 117.683 191.081 115.137C190.993 114.722 191.016 114.291 191.147 113.887C191.491 113.007 192.533 112.68 193.277 112.103C194.8 110.914 194.988 108.713 195.111 106.782C195.24 104.463 195.486 102.152 195.846 99.857C196.018 98.4143 196.439 97.0128 197.09 95.7152C197.711 94.7116 198.455 93.7907 199.306 92.9746C200.465 91.7628 201.662 90.5226 203.227 89.8978C204.995 89.259 206.937 89.3147 208.666 90.054C210.382 90.8039 211.937 91.8827 213.242 93.2302C214.473 94.3212 215.44 95.6793 216.07 97.2016C216.763 99.1186 216.541 101.23 216.754 103.26C216.916 104.897 217.344 106.496 218.021 107.994C218.761 109.622 219.803 111.18 219.963 112.964C220.09 114.384 219.629 115.804 219.393 117.201C218.978 119.648 219.228 122.152 219.473 124.618C219.508 125.215 219.632 125.804 219.841 126.365C220.251 127.15 220.823 127.839 221.518 128.386C221.597 128.441 221.663 128.511 221.714 128.593C221.765 128.674 221.8 128.764 221.815 128.859C221.81 128.94 221.788 129.02 221.749 129.091C221.711 129.163 221.658 129.226 221.594 129.276C220.741 130.038 219.266 129.474 218.342 130.151C218.084 130.377 217.849 130.627 217.64 130.899C217.247 131.328 216.745 131.64 216.188 131.801C215.631 131.963 215.04 131.967 214.481 131.815C213.921 131.663 213.414 131.359 213.014 130.937C212.615 130.515 212.338 129.991 212.215 129.422C211.974 128.315 212.333 127.179 212.469 126.052C212.893 122.497 211.084 119.118 209.641 115.847C208.963 114.318 208.345 112.661 208.595 111.004C208.798 109.674 209.538 108.505 210.08 107.274C211.168 104.818 211.494 101.94 210.551 99.4168C209.845 97.4931 208.412 95.9266 206.564 95.0573C205.894 94.7543 204.942 94.3378 204.24 94.7449C203.085 95.4076 203.439 96.7897 203.345 97.85Z" fill="black"/>
<path d="M203.345 97.5661C203.222 98.7116 202.44 99.6535 201.789 100.605C201.139 101.556 200.573 102.73 200.936 103.824C201.078 104.25 201.356 104.628 201.455 105.069C201.624 105.826 201.243 106.607 201.309 107.379C201.398 108.439 202.294 109.225 202.789 110.162C203.835 112.145 203.034 114.602 201.902 116.533C200.771 118.464 199.291 120.296 198.919 122.507C198.575 124.552 199.235 126.62 199.947 128.566C200.133 128.942 200.189 129.37 200.107 129.782C199.89 130.435 199.075 130.629 198.386 130.677C197.635 130.724 196.881 130.724 196.129 130.677C195.844 130.682 195.562 130.622 195.304 130.502C194.786 130.218 194.63 129.555 194.437 129.006C194.244 128.457 193.819 127.832 193.23 127.894C192.844 127.936 192.542 128.267 192.16 128.334C191.984 128.35 191.806 128.323 191.642 128.256C191.478 128.188 191.332 128.082 191.218 127.946C190.516 127.184 190.685 125.953 191.147 125.025C191.609 124.097 192.316 123.288 192.622 122.299C193.381 119.837 191.482 117.399 191.081 114.853C190.993 114.438 191.016 114.007 191.147 113.603C191.491 112.723 192.533 112.396 193.277 111.819C194.8 110.631 194.988 108.429 195.111 106.498C195.25 104.177 195.504 101.864 195.874 99.5684C196.046 98.1257 196.468 96.7241 197.119 95.4266C197.739 94.4229 198.483 93.502 199.334 92.6859C200.493 91.4741 201.69 90.2339 203.255 89.6091C205.023 88.9703 206.966 89.0261 208.694 89.7653C210.405 90.5078 211.956 91.5768 213.261 92.9131C214.492 94.0041 215.459 95.3622 216.089 96.8845C216.782 98.8015 216.56 100.913 216.772 102.943C216.935 104.58 217.363 106.179 218.04 107.677C218.78 109.305 219.822 110.862 219.982 112.647C220.109 114.067 219.647 115.487 219.412 116.883C218.997 119.331 219.247 121.835 219.492 124.301C219.523 124.901 219.643 125.493 219.85 126.057C220.26 126.843 220.832 127.532 221.528 128.078C221.606 128.133 221.673 128.204 221.724 128.285C221.775 128.366 221.809 128.457 221.825 128.551C221.82 128.633 221.797 128.712 221.759 128.784C221.721 128.856 221.668 128.918 221.603 128.968C220.75 129.73 219.275 129.167 218.351 129.844C218.093 130.069 217.858 130.32 217.649 130.592C217.256 131.02 216.754 131.332 216.197 131.493C215.64 131.655 215.05 131.66 214.49 131.507C213.931 131.355 213.423 131.051 213.024 130.63C212.624 130.208 212.348 129.684 212.224 129.115C211.984 128.007 212.342 126.871 212.479 125.745C212.903 122.19 211.093 118.81 209.651 115.539C208.972 114.01 208.355 112.353 208.605 110.697C208.807 109.367 209.547 108.197 210.089 106.967C211.178 104.51 211.503 101.632 210.56 99.1092C209.855 97.1855 208.422 95.619 206.573 94.7497C205.904 94.4467 204.952 94.0302 204.25 94.4372C203.085 95.1236 203.439 96.5105 203.345 97.5661Z" fill="#B96B6B"/>
<path d="M270.987 89.4434H237.053V90.8634H270.987V89.4434Z" fill="#E8EAF1"/>
<path d="M270.987 93.2302H237.053V94.6503H270.987V93.2302Z" fill="#E8EAF1"/>
<path d="M270.987 97.0171H237.053V98.4371H270.987V97.0171Z" fill="#E8EAF1"/>
<path d="M270.987 100.804H237.053V102.224H270.987V100.804Z" fill="#E8EAF1"/>
<path d="M270.987 104.591H237.053V106.011H270.987V104.591Z" fill="#E8EAF1"/>
<path d="M270.987 108.377H237.053V109.797H270.987V108.377Z" fill="#E8EAF1"/>
<path d="M270.987 112.164H237.053V113.584H270.987V112.164Z" fill="#E8EAF1"/>
<path d="M270.987 115.951H237.053V117.371H270.987V115.951Z" fill="#E8EAF1"/>
<path d="M270.987 119.738H237.053V121.158H270.987V119.738Z" fill="#E8EAF1"/>
<path d="M270.987 123.525H237.053V124.945H270.987V123.525Z" fill="#E8EAF1"/>
<path d="M270.987 127.311H237.053V128.731H270.987V127.311Z" fill="#E8EAF1"/>
<path d="M357.402 201.547C360.182 195.003 360.883 187.758 359.41 180.8C357.689 172.49 356.566 164.066 356.049 155.594C355.512 147.476 354.334 142.217 353.047 138.809C353.047 138.809 353.542 127.761 346.09 122C338.639 116.24 321.248 107.114 321.248 107.114L322.987 99.9802H322.916C323.44 99.8127 323.941 99.5822 324.41 99.2938C324.906 98.9824 325.358 98.6051 325.753 98.172C328.694 95.5875 328.737 90.8445 330.132 87.0672C331.206 84.1609 333.219 81.671 334.661 78.9162C337.286 73.8987 337.899 67.7404 335.458 62.6377C333.016 57.535 327.233 53.8665 321.46 54.5245C319.594 54.8084 317.767 55.3022 316.011 55.9966C311.831 57.4735 308.532 53.2938 304.351 54.7754C302.254 55.5185 294.425 56.3232 292.728 58.4864C292.34 58.741 292.055 59.1274 291.927 59.5751C291.484 61.6768 295.316 65.8849 298.158 69.2456C295.9 72.0002 294.663 75.4568 294.661 79.025C294.661 79.1055 294.661 79.186 294.661 79.2664C294.661 79.3469 294.661 79.4274 294.661 79.5078C294.666 81.5773 295.083 83.6248 295.888 85.5296C296.694 87.4344 297.871 89.1579 299.35 90.5984C299.11 92.7095 298.752 95.0858 298.238 97.5188H297.894C297.894 97.5188 295.905 106.162 289.448 106.162C287.723 106.162 285.366 106.058 282.85 105.911C275.244 105.525 267.626 106.406 260.307 108.519C257.79 109.225 255.019 109.286 252.7 107.606C247.157 103.587 241.19 93.3533 240.375 91.9285C240.997 87.7772 240.912 80.1753 232.33 78.7931C222.267 77.1742 222.818 88.8849 228.606 96.3354C228.463 96.7066 228.368 97.0948 228.323 97.4904C227.829 103.734 233.791 115.26 235.28 116.699C236.769 118.138 236.807 127.259 247.223 129.678C257.639 132.097 265.133 133.039 265.604 145.048C266.076 157.057 276.039 169.539 271.072 183.469C268.088 191.829 268.866 196.207 269.964 198.37C269.874 198.654 269.79 198.934 269.695 199.223C268.564 202.673 267.16 206.138 265.604 208.216C265.246 208.689 264.897 209.201 264.563 209.731C260.519 212.363 256.296 215.307 254.665 217.101C251.187 220.944 252.676 236.309 254.665 242.553C256.654 248.796 269.073 286.735 269.073 286.735H269.545L269.695 287.682L270.195 290.825C270.032 290.737 269.875 290.639 269.724 290.531C269.627 290.464 269.517 290.418 269.401 290.398C269.285 290.377 269.166 290.383 269.053 290.413C268.939 290.444 268.833 290.499 268.743 290.575C268.653 290.651 268.581 290.746 268.531 290.853L266.104 296.297C266.104 296.297 256.169 291.985 255.66 302.072C255.66 302.474 255.66 302.857 255.66 303.227C255.636 308.59 258.577 310.587 261.099 311.307C263.414 311.931 265.605 312.953 267.574 314.327C269.964 316.05 273.602 317.811 277.741 316.854C278.577 316.667 279.434 316.587 280.29 316.618C282.077 316.67 285.098 316.144 285.004 312.14C285.023 311.825 285.023 311.508 285.004 311.193C285.004 311.193 282.906 303.085 282.817 299.359C282.806 298.98 282.874 298.604 283.015 298.252C283.368 297.57 283.486 296.283 283.453 294.905C283.453 293.702 283.392 292.5 283.269 291.303C283.255 291.19 283.207 291.084 283.131 291C283.055 290.915 282.956 290.856 282.846 290.83C282.736 290.803 282.62 290.812 282.515 290.853C282.409 290.895 282.319 290.967 282.256 291.062L282.176 291.17C281.855 290.105 281.483 288.861 281.134 287.687L280.847 286.74H281.516C281.516 286.74 277.533 263.162 279.023 261.269C279.998 260.015 278.424 245.005 277.217 234.762C289.321 235.533 308.612 233.384 321.808 232.721C324.33 232.599 326.793 231.91 329.015 230.705C327.822 240.418 325.607 259.83 326.72 261.264C328.209 263.186 324.236 286.716 324.236 286.716H324.834L324.617 287.436H324.693C324.325 288.681 323.925 290.02 323.581 291.161L323.5 291.052C323.437 290.958 323.347 290.885 323.242 290.844C323.136 290.802 323.021 290.794 322.91 290.82C322.8 290.847 322.701 290.906 322.625 290.99C322.549 291.075 322.501 291.181 322.487 291.294C322.364 292.49 322.303 293.693 322.303 294.896C322.303 296.273 322.393 297.561 322.742 298.242C322.883 298.594 322.95 298.971 322.94 299.35C322.85 303.099 320.753 311.184 320.753 311.184C320.733 311.499 320.733 311.815 320.753 312.13C320.654 316.154 323.675 316.665 325.466 316.608C326.322 316.578 327.179 316.657 328.016 316.845C332.154 317.792 335.792 316.036 338.182 314.317C340.151 312.943 342.342 311.921 344.658 311.297C347.179 310.578 350.12 308.58 350.097 303.217C350.097 302.848 350.097 302.465 350.097 302.062C349.573 291.985 339.638 296.297 339.638 296.297L337.197 290.834C337.147 290.727 337.075 290.632 336.985 290.556C336.895 290.48 336.789 290.425 336.675 290.394C336.562 290.364 336.443 290.358 336.327 290.379C336.211 290.399 336.101 290.445 336.004 290.513C335.853 290.62 335.696 290.718 335.533 290.806L336.188 286.702H336.659C336.659 286.702 349.079 248.763 351.068 242.52C353.056 236.276 354.546 220.907 351.068 217.068C349.423 215.25 345.12 212.259 341.033 209.603C344.527 211.709 347.878 214.043 351.068 216.59L357.402 201.547ZM335.948 206.361L334.369 205.414C334.041 204.845 333.64 204.321 333.176 203.857C332.738 203.429 332.332 202.97 331.961 202.484C330.99 199.535 327.403 187.337 332.187 181.046C335.66 176.464 335.924 167.612 335.651 161.771C338.007 173.373 341.307 189.699 341.627 193.05C342.018 197.234 337.748 203.819 335.948 206.361Z" fill="url(#paint1_linear)"/>
<path d="M334.37 283.28L332.484 295.587L321.173 293.22C321.173 293.22 323.529 285.173 324.001 283.28C324.472 281.386 324.472 283.28 324.472 283.28H334.37Z" fill="#D6E6F9"/>
<path d="M283.467 293.22L272.156 295.587L270.85 287.067L270.271 283.28H280.168C280.168 283.28 280.168 281.386 280.639 283.28C280.809 283.961 281.224 285.448 281.69 287.067C282.525 289.935 283.467 293.22 283.467 293.22Z" fill="#D6E6F9"/>
<path opacity="0.1" d="M281.7 287.067H270.86L270.28 283.28H280.178C280.178 283.28 280.178 281.386 280.649 283.28C280.819 283.961 281.234 285.448 281.7 287.067Z" fill="black"/>
<path opacity="0.1" d="M322.958 286.83H333.798L334.378 283.043H324.471C324.471 283.043 324.471 281.15 324 283.043C323.839 283.725 323.425 285.211 322.958 286.83Z" fill="black"/>
<path d="M345.21 134.175C345.21 134.175 351.337 134.648 352.751 156.896C353.247 165.244 354.32 173.547 355.96 181.746C357.361 188.594 356.705 195.704 354.075 202.176L348.038 217.011C348.038 217.011 336.726 207.544 332.956 208.017C332.956 208.017 339.554 199.024 339.083 193.817C338.611 188.61 331.07 151.215 331.07 151.215L345.21 134.175Z" fill="#00487C"/>
<path d="M274.512 204.704C274.512 204.704 259.901 213.697 256.602 217.484C253.303 221.271 254.717 236.418 256.602 242.572C258.487 248.725 270.27 286.12 270.27 286.12H282.053C282.053 286.12 278.283 262.926 279.696 261.032C281.11 259.139 276.869 225.531 276.869 225.531L274.512 204.704Z" fill="#5F546F"/>
<path d="M330.128 204.704C330.128 204.704 344.739 213.697 348.038 217.484C351.337 221.271 349.923 236.418 348.038 242.572C346.153 248.725 334.37 286.12 334.37 286.12H322.587C322.587 286.12 326.357 262.926 324.943 261.032C323.53 259.139 327.771 225.531 327.771 225.531L330.128 204.704Z" fill="#5F546F"/>
<path opacity="0.1" d="M274.512 204.704C274.512 204.704 259.901 213.697 256.602 217.484C253.303 221.271 254.717 236.418 256.602 242.572C258.487 248.725 270.27 286.12 270.27 286.12H282.053C282.053 286.12 278.283 262.926 279.696 261.032C281.11 259.139 276.869 225.531 276.869 225.531L274.512 204.704Z" fill="black"/>
<path opacity="0.1" d="M330.128 204.704C330.128 204.704 344.739 213.697 348.038 217.484C351.337 221.271 349.923 236.418 348.038 242.572C346.153 248.725 334.37 286.12 334.37 286.12H322.587C322.587 286.12 326.357 262.926 324.943 261.032C323.53 259.139 327.771 225.531 327.771 225.531L330.128 204.704Z" fill="black"/>
<path d="M299.492 84.9466C299.492 84.9466 299.492 103.407 292.893 112.874C286.295 122.341 323.057 114.294 323.057 114.294C321.384 113.056 320.146 111.316 319.523 109.324C317.581 102.38 316.846 90.1487 319.758 84.9466C324 77.373 299.492 84.9466 299.492 84.9466Z" fill="#FFCED8"/>
<path opacity="0.1" d="M310.106 97.4903C318.696 97.4903 325.659 90.4967 325.659 81.8698C325.659 73.2428 318.696 66.2493 310.106 66.2493C301.516 66.2493 294.553 73.2428 294.553 81.8698C294.553 90.4967 301.516 97.4903 310.106 97.4903Z" fill="black"/>
<path d="M310.106 97.017C318.696 97.017 325.659 90.0235 325.659 81.3965C325.659 72.7695 318.696 65.776 310.106 65.776C301.516 65.776 294.553 72.7695 294.553 81.3965C294.553 90.0235 301.516 97.017 310.106 97.017Z" fill="#FFCED8"/>
<path d="M321.201 242.496C304.342 243.244 276.299 246.396 272.048 241.72C265.19 234.179 267.622 227.391 271.162 223.259C272.547 221.636 273.792 218.918 274.8 216.206C275.139 215.288 275.455 214.374 275.743 213.503C276.832 210.128 280.456 207.8 284.556 207.8H318.599C322.723 207.8 326.352 210.166 327.422 213.541C327.9 215.125 328.632 216.62 329.59 217.967C330.092 218.666 330.676 219.302 331.329 219.86C333.045 221.323 334.157 224.476 334.878 227.945C336.401 235.292 329.953 242.108 321.201 242.496Z" fill="#5F546F"/>
<path opacity="0.1" d="M321.201 242.496C304.342 243.244 276.299 246.396 272.048 241.72C265.19 234.179 267.622 227.391 271.162 223.259C272.547 221.636 273.792 218.918 274.8 216.206C275.139 215.288 275.455 214.374 275.743 213.503C276.832 210.128 280.456 207.8 284.556 207.8H318.599C322.723 207.8 326.352 210.166 327.422 213.541C327.9 215.125 328.632 216.62 329.59 217.967C330.092 218.666 330.676 219.302 331.329 219.86C333.045 221.323 334.157 224.476 334.878 227.945C336.401 235.292 329.953 242.108 321.201 242.496Z" fill="black"/>
<path opacity="0.1" d="M277.703 292.16C276.228 291.862 272.377 291.01 270.883 289.869C270.792 289.802 270.687 289.757 270.576 289.737C270.464 289.717 270.35 289.722 270.241 289.753C270.133 289.783 270.032 289.838 269.947 289.913C269.863 289.988 269.796 290.081 269.752 290.186L267.443 295.587C267.443 295.587 258.016 291.327 257.545 301.267C257.272 307.066 260.203 309.158 262.697 309.896C264.909 310.512 266.994 311.516 268.857 312.864C271.124 314.559 274.578 316.296 278.5 315.359C279.292 315.173 280.105 315.093 280.918 315.122C282.676 315.179 285.706 314.649 285.371 310.251C285.371 310.251 282.544 298.891 283.486 296.997C284.08 295.805 283.925 292.737 283.731 290.626C283.718 290.522 283.674 290.424 283.604 290.345C283.535 290.266 283.443 290.21 283.342 290.184C283.24 290.158 283.133 290.163 283.034 290.199C282.936 290.235 282.85 290.299 282.789 290.385C282.398 290.989 281.857 291.481 281.221 291.813C280.584 292.145 279.872 292.305 279.155 292.278C278.668 292.293 278.181 292.253 277.703 292.16Z" fill="black"/>
<path d="M277.703 292.633C276.228 292.335 272.377 291.483 270.883 290.342C270.792 290.275 270.687 290.23 270.576 290.21C270.464 290.19 270.35 290.196 270.241 290.226C270.133 290.257 270.032 290.311 269.947 290.386C269.863 290.461 269.796 290.555 269.752 290.659L267.443 296.06C267.443 296.06 258.016 291.8 257.545 301.74C257.272 307.539 260.203 309.631 262.697 310.37C264.909 310.985 266.994 311.99 268.857 313.337C271.124 315.032 274.578 316.769 278.5 315.832C279.292 315.646 280.105 315.566 280.918 315.595C282.676 315.652 285.706 315.122 285.371 310.725C285.371 310.725 282.544 299.364 283.486 297.471C284.08 296.278 283.925 293.211 283.731 291.1C283.718 290.995 283.674 290.897 283.604 290.818C283.535 290.739 283.443 290.683 283.342 290.657C283.24 290.631 283.133 290.636 283.034 290.672C282.936 290.708 282.85 290.773 282.789 290.858C282.398 291.462 281.857 291.955 281.221 292.286C280.584 292.618 279.872 292.779 279.155 292.752C278.668 292.766 278.181 292.726 277.703 292.633Z" fill="#BC8387"/>
<path opacity="0.1" d="M326.95 292.16C328.426 291.862 332.276 291.01 333.77 289.869C333.862 289.802 333.967 289.757 334.078 289.737C334.189 289.717 334.303 289.722 334.412 289.753C334.521 289.783 334.621 289.838 334.706 289.913C334.791 289.988 334.858 290.081 334.901 290.186L337.197 295.587C337.197 295.587 346.623 291.327 347.094 301.267C347.368 307.066 344.436 309.158 341.943 309.896C339.742 310.518 337.667 311.526 335.816 312.874C333.549 314.568 330.094 316.305 326.173 315.368C325.381 315.182 324.568 315.103 323.755 315.131C321.997 315.188 318.966 314.658 319.301 310.261C319.301 310.261 322.129 298.9 321.186 297.007C320.592 295.814 320.748 292.747 320.941 290.636C320.954 290.531 320.999 290.433 321.068 290.354C321.138 290.275 321.229 290.219 321.331 290.193C321.432 290.167 321.539 290.172 321.638 290.208C321.737 290.244 321.822 290.309 321.884 290.394C322.275 290.999 322.815 291.491 323.452 291.823C324.089 292.154 324.8 292.315 325.518 292.288C325.998 292.298 326.479 292.255 326.95 292.16Z" fill="black"/>
<path d="M326.95 292.633C328.426 292.335 332.276 291.483 333.77 290.342C333.862 290.275 333.967 290.23 334.078 290.21C334.189 290.19 334.303 290.196 334.412 290.226C334.521 290.257 334.621 290.311 334.706 290.386C334.791 290.461 334.858 290.555 334.901 290.659L337.197 296.06C337.197 296.06 346.623 291.8 347.094 301.74C347.368 307.539 344.436 309.631 341.943 310.37C339.742 310.991 337.667 311.999 335.816 313.347C333.549 315.042 330.094 316.779 326.173 315.841C325.381 315.655 324.568 315.576 323.755 315.605C321.997 315.662 318.966 315.131 319.301 310.734C319.301 310.734 322.129 299.374 321.186 297.48C320.592 296.287 320.748 293.22 320.941 291.109C320.954 291.005 320.999 290.907 321.068 290.828C321.138 290.749 321.229 290.693 321.331 290.667C321.432 290.641 321.539 290.646 321.638 290.682C321.737 290.718 321.822 290.782 321.884 290.868C322.275 291.472 322.815 291.964 323.452 292.296C324.089 292.628 324.8 292.788 325.518 292.761C325.998 292.771 326.479 292.728 326.95 292.633Z" fill="#BC8387"/>
<path d="M242.463 96.7803C242.463 96.7803 246.705 83.0532 235.393 81.1598C224.082 79.2664 226.91 95.8336 235.393 101.987C243.877 108.141 242.463 96.7803 242.463 96.7803Z" fill="#FFCED8"/>
<path opacity="0.1" d="M330.127 205.177C316.931 226.951 272.627 202.337 272.627 202.337C272.627 202.337 271.576 201.76 270.851 199.876C271.213 198.726 271.548 197.575 271.85 196.482C272.419 194.419 273.647 192.601 275.344 191.307C277.042 190.013 279.116 189.315 281.248 189.32H317.539C319.677 189.315 321.757 190.019 323.456 191.323C325.155 192.626 326.379 194.456 326.937 196.529C327.432 198.485 328.21 200.357 329.246 202.086C329.713 203.994 330.127 205.177 330.127 205.177Z" fill="black"/>
<path d="M300.435 99.6205H297.607C297.607 99.6205 295.722 108.141 289.595 108.141C287.96 108.141 285.726 108.041 283.322 107.89C276.098 107.509 268.864 108.379 261.934 110.46C259.544 111.156 256.919 111.218 254.718 109.561C249.062 105.301 242.935 93.9403 242.935 93.9403C242.935 93.9403 232.095 93.467 231.624 99.6205C231.152 105.774 236.808 117.134 238.222 118.554C239.636 119.974 239.636 128.968 249.533 131.335C259.431 133.702 266.501 134.648 266.972 146.482C267.443 158.316 276.87 170.623 272.156 184.35C267.443 198.077 272.628 200.917 272.628 200.917C272.628 200.917 316.931 225.531 330.128 203.757C330.128 203.757 324.943 189.083 330.128 181.983C335.312 174.883 332.956 157.369 332.956 157.369L349.923 140.328C349.923 140.328 350.394 129.441 343.325 123.761C336.255 118.081 319.759 109.087 319.759 109.087L321.409 102.054L300.435 99.6205Z" fill="#00487C"/>
<path opacity="0.1" d="M300.944 86.1773C300.586 90.6316 300.727 95.7153 304.007 98.74C305.619 100.226 307.778 100.969 309.894 101.485C312.123 102.029 314.396 102.366 316.686 102.494C318.778 102.607 321.008 102.494 322.766 101.372C326.366 99.0382 326.282 93.8503 327.724 89.7937C328.742 86.9252 330.655 84.478 332.022 81.7468C334.511 76.805 335.095 70.732 332.776 65.705C330.457 60.6781 324.976 57.0711 319.499 57.7291C317.721 58.0094 315.981 58.4971 314.315 59.1823C310.347 60.6402 307.222 56.5173 303.253 57.9752C301.085 58.7705 292.47 59.6462 291.942 62.2354C291.315 65.3121 299.652 72.9851 300.553 75.6785C301.736 79.1481 300.944 82.6272 300.944 86.1773Z" fill="black"/>
<path d="M301.415 85.704C301.056 90.1582 301.198 95.242 304.478 98.2667C306.09 99.753 308.249 100.496 310.365 101.012C312.593 101.555 314.867 101.893 317.156 102.02C319.249 102.134 321.478 102.02 323.236 100.898C326.837 98.5649 326.752 93.377 328.195 89.3204C329.213 86.4519 331.126 84.0047 332.493 81.2734C334.982 76.3317 335.566 70.2586 333.247 65.2316C330.928 60.2047 325.447 56.5978 319.97 57.2557C318.192 57.536 316.452 58.0237 314.786 58.7089C310.817 60.1668 307.692 56.0439 303.724 57.5019C301.556 58.2971 292.94 59.1728 292.413 61.762C291.786 64.8388 300.123 72.5117 301.023 75.2051C302.206 78.6747 301.415 82.1539 301.415 85.704Z" fill="#AE767A"/>
<path opacity="0.1" d="M294.553 105.769C294.553 105.769 297.381 106.957 305.393 109.324C313.405 111.691 319.532 109.324 319.532 109.324" fill="black"/>
<path opacity="0.1" d="M273.334 173.416C273.334 173.416 286.531 174.173 290.773 179.853C295.014 185.533 296.428 187.427 301.613 187.427C306.797 187.427 323.293 188.373 325.65 189.32" fill="black"/>
<path d="M308.862 316.859H300.981V325.905H308.862V316.859Z" fill="#C0BCCF"/>
<path d="M356.71 205.49H350.517V251.281H356.71V205.49Z" fill="#CB919B"/>
<path d="M353.891 250.713H340.383V252.408H353.891V250.713Z" fill="#CB919B"/>
<path d="M259.887 205.49H253.694V251.281H259.887V205.49Z" fill="#CB919B"/>
<path d="M268.329 250.713H254.821V252.408H268.329V250.713Z" fill="#CB919B"/>
<path d="M312.236 253.544H299.289V308.949H312.236V253.544Z" fill="#C0BCCF"/>
<path d="M306.048 233.678C340.925 234.899 342.075 221.479 342.075 221.479L339.822 184.269C339.261 126.317 306.048 134.856 306.048 134.856C306.048 134.856 272.834 126.336 272.273 184.269L270.021 221.479C270.021 221.479 271.147 234.899 306.048 233.678Z" fill="#CB919B"/>
<path opacity="0.1" d="M306.048 233.678C340.925 234.899 342.075 221.479 342.075 221.479L339.822 184.269C339.261 126.317 306.048 134.856 306.048 134.856C306.048 134.856 272.834 126.336 272.273 184.269L270.021 221.479C270.021 221.479 271.147 234.899 306.048 233.678Z" fill="white"/>
<path d="M305.106 231.353C338.371 232.518 339.441 219.723 339.441 219.723L337.296 184.255C336.759 129.02 305.106 137.162 305.106 137.162C305.106 137.162 273.452 129.02 272.915 184.255L270.771 219.723C270.771 219.723 271.84 232.518 305.106 231.353Z" fill="#CB919B"/>
<path d="M306.35 216.23H304.059C300.806 216.23 298.168 218.879 298.168 222.147V234.624C298.168 237.892 300.806 240.541 304.059 240.541H306.35C309.604 240.541 312.241 237.892 312.241 234.624V222.147C312.241 218.879 309.604 216.23 306.35 216.23Z" fill="#C0BCCF"/>
<path opacity="0.1" d="M312.217 306.975V308.949H299.289V306.99L300.416 306.691H311.11L312.217 306.975Z" fill="black"/>
<path d="M253.133 325.905C253.133 325.905 247.501 321.384 300.434 307.25H311.128C311.128 307.25 356.709 318.544 357.27 325.905H350.516C350.516 325.905 325.748 318.544 314.489 318.544C303.229 318.544 269.455 319.675 259.345 325.895L253.133 325.905Z" fill="#C0BCCF"/>
<path d="M255.32 198.702H257.701C259.326 198.702 260.884 199.35 262.033 200.504C263.182 201.658 263.828 203.223 263.828 204.855V207.747H249.193V204.855C249.193 203.223 249.839 201.658 250.988 200.504C252.137 199.35 253.695 198.702 255.32 198.702Z" fill="#CB919B"/>
<path d="M352.128 198.702H354.508C356.133 198.702 357.692 199.35 358.841 200.504C359.99 201.658 360.635 203.223 360.635 204.855V207.747H346.001V204.855C346.001 203.223 346.647 201.658 347.796 200.504C348.945 199.35 350.503 198.702 352.128 198.702Z" fill="#CB919B"/>
<path d="M255.947 333.819C258.123 333.819 259.887 332.047 259.887 329.862C259.887 327.676 258.123 325.905 255.947 325.905C253.771 325.905 252.007 327.676 252.007 329.862C252.007 332.047 253.771 333.819 255.947 333.819Z" fill="#5A5773"/>
<path d="M304.922 333.819C307.098 333.819 308.862 332.047 308.862 329.862C308.862 327.676 307.098 325.905 304.922 325.905C302.746 325.905 300.981 327.676 300.981 329.862C300.981 332.047 302.746 333.819 304.922 333.819Z" fill="#5A5773"/>
<path d="M354.457 333.819C356.633 333.819 358.397 332.047 358.397 329.862C358.397 327.676 356.633 325.905 354.457 325.905C352.281 325.905 350.517 327.676 350.517 329.862C350.517 332.047 352.281 333.819 354.457 333.819Z" fill="#5A5773"/>
<path opacity="0.1" d="M312.236 253.544H299.289V255.807H312.236V253.544Z" fill="black"/>
<path d="M306.048 254.675H343.753L346.581 249.023C348.268 239.414 342.079 238.846 342.079 238.846H270.02C270.02 238.846 263.827 239.41 265.519 249.023L268.347 254.675H306.048Z" fill="#CB919B"/>
<path opacity="0.1" d="M306.048 254.675H343.753L346.581 249.023C348.268 239.414 342.079 238.846 342.079 238.846H270.02C270.02 238.846 263.827 239.41 265.519 249.023L268.347 254.675H306.048Z" fill="white"/>
<path d="M306.048 254.675H343.753L346.581 249.828C348.268 241.592 342.079 241.104 342.079 241.104H270.02C270.02 241.104 263.827 241.578 265.519 249.828L268.347 254.675H306.048Z" fill="#CB919B"/>
<path d="M381.971 142.208C381.971 142.208 377.668 140.745 375.599 144.574C375.052 145.607 374.774 146.761 374.79 147.93C374.805 149.099 375.114 150.245 375.689 151.263C377.051 153.734 379.85 156.943 385.162 156.654C389.668 156.413 391.162 152.962 391.572 149.748C391.722 148.546 391.563 147.325 391.11 146.202C390.658 145.079 389.927 144.091 388.987 143.332C388.047 142.573 386.929 142.068 385.74 141.866C384.55 141.663 383.329 141.769 382.193 142.174L381.971 142.208Z" fill="#00487C"/>
<path opacity="0.1" d="M376.608 151.585C376.034 150.567 375.725 149.421 375.709 148.252C375.693 147.083 375.972 145.929 376.518 144.896C378.587 141.109 382.891 142.529 382.891 142.529L383.112 142.449C384.753 141.852 386.557 141.893 388.169 142.563C387.279 142.03 386.282 141.702 385.25 141.603C384.218 141.504 383.177 141.636 382.202 141.99L381.981 142.07C381.981 142.07 377.678 140.608 375.609 144.437C375.062 145.469 374.784 146.624 374.799 147.793C374.815 148.962 375.124 150.108 375.698 151.125C376.763 153.165 378.472 154.792 380.558 155.75C378.887 154.749 377.522 153.309 376.608 151.585Z" fill="white"/>
<path opacity="0.2" d="M379.757 144.04C379.757 144.04 381.35 145.299 385.229 144.04H379.757Z" fill="black"/>
<path d="M379.417 134.885C379.417 134.885 382.151 142.326 381.924 144.272L384.088 144.044C384.088 144.044 380.44 137.522 381.354 134.89L379.417 134.885Z" fill="#00487C"/>
<path opacity="0.2" d="M379.417 134.885C379.417 134.885 382.151 142.326 381.924 144.272L384.088 144.044C384.088 144.044 380.44 137.522 381.354 134.89L379.417 134.885Z" fill="black"/>
<path d="M390.578 135.505C390.578 135.505 386.274 133.295 384.347 135.122C382.419 136.949 382.127 141.616 382.127 141.616C382.127 141.616 389.145 142.586 390.578 135.505Z" fill="#00487C"/>
<path opacity="0.1" d="M390.578 135.505C390.578 135.505 386.274 133.295 384.347 135.122C382.419 136.949 382.127 141.616 382.127 141.616C382.127 141.616 389.145 142.586 390.578 135.505Z" fill="white"/>
<path d="M382.127 141.616C382.127 141.616 383.258 136.196 390.578 135.505" stroke="#00487C" stroke-miterlimit="10"/>
<defs>
<linearGradient id="paint0_linear" x1="205.239" y1="132.045" x2="205.239" y2="88.4967" gradientUnits="userSpaceOnUse">
<stop stop-color="#808080" stop-opacity="0.25"/>
<stop offset="0.54" stop-color="#808080" stop-opacity="0.12"/>
<stop offset="1" stop-color="#808080" stop-opacity="0.1"/>
</linearGradient>
<linearGradient id="paint1_linear" x1="89074.2" y1="191020" x2="89074.2" y2="45234.7" gradientUnits="userSpaceOnUse">
<stop stop-color="#808080" stop-opacity="0.25"/>
<stop offset="0.54" stop-color="#808080" stop-opacity="0.12"/>
<stop offset="1" stop-color="#808080" stop-opacity="0.1"/>
</linearGradient>
</defs>
</svg>
