<svg width="464" height="316" viewBox="0 0 464 316" fill="none" xmlns="http://www.w3.org/2000/svg">
<path d="M464 48.2404H47.1777V315.004H464V48.2404Z" fill="#E6E6E6"/>
<path d="M452.081 81.6992H59.0967V299.222H452.081V81.6992Z" fill="white"/>
<path d="M463.822 48.0043H47V65.7H463.822V48.0043Z" fill="#00487C"/>
<path d="M60.159 60.331C61.9717 60.331 63.4411 58.8626 63.4411 57.0512C63.4411 55.2399 61.9717 53.7715 60.159 53.7715C58.3464 53.7715 56.877 55.2399 56.877 57.0512C56.877 58.8626 58.3464 60.331 60.159 60.331Z" fill="white"/>
<path d="M72.617 60.331C74.4297 60.331 75.8991 58.8626 75.8991 57.0512C75.8991 55.2399 74.4297 53.7715 72.617 53.7715C70.8044 53.7715 69.335 55.2399 69.335 57.0512C69.335 58.8626 70.8044 60.331 72.617 60.331Z" fill="white"/>
<path d="M85.075 60.331C86.8877 60.331 88.3571 58.8626 88.3571 57.0512C88.3571 55.2399 86.8877 53.7715 85.075 53.7715C83.2624 53.7715 81.793 55.2399 81.793 57.0512C81.793 58.8626 83.2624 60.331 85.075 60.331Z" fill="white"/>
<path d="M184.311 99.5905H107.449V182.92H184.311V99.5905Z" fill="#E6E6E6"/>
<path d="M294.019 99.5905H217.157V182.92H294.019V99.5905Z" fill="#E6E6E6"/>
<path d="M403.727 99.5905H326.865V182.92H403.727V99.5905Z" fill="#E6E6E6"/>
<path d="M184.311 198.003H107.449V281.333H184.311V198.003Z" fill="#E6E6E6"/>
<path d="M294.019 198.003H217.157V281.333H294.019V198.003Z" fill="#E6E6E6"/>
<path d="M403.727 198.003H326.865V281.333H403.727V198.003Z" fill="#E6E6E6"/>
<path d="M137.305 149.977C144.481 149.977 150.298 144.164 150.298 136.994C150.298 129.823 144.481 124.01 137.305 124.01C130.13 124.01 124.312 129.823 124.312 136.994C124.312 144.164 130.13 149.977 137.305 149.977Z" fill="#FFB9B9"/>
<path d="M132.229 146.934C132.229 146.934 133.854 154.643 133.854 155.455C133.854 156.266 141.568 159.918 141.568 159.918L148.47 158.701L150.906 151.397C150.906 151.397 146.846 145.311 146.846 142.877L132.229 146.934Z" fill="#FFB9B9"/>
<path d="M126.037 126.533C126.037 126.533 130.162 117.602 138.069 119.663C145.975 121.724 150.444 124.816 150.788 127.907C151.132 130.999 150.616 135.637 150.616 135.637C150.616 135.637 149.757 129.282 144.256 130.656C138.756 132.03 130.162 130.999 130.162 130.999L128.787 143.366C128.787 143.366 127.24 141.133 125.521 142.507C123.803 143.881 120.537 129.282 126.037 126.533Z" fill="#2F2E41"/>
<path d="M178.515 179.799L175.269 165.19C173.641 160.321 169.585 156.267 169.585 156.267L149.562 149.23H149.557C149.518 150.999 148.921 152.71 147.852 154.12C146.783 155.53 145.295 156.567 143.602 157.083C137.509 159.107 133.315 152.285 133.315 152.285L116.389 165.19C116.389 165.19 111.113 169.657 111.521 178.178L110.96 182.92H180.076L178.515 179.799Z" fill="#00487C"/>
<path d="M246.719 156.448C256.459 156.448 264.354 148.072 264.354 137.74C264.354 127.409 256.459 119.033 246.719 119.033C236.979 119.033 229.084 127.409 229.084 137.74C229.084 148.072 236.979 156.448 246.719 156.448Z" fill="#2F2E41"/>
<path d="M262.366 166.049C267.49 166.049 271.643 161.899 271.643 156.779C271.643 151.658 267.49 147.508 262.366 147.508C257.242 147.508 253.089 151.658 253.089 156.779C253.089 161.899 257.242 166.049 262.366 166.049Z" fill="#2F2E41"/>
<path d="M255.905 144.363L260.875 157.275L248.285 162.573L247.179 160.069L243.314 151.316L255.905 144.363Z" fill="#9F616A"/>
<path d="M245.966 152.805C252.096 152.805 257.065 147.839 257.065 141.714C257.065 135.588 252.096 130.622 245.966 130.622C239.836 130.622 234.866 135.588 234.866 141.714C234.866 147.839 239.836 152.805 245.966 152.805Z" fill="#9F616A"/>
<path d="M236.893 140.497C243.869 135.845 245.955 134.733 253.951 136.53L254.431 124.872L233.767 129.204L236.893 140.497Z" fill="#2F2E41"/>
<path d="M281.747 166.873L281.441 166.909C281.433 166.898 281.425 166.888 281.415 166.878C280.201 165.665 274.404 163.457 270.082 161.927H270.077C267.332 160.953 265.183 160.254 265.183 160.254L259.958 154.885C258.642 156.364 255.861 157.506 253.218 158.312C251.194 158.924 249.136 159.414 247.054 159.78H247.048L245.967 163.232C245.967 163.232 233.705 172.508 232.715 173.497H232.71V173.507C232.631 173.62 232.598 173.758 232.618 173.895V173.92C232 176.881 231.682 179.896 231.669 182.92H285.064V179.789C285.064 175.486 281.747 166.873 281.747 166.873Z" fill="#575A89"/>
<path d="M379.934 182.92H353.532L352.078 168.586L351.991 167.715L351.813 165.986L351.083 158.76L350.17 166.521L348.241 182.92H343.444L343.623 177.816L343.802 172.64L343.878 170.555L344.863 142.183C344.787 137.687 346.211 133.294 348.909 129.696C350.407 127.747 352.341 126.174 354.554 125.104C356.768 124.034 359.202 123.495 361.661 123.531C364.17 123.523 366.647 124.095 368.897 125.204C371.147 126.312 373.11 127.926 374.632 129.92C377.421 133.554 378.913 138.016 378.872 142.596L379.326 159.77L379.934 182.92Z" fill="#2F2E41"/>
<path d="M361.661 152.336C368.074 152.336 373.273 147.14 373.273 140.731C373.273 134.322 368.074 129.127 361.661 129.127C355.247 129.127 350.048 134.322 350.048 140.731C350.048 147.14 355.247 152.336 361.661 152.336Z" fill="#FBBEBE"/>
<path d="M355.854 149.02C355.854 149.02 359.172 160.211 355.854 163.526C352.537 166.842 351.707 168.085 351.707 168.085L361.246 180.933L377.836 160.625C377.836 160.625 366.223 157.309 369.126 148.192L355.854 149.02Z" fill="#FBBEBE"/>
<path d="M391.68 182.92H381.883L381.719 181.242L381.571 179.692L386.082 179.126L391.522 178.448L391.583 180.187L391.68 182.92Z" fill="#FBBEBE"/>
<path d="M392.352 180.104C392.352 180.104 390.693 169.743 389.449 165.598C388.204 161.454 386.96 161.454 386.96 161.454H386.96L386.96 161.453C385.495 159.989 381.975 159.729 379.326 159.77C377.469 159.791 376.04 159.954 376.04 159.954L361.247 175.547L353.798 165.649V165.644C353.127 165.696 352.462 165.811 351.813 165.986C351.254 166.128 350.705 166.307 350.17 166.521C347.862 167.507 345.736 168.87 343.878 170.555H343.873C342.801 171.518 342.169 172.227 342.169 172.227C340.528 175.636 339.291 179.225 338.484 182.92H385.888L385.996 180.789V180.785L392.352 180.104Z" fill="#00487C"/>
<path d="M351.914 138.866C359.414 134.826 362.495 134.997 371.821 138.866L374.31 132.808C374.309 131.667 373.854 130.573 373.047 129.767C372.24 128.96 371.146 128.506 370.004 128.505H353.316C352.175 128.506 351.08 128.96 350.273 129.767C349.466 130.573 349.012 131.667 349.011 132.808L351.914 138.866Z" fill="#2F2E41"/>
<path d="M144.864 218.172C144.246 218.122 143.627 218.26 143.09 218.568C142.58 219.003 142.17 219.543 141.89 220.151C140.591 222.43 138.833 224.414 136.728 225.978C135.194 227.101 133.244 228.501 133.506 230.571C133.645 231.255 133.898 231.91 134.254 232.51C135.669 235.364 139.53 237.57 139.15 240.827C140.556 238.475 138.676 237.312 140.082 234.961C140.751 233.841 141.914 232.576 142.925 233.28C143.263 233.515 143.485 233.938 143.838 234.144C144.679 234.637 145.573 233.695 146.317 233.027C148.884 230.725 152.534 231.328 155.728 232.045C157.236 232.384 158.892 232.828 159.783 234.268C160.955 236.162 158.67 238.206 158.092 240.347C158.045 240.53 158.043 240.721 158.086 240.904C158.129 241.088 158.215 241.258 158.338 241.401C158.461 241.543 158.617 241.654 158.793 241.723C158.968 241.793 159.157 241.819 159.345 241.799C160.303 241.704 161.438 241.627 161.495 241.207C162.701 241.25 164.178 241.113 164.695 239.859C164.853 239.362 164.936 238.845 164.942 238.324C165.132 236.217 166.027 234.294 166.62 232.288C167.213 230.283 167.471 227.932 166.47 226.154C166.113 225.562 165.671 225.026 165.159 224.561C159.481 219.07 152.014 218.164 144.864 218.172Z" fill="#2F2E41"/>
<path d="M140.385 244.941C140.385 244.941 141.62 255.225 137.092 256.048C132.563 256.871 141.208 270.857 141.208 270.857L161.791 273.326L156.851 256.871C156.851 256.871 153.558 255.636 155.616 247.409C157.675 239.181 140.385 244.941 140.385 244.941Z" fill="#9F616A"/>
<path d="M149.648 251.729C156.468 251.729 161.998 246.203 161.998 239.387C161.998 232.571 156.468 227.046 149.648 227.046C142.827 227.046 137.298 232.571 137.298 239.387C137.298 246.203 142.827 251.729 149.648 251.729Z" fill="#9F616A"/>
<path d="M128.391 281.333C130.575 272.751 133.59 261.191 133.59 261.191C133.59 261.191 134.764 261.431 136.611 261.701C139.309 262.103 142.028 262.35 144.755 262.441C148.245 262.538 151.919 262.308 154.761 261.324C155.833 260.98 156.834 260.447 157.716 259.748C158.087 259.45 158.42 259.105 158.706 258.723C163.645 252.141 165.702 277.233 165.702 277.233L166.084 281.333L128.391 281.333Z" fill="#00487C"/>
<path d="M167.85 307.848C167.687 307.848 167.524 307.853 167.36 307.864L167.595 307.425C167.677 307.563 167.758 307.706 167.85 307.848Z" fill="#FFB8B8"/>
<path d="M145.465 221.401C144.967 221.365 144.469 221.461 144.021 221.681C143.616 221.977 143.282 222.359 143.044 222.8C141.946 224.451 140.515 225.854 138.842 226.918C137.593 227.712 136.006 228.702 136.22 230.165C136.336 230.655 136.542 231.12 136.828 231.535C137.984 233.573 138.444 235.932 138.139 238.254L141.572 233.267C142.117 232.476 143.064 231.582 143.887 232.079C144.162 232.246 144.343 232.544 144.63 232.69C145.314 233.039 146.043 232.373 146.648 231.901C148.738 230.273 151.709 230.7 154.309 231.207C155.536 231.446 156.884 231.76 157.61 232.778C158.816 234.469 157.557 236.913 158.26 238.867C158.457 238.73 158.625 238.554 158.752 238.35C158.88 238.146 158.966 237.919 159.004 237.682C159.985 237.712 161.188 237.616 161.608 236.729C161.736 236.382 161.804 236.015 161.81 235.645C161.964 234.155 162.693 232.796 163.176 231.379C163.658 229.961 163.868 228.299 163.054 227.043C162.756 226.617 162.396 226.237 161.986 225.917C157.364 222.036 151.286 221.396 145.465 221.401Z" fill="#2F2E41"/>
<path d="M144.296 261.599C141.479 258.382 139.806 253.691 139.729 253.482V253.476C139.729 253.476 135.239 250.907 134.004 253.375C132.769 255.842 121.242 262.012 120.007 262.012C119.997 262.017 119.987 262.02 119.977 262.023C119.487 262.186 113.353 264.414 111.777 272.71C111.348 275.565 111.12 278.446 111.093 281.333H144.663C145.01 277.697 145.271 274.296 145.373 271.359C145.521 267.264 145.378 264.083 144.755 262.441C144.656 262.134 144.5 261.849 144.296 261.599Z" fill="#2F2E41"/>
<path d="M173.162 263.914C173.141 263.817 173.126 263.736 173.111 263.659C173.056 263.441 172.963 263.233 172.835 263.047C172.832 263.043 172.831 263.038 172.83 263.032C170.452 259.351 155.159 254.282 155.159 254.282L154.588 256.255C154.588 256.255 154.659 258.203 154.761 261.324C154.863 264.246 154.986 268.192 155.103 272.527C155.185 275.357 155.256 278.355 155.323 281.333H178.198C176.916 275.419 175.234 269.6 173.162 263.914Z" fill="#2F2E41"/>
<path d="M387.189 281.333L388.94 272.787L390.567 272.098L390.578 272.103C390.726 272.16 392.496 272.909 392.496 275.749C392.496 276.32 392.409 278.375 392.267 281.333H387.189Z" fill="#575A89"/>
<path d="M368.806 251.483C376.656 251.483 383.02 245.123 383.02 237.279C383.02 229.434 376.656 223.075 368.806 223.075C360.956 223.075 354.592 229.434 354.592 237.279C354.592 245.123 360.956 251.483 368.806 251.483Z" fill="#FFB8B8"/>
<path d="M377.689 245.564L376.504 269.829L358.145 259.176L360.513 245.564H377.689Z" fill="#FFB8B8"/>
<path d="M383.02 271.012L381.816 281.333H372.177L361.716 261.247L358.767 255.593L357.354 254.67L358.991 254.297L360.282 255.231L374.728 265.689L377.045 258.739L377.106 258.56L377.688 256.811L383.02 271.012Z" fill="#00487C"/>
<path d="M360.218 223.371C360.218 223.371 361.994 214.493 372.063 216.269L370.878 216.86C370.878 216.86 380.354 215.677 379.17 221.003C379.17 221.003 386.869 225.738 385.092 231.064C384.047 234.151 383.255 237.318 382.723 240.534L380.946 238.758C380.946 238.758 379.17 226.921 368.509 228.105C360.514 228.993 357.256 232.766 356.424 235.485C356.04 236.763 355.551 238.007 354.96 239.204L354.295 239.35C354.295 239.35 350.742 226.33 360.218 223.371Z" fill="#2F2E41"/>
<path d="M390.577 272.104L390.567 272.098L383.02 265.092V260.36L377.193 255.771L377.106 258.56L376.504 277.524L366.814 264.205L360.282 255.231L359.109 253.624L359.394 252.12L355.777 256.215L342.683 266.031L341.561 266.872C340.273 268.159 339.086 269.544 338.009 271.012C337.657 271.538 336.055 275.719 333.968 281.333H392.266C392.409 278.375 392.496 276.321 392.496 275.749C392.496 272.909 390.725 272.16 390.577 272.104Z" fill="#2F2E41"/>
<path d="M254.418 221.676C244.787 221.676 236.979 230.336 236.979 241.017V254.588H241.155L243.573 249.56L242.969 254.588H269.816L272.014 250.017L271.464 254.588H274.487V243.933C274.487 231.641 265.502 221.676 254.418 221.676Z" fill="#2F2E41"/>
<path d="M240.344 281.333H229.001L228.894 272.088C228.889 271.991 228.889 271.9 228.889 271.803L231.159 269.248L231.2 269.202L239.87 274.689L240.344 281.333Z" fill="#D0CDE1"/>
<path d="M252.875 252.692C259.732 252.692 265.291 247.137 265.291 240.285C265.291 233.433 259.732 227.879 252.875 227.879C246.019 227.879 240.46 233.433 240.46 240.285C240.46 247.137 246.019 252.692 252.875 252.692Z" fill="#FBBEBE"/>
<path d="M245.757 247.729C245.757 247.729 249.399 266.588 247.743 268.573C246.088 270.558 265.29 264.933 265.29 264.933C265.29 264.933 259 252.03 262.311 244.752L245.757 247.729Z" fill="#FBBEBE"/>
<path d="M279.441 260.483H279.436C279.143 259.864 278.638 259.372 278.012 259.096C275.578 258.071 273.481 257.285 271.756 256.689C268.706 255.642 265.377 255.746 262.398 256.979C262.107 257.097 261.821 257.224 261.541 257.367C261.541 257.367 249.401 259.677 247.957 259.386C247.85 259.366 247.738 259.351 247.631 259.34C247.412 259.309 247.193 259.29 246.972 259.284C244.148 259.153 241.346 259.848 238.91 261.283C234.925 263.593 229.016 267.688 228.894 271.675L228.781 271.803L228.894 281.333H282.176C282.283 272.2 282.344 265.337 282.344 264.873C282.344 263.43 279.441 260.483 279.441 260.483Z" fill="#00487C"/>
<path d="M259.376 227.004C258.537 225.878 257.449 224.96 256.197 224.322C254.946 223.684 253.564 223.342 252.159 223.324H251.817C245.215 223.324 239.863 229.294 239.863 236.657V236.657H242.075L242.433 233.94L242.956 236.657H256.076L257.175 234.358L256.9 236.657H259.481C260.685 242.634 258.955 248.611 254.29 254.588H258.686L260.885 249.991L260.335 254.588H268.716L270.365 244.014C270.365 236.094 265.76 229.379 259.376 227.004Z" fill="#2F2E41"/>
<path d="M261.786 228.118C265.393 228.118 268.318 225.195 268.318 221.59C268.318 217.985 265.393 215.063 261.786 215.063C258.178 215.063 255.254 217.985 255.254 221.59C255.254 225.195 258.178 228.118 261.786 228.118Z" fill="#2F2E41"/>
</svg>
