<svg width="513" height="357" viewBox="0 0 513 357" fill="none" xmlns="http://www.w3.org/2000/svg">
<g clip-path="url(#clip0)">
<path d="M379.109 356.925C391.563 356.925 401.659 355.871 401.659 354.57C401.659 353.269 391.563 352.214 379.109 352.214C366.655 352.214 356.56 353.269 356.56 354.57C356.56 355.871 366.655 356.925 379.109 356.925Z" fill="#E6E6E6"/>
<path d="M445.819 356.925C458.273 356.925 468.369 355.871 468.369 354.57C468.369 353.269 458.273 352.214 445.819 352.214C433.366 352.214 423.27 353.269 423.27 354.57C423.27 355.871 433.366 356.925 445.819 356.925Z" fill="#E6E6E6"/>
<path d="M497.497 356.189C506.059 356.189 513 355.464 513 354.57C513 353.675 506.059 352.95 497.497 352.95C488.935 352.95 481.994 353.675 481.994 354.57C481.994 355.464 488.935 356.189 497.497 356.189Z" fill="#E6E6E6"/>
<path d="M501.933 341.944C501.826 345.982 501.151 349.983 499.93 353.832C499.903 353.921 499.873 354.009 499.844 354.099H492.369C492.377 354.019 492.385 353.929 492.393 353.832C492.891 348.086 495.765 313.111 492.329 307.13C492.629 307.615 502.513 323.685 501.933 341.944Z" fill="#E6E6E6"/>
<path d="M501.373 353.832C501.31 353.921 501.245 354.011 501.179 354.099H495.571C495.614 354.023 495.663 353.933 495.72 353.832C496.647 352.155 499.389 347.142 501.934 341.945C504.669 336.359 507.178 330.562 506.967 328.464C507.032 328.937 508.925 343.363 501.373 353.832Z" fill="#E6E6E6"/>
<path d="M344.698 225.541H4.09971C3.01278 225.54 1.97073 225.107 1.20216 224.336C0.433582 223.565 0.00124934 222.52 0 221.43V4.11135C0.00125518 3.0213 0.433601 1.97625 1.20218 1.20549C1.97076 0.434727 3.01281 0.00119268 4.09971 0H344.698C345.784 0.00119268 346.826 0.434727 347.595 1.20549C348.364 1.97625 348.796 3.0213 348.797 4.11135V221.43C348.796 222.52 348.364 223.565 347.595 224.336C346.827 225.107 345.784 225.54 344.698 225.541ZM4.09971 1.62686C3.44288 1.62758 2.81316 1.88956 2.34869 2.35533C1.88422 2.8211 1.62293 3.45262 1.62215 4.11135V221.43C1.62293 222.089 1.88421 222.72 2.34867 223.186C2.81313 223.652 3.44286 223.914 4.09971 223.915H344.698C345.354 223.914 345.984 223.652 346.449 223.186C346.913 222.72 347.174 222.089 347.175 221.43V4.11135C347.174 3.45262 346.913 2.8211 346.448 2.35532C345.984 1.88955 345.354 1.62757 344.698 1.62685L4.09971 1.62686Z" fill="#E6E6E6"/>
<path d="M256.475 32.0386H76.0157C75.1294 32.0395 74.2796 32.393 73.6529 33.0215C73.0262 33.6501 72.6737 34.5023 72.6729 35.3912V190.15C72.6737 191.039 73.0262 191.891 73.6529 192.52C74.2796 193.148 75.1294 193.502 76.0157 193.503H256.475C257.362 193.502 258.211 193.148 258.838 192.52C259.465 191.891 259.817 191.039 259.818 190.15V35.3912C259.817 34.5023 259.465 33.6501 258.838 33.0215C258.211 32.393 257.362 32.0395 256.475 32.0386ZM258.479 190.15C258.478 190.683 258.267 191.195 257.892 191.573C257.517 191.95 257.007 192.163 256.475 192.165H76.0157C75.4836 192.164 74.9736 191.952 74.598 191.574C74.2223 191.196 74.0117 190.684 74.0125 190.15V35.3912C74.0117 34.8575 74.2223 34.3454 74.598 33.9675C74.9736 33.5895 75.4836 33.3767 76.0157 33.3758H256.475C257.007 33.3778 257.517 33.5909 257.892 33.9686C258.267 34.3463 258.478 34.8578 258.479 35.3912V190.15Z" fill="#3F3D56"/>
<path d="M115.67 165.985C115.67 166.224 115.664 166.462 115.652 166.695C115.47 170.187 113.958 173.477 111.429 175.884C108.899 178.292 105.545 179.634 102.058 179.634C98.5706 179.634 95.2164 178.292 92.687 175.884C90.1576 173.477 88.646 170.187 88.4641 166.695C88.4515 166.462 88.4453 166.224 88.4453 165.985C88.4442 164.192 88.7955 162.415 89.4791 160.758C90.1626 159.101 91.1652 157.595 92.4293 156.326C93.6935 155.057 95.1945 154.051 96.8466 153.364C98.4987 152.678 100.27 152.324 102.058 152.324C103.846 152.324 105.617 152.678 107.269 153.364C108.921 154.051 110.422 155.057 111.686 156.326C112.951 157.595 113.953 159.101 114.637 160.758C115.32 162.415 115.672 164.192 115.67 165.985Z" fill="#00487C"/>
<path d="M242.453 156.882H135.493C134.892 156.883 134.316 157.123 133.891 157.549C133.466 157.976 133.228 158.554 133.228 159.157C133.228 159.76 133.466 160.339 133.891 160.766C134.316 161.192 134.892 161.432 135.493 161.433H242.453C243.055 161.432 243.631 161.192 244.056 160.766C244.48 160.339 244.719 159.76 244.719 159.157C244.719 158.554 244.48 157.976 244.056 157.549C243.631 157.123 243.055 156.883 242.453 156.882Z" fill="#00487C"/>
<path d="M179.517 170.537H133.493C132.892 170.537 132.315 170.776 131.89 171.203C131.465 171.629 131.227 172.207 131.227 172.81C131.227 173.412 131.465 173.99 131.89 174.417C132.315 174.843 132.892 175.082 133.493 175.082H179.517C180.118 175.082 180.694 174.843 181.119 174.417C181.544 173.99 181.783 173.412 181.783 172.81C181.783 172.207 181.544 171.629 181.119 171.203C180.694 170.776 180.118 170.537 179.517 170.537Z" fill="#E6E6E6"/>
<path d="M299.349 139.996H118.891C117.88 139.995 116.911 139.592 116.197 138.875C115.482 138.158 115.08 137.187 115.079 136.173V56.7489C115.08 55.7354 115.482 54.7638 116.197 54.0472C116.911 53.3305 117.88 52.9274 118.891 52.9263H299.349C300.36 52.9274 301.328 53.3305 302.043 54.0472C302.757 54.7638 303.159 55.7354 303.161 56.7489V136.173C303.159 137.187 302.757 138.158 302.043 138.875C301.328 139.592 300.36 139.995 299.349 139.996Z" fill="#00487C"/>
<path d="M155.641 81.0813C155.039 81.0813 154.462 81.321 154.037 81.7477C153.611 82.1745 153.372 82.7532 153.372 83.3567C153.372 83.9601 153.611 84.5389 154.037 84.9656C154.462 85.3923 155.039 85.632 155.641 85.632H262.598C263.2 85.632 263.777 85.3923 264.203 84.9656C264.628 84.5389 264.867 83.9601 264.867 83.3567C264.867 82.7532 264.628 82.1745 264.203 81.7477C263.777 81.321 263.2 81.0813 262.598 81.0813H155.641Z" fill="white"/>
<path d="M155.64 94.2656C155.039 94.2666 154.463 94.5067 154.038 94.9333C153.614 95.3599 153.375 95.9381 153.375 96.541C153.375 97.1439 153.614 97.7221 154.038 98.1487C154.463 98.5753 155.039 98.8155 155.64 98.8164H262.598C263.199 98.8155 263.775 98.5753 264.2 98.1487C264.625 97.7221 264.863 97.1439 264.863 96.541C264.863 95.9381 264.625 95.3599 264.2 94.9333C263.775 94.5067 263.199 94.2666 262.598 94.2656H155.64Z" fill="white"/>
<path d="M155.64 107.29C155.039 107.291 154.463 107.531 154.038 107.958C153.614 108.384 153.375 108.963 153.375 109.565C153.375 110.168 153.614 110.747 154.038 111.173C154.463 111.6 155.039 111.84 155.64 111.841H201.664C202.266 111.84 202.842 111.6 203.266 111.173C203.691 110.747 203.93 110.168 203.93 109.565C203.93 108.963 203.691 108.384 203.266 107.958C202.842 107.531 202.266 107.291 201.664 107.29H155.64Z" fill="white"/>
<path d="M12.5531 14.3974C14.1099 14.3974 15.3719 13.1317 15.3719 11.5704C15.3719 10.0092 14.1099 8.74353 12.5531 8.74353C10.9964 8.74353 9.73438 10.0092 9.73438 11.5704C9.73438 13.1317 10.9964 14.3974 12.5531 14.3974Z" fill="#00487C"/>
<path d="M22.4184 14.3974C23.9751 14.3974 25.2371 13.1317 25.2371 11.5704C25.2371 10.0092 23.9751 8.74353 22.4184 8.74353C20.8616 8.74353 19.5996 10.0092 19.5996 11.5704C19.5996 13.1317 20.8616 14.3974 22.4184 14.3974Z" fill="#00487C"/>
<path d="M32.2836 14.3974C33.8403 14.3974 35.1023 13.1317 35.1023 11.5704C35.1023 10.0092 33.8403 8.74353 32.2836 8.74353C30.7268 8.74353 29.4648 10.0092 29.4648 11.5704C29.4648 13.1317 30.7268 14.3974 32.2836 14.3974Z" fill="#00487C"/>
<path d="M417.026 237.349L414.715 250.196C414.53 251.228 414.591 252.289 414.893 253.293C415.195 254.297 415.73 255.215 416.455 255.971C417.179 256.727 418.071 257.301 419.059 257.644C420.047 257.988 421.102 258.092 422.137 257.948C423.048 257.821 423.923 257.506 424.705 257.021C425.487 256.536 426.161 255.894 426.681 255.134C427.202 254.374 427.56 253.513 427.73 252.607C427.901 251.7 427.882 250.768 427.673 249.87L424.742 237.236L435.224 203.199L432.809 166.771L417.792 171.978L424.58 199.831L417.026 237.349Z" fill="#FFB8B8"/>
<path d="M410.879 134.694C417.813 134.694 423.435 129.056 423.435 122.101C423.435 115.147 417.813 109.509 410.879 109.509C403.944 109.509 398.322 115.147 398.322 122.101C398.322 129.056 403.944 134.694 410.879 134.694Z" fill="#FFB8B8"/>
<path d="M405.599 158.106L430.139 157.722C424.874 144.943 420.607 132.877 421.703 124.649L404.448 127.341C406.491 139.029 407.481 147.447 405.599 158.106Z" fill="#FFB8B8"/>
<path d="M386.043 189.256L419.02 195.409C430.137 174.982 436.27 156.537 425.922 144.647L406.366 143.493C393.87 156.894 383.302 169.899 390.483 179.259L386.043 189.256Z" fill="#00487C"/>
<path d="M415.409 173.217C422.956 176.112 429.96 173.596 436.389 165.342L426.86 146.906L414.719 149.319L415.409 173.217Z" fill="#00487C"/>
<path d="M382.976 342.311L396.013 341.639L404.449 253.093L447.395 341.158L460.816 340.773L435.125 263.476C434.111 237.687 433.051 211.966 422.088 200.793L418.253 192.717L387.577 186.179L383.359 194.255C373.58 217.157 379.322 282.594 382.976 342.311Z" fill="#2F2E41"/>
<path d="M375.578 355.508L390.796 356.971C391.706 357.059 392.624 356.942 393.484 356.63C394.343 356.317 395.123 355.817 395.766 355.166C396.409 354.514 396.9 353.727 397.202 352.862C397.504 351.996 397.611 351.074 397.514 350.163L396.396 339.62C392.179 340.721 387.679 340.463 382.975 339.235L377.223 344.234L374.497 345.089C373.489 345.405 372.597 346.014 371.935 346.84C371.273 347.666 370.87 348.67 370.779 349.726C370.657 351.129 371.093 352.524 371.992 353.607C372.891 354.69 374.18 355.373 375.578 355.508Z" fill="#2F2E41"/>
<path d="M439.998 355.508L455.216 356.971C456.126 357.059 457.044 356.942 457.903 356.63C458.763 356.317 459.543 355.817 460.186 355.166C460.829 354.514 461.319 353.727 461.622 352.862C461.924 351.996 462.031 351.074 461.934 350.163L460.816 339.62C456.599 340.721 452.099 340.463 447.395 339.235L441.643 344.234L438.917 345.089C437.909 345.405 437.017 346.014 436.355 346.84C435.693 347.666 435.29 348.67 435.199 349.726C435.077 351.129 435.513 352.524 436.412 353.607C437.311 354.69 438.6 355.373 439.998 355.508Z" fill="#2F2E41"/>
<path d="M396.013 165.028C401.384 171.082 408.758 172.08 418.253 167.72V146.954L406.366 143.493L396.013 165.028Z" fill="#00487C"/>
<path d="M368.021 222.713L360.074 233.052C359.436 233.883 359.003 234.853 358.811 235.884C358.619 236.915 358.673 237.976 358.969 238.982C359.265 239.988 359.794 240.909 360.513 241.67C361.232 242.431 362.121 243.01 363.107 243.36C363.973 243.668 364.895 243.791 365.812 243.722C366.729 243.653 367.621 243.393 368.433 242.959C369.244 242.524 369.956 241.925 370.523 241.199C371.091 240.473 371.501 239.637 371.728 238.743L374.923 226.174L399.847 200.793L414.418 167.336L398.697 165.028L387.96 194.255L368.021 222.713Z" fill="#FFB8B8"/>
<path d="M406.078 103.521C411.844 100.613 418.738 99.747 424.868 101.775C430.998 103.803 436.185 108.887 437.753 115.166C438.937 119.913 438.082 124.893 437.664 129.769C437.246 134.644 437.379 139.913 440.181 143.919C441.936 146.43 444.56 148.171 447.144 149.81C449.728 151.449 452.392 153.095 454.301 155.491C456.21 157.886 457.241 161.236 456.089 164.077C454.618 167.704 450.382 169.18 446.625 170.244C441.27 171.761 435.843 173.289 430.28 173.401C424.716 173.512 418.908 172.051 414.82 168.265C409.259 163.114 407.924 154.69 408.978 147.173C410.032 139.656 413.082 132.584 415.005 125.241C415.748 122.404 416.179 118.981 414.121 116.897C412.032 114.779 408.488 115.194 405.886 113.755C404.758 113.13 403.847 112.174 403.276 111.014C402.706 109.854 402.504 108.547 402.697 107.269C402.89 105.99 403.47 104.802 404.357 103.864C405.244 102.926 406.397 102.283 407.66 102.022" fill="#2F2E41"/>
<path d="M309.002 348.772L300.386 348.772L296.287 315.596L309.004 315.597L309.002 348.772Z" fill="#FFB8B8"/>
<path d="M283.769 356.758L310.848 356.759L310.848 346.315L294.231 346.314C291.457 346.314 288.795 347.414 286.833 349.373C284.871 351.332 283.769 353.988 283.769 356.758L283.769 356.758Z" fill="#2F2E41"/>
<path d="M339.925 348.772L331.309 348.772L327.21 315.596L339.927 315.597L339.925 348.772Z" fill="#FFB8B8"/>
<path d="M339.925 348.772L331.309 348.772L327.21 315.596L339.927 315.597L339.925 348.772Z" fill="#FFB8B8"/>
<path d="M314.691 356.758L341.77 356.759L341.771 346.315L325.154 346.314C322.379 346.314 319.718 347.414 317.756 349.373C315.794 351.332 314.692 353.988 314.691 356.758L314.691 356.758Z" fill="#2F2E41"/>
<path d="M332.395 338.569L340.811 338.127C341.245 338.104 341.67 337.996 342.062 337.808C342.453 337.62 342.804 337.356 343.092 337.032C343.381 336.708 343.603 336.33 343.744 335.92C343.886 335.509 343.944 335.075 343.916 334.642L333.857 223.467L287.536 235.945L283.073 234.73L297.029 333.15C297.148 333.89 297.516 334.568 298.073 335.071C298.63 335.574 299.342 335.872 300.092 335.917L309.164 336.339C309.618 336.364 310.072 336.295 310.497 336.136C310.923 335.977 311.311 335.732 311.636 335.416C311.962 335.099 312.219 334.719 312.39 334.299C312.561 333.879 312.642 333.428 312.63 332.975L310.986 273.905C310.978 273.632 311.073 273.365 311.253 273.159C311.432 272.952 311.682 272.82 311.954 272.788C312.226 272.757 312.5 272.828 312.721 272.988C312.943 273.148 313.097 273.385 313.153 273.652L329.006 335.96C329.155 336.7 329.557 337.364 330.143 337.841C330.728 338.317 331.461 338.577 332.217 338.574C332.276 338.574 332.335 338.573 332.395 338.569Z" fill="#2F2E41"/>
<path d="M332.395 338.569L340.811 338.127C341.245 338.104 341.67 337.996 342.062 337.808C342.453 337.62 342.804 337.356 343.092 337.032C343.381 336.708 343.603 336.33 343.744 335.92C343.886 335.509 343.944 335.075 343.916 334.642L333.857 223.467L287.536 235.945L283.073 234.73L297.029 333.15C297.148 333.89 297.516 334.568 298.073 335.071C298.63 335.574 299.342 335.872 300.092 335.917L309.164 336.339C309.618 336.364 310.072 336.295 310.497 336.136C310.923 335.977 311.311 335.732 311.636 335.416C311.962 335.099 312.219 334.719 312.39 334.299C312.561 333.879 312.642 333.428 312.63 332.975L310.986 273.905C310.978 273.632 311.073 273.365 311.253 273.159C311.432 272.952 311.682 272.82 311.954 272.788C312.226 272.757 312.5 272.828 312.721 272.988C312.943 273.148 313.097 273.385 313.153 273.652L329.006 335.96C329.155 336.7 329.557 337.364 330.143 337.841C330.728 338.317 331.461 338.577 332.217 338.574C332.276 338.574 332.335 338.573 332.395 338.569Z" fill="#2F2E41"/>
<path d="M307.455 132.503C297.921 132.503 290.193 124.788 290.193 115.271C290.193 105.755 297.921 98.04 307.455 98.04C316.988 98.04 324.716 105.755 324.716 115.271C324.716 124.788 316.988 132.503 307.455 132.503Z" fill="#FFB8B8"/>
<path d="M307.455 132.503C297.921 132.503 290.193 124.788 290.193 115.271C290.193 105.755 297.921 98.04 307.455 98.04C316.988 98.04 324.716 105.755 324.716 115.271C324.716 124.788 316.988 132.503 307.455 132.503Z" fill="#FFB8B8"/>
<path d="M336.193 165.896L334.295 206.775L333.609 221.647C333.582 222.294 333.362 222.919 332.977 223.441C332.592 223.963 332.06 224.358 331.449 224.576L286.937 240.673C286.577 240.806 286.196 240.873 285.813 240.869C285.374 240.872 284.94 240.785 284.536 240.616C284.131 240.447 283.765 240.198 283.459 239.885C283.153 239.571 282.914 239.199 282.755 238.791C282.596 238.383 282.521 237.948 282.535 237.51L284.36 164.009C284.48 157.978 286.704 152.179 290.648 147.609C294.592 143.04 300.009 139.988 305.966 138.979C306.397 138.913 306.835 138.848 307.273 138.789C310.967 138.332 314.716 138.687 318.257 139.832C321.798 140.976 325.045 142.881 327.77 145.413C330.591 148.003 332.807 151.18 334.263 154.72C335.719 158.259 336.378 162.074 336.193 165.896L336.193 165.896Z" fill="white"/>
<path d="M336.193 165.896L334.295 206.775L333.609 221.647C333.582 222.294 333.362 222.919 332.977 223.441C332.592 223.963 332.06 224.358 331.449 224.576L286.937 240.673C286.577 240.806 286.196 240.873 285.813 240.869C285.374 240.872 284.94 240.785 284.536 240.616C284.131 240.447 283.765 240.198 283.459 239.885C283.153 239.571 282.914 239.199 282.755 238.791C282.596 238.383 282.521 237.948 282.535 237.51L284.36 164.009C284.48 157.978 286.704 152.179 290.648 147.609C294.592 143.04 300.009 139.988 305.966 138.979C306.397 138.913 306.835 138.848 307.273 138.789C310.967 138.332 314.716 138.687 318.257 139.832C321.798 140.976 325.045 142.881 327.77 145.413C330.591 148.003 332.807 151.18 334.263 154.72C335.719 158.259 336.378 162.074 336.193 165.896L336.193 165.896Z" fill="white"/>
<path d="M265.674 232.516C266.727 232.19 267.689 231.622 268.483 230.859C269.277 230.096 269.882 229.158 270.248 228.12C270.615 227.083 270.733 225.974 270.594 224.882C270.455 223.791 270.063 222.747 269.447 221.833L284.542 201.796L271.516 200.992L259.179 220.142C257.859 221.162 256.939 222.613 256.583 224.241C256.227 225.869 256.457 227.571 257.232 229.047C258.006 230.523 259.277 231.68 260.821 232.314C262.365 232.948 264.083 233.02 265.674 232.516H265.674Z" fill="#FFB8B8"/>
<path d="M265.674 232.516C266.727 232.19 267.689 231.622 268.483 230.859C269.277 230.096 269.882 229.158 270.248 228.12C270.615 227.083 270.733 225.974 270.594 224.882C270.455 223.791 270.063 222.747 269.447 221.833L284.542 201.796L271.516 200.992L259.179 220.142C257.859 221.162 256.939 222.613 256.583 224.241C256.227 225.869 256.457 227.571 257.232 229.047C258.006 230.523 259.277 231.68 260.821 232.314C262.365 232.948 264.083 233.02 265.674 232.516H265.674Z" fill="#FFB8B8"/>
<path d="M276.287 218.207C276.687 218.045 277.051 217.806 277.357 217.502C277.664 217.199 277.907 216.838 278.073 216.44L300.814 162.353C301.26 161.294 301.493 160.158 301.499 159.009C301.505 157.86 301.284 156.722 300.849 155.658C300.414 154.594 299.773 153.627 298.964 152.81C298.154 151.994 297.191 151.345 296.13 150.9C295.069 150.456 293.93 150.224 292.779 150.219C291.628 150.214 290.488 150.435 289.423 150.87C288.358 151.305 287.389 151.946 286.572 152.755C285.755 153.564 285.105 154.526 284.661 155.585L261.92 209.673C261.583 210.475 261.58 211.377 261.909 212.182C262.239 212.987 262.874 213.628 263.677 213.966L273.773 218.195C274.17 218.363 274.597 218.451 275.029 218.453C275.46 218.455 275.888 218.371 276.287 218.207L276.287 218.207Z" fill="white"/>
<path d="M276.287 218.207C276.687 218.045 277.051 217.806 277.357 217.502C277.664 217.199 277.907 216.838 278.073 216.44L300.814 162.353C301.26 161.294 301.493 160.158 301.499 159.009C301.505 157.86 301.284 156.722 300.849 155.658C300.414 154.594 299.773 153.627 298.964 152.81C298.154 151.994 297.191 151.345 296.13 150.9C295.069 150.456 293.93 150.224 292.779 150.219C291.628 150.214 290.488 150.435 289.423 150.87C288.358 151.305 287.389 151.946 286.572 152.755C285.755 153.564 285.105 154.526 284.661 155.585L261.92 209.673C261.583 210.475 261.58 211.377 261.909 212.182C262.239 212.987 262.874 213.628 263.677 213.966L273.773 218.195C274.17 218.363 274.597 218.451 275.029 218.453C275.46 218.455 275.888 218.371 276.287 218.207L276.287 218.207Z" fill="white"/>
<path d="M313.004 216.3L291.162 174.55C290.74 173.747 290.017 173.144 289.151 172.872C288.285 172.601 287.346 172.684 286.541 173.102L254.837 189.631C254.033 190.052 253.428 190.774 253.156 191.638C252.885 192.503 252.967 193.44 253.387 194.244L275.229 235.994C275.65 236.797 276.373 237.4 277.24 237.672C278.106 237.943 279.045 237.86 279.85 237.442L311.554 220.912C312.358 220.492 312.962 219.77 313.234 218.905C313.506 218.041 313.423 217.104 313.004 216.3Z" fill="#3F3D56"/>
<path d="M313.004 216.3L291.162 174.55C290.74 173.747 290.017 173.144 289.151 172.872C288.285 172.601 287.346 172.684 286.541 173.102L254.837 189.631C254.033 190.052 253.428 190.774 253.156 191.638C252.885 192.503 252.967 193.44 253.387 194.244L275.229 235.994C275.65 236.797 276.373 237.4 277.24 237.672C278.106 237.943 279.045 237.86 279.85 237.442L311.554 220.912C312.358 220.492 312.962 219.77 313.234 218.905C313.506 218.041 313.423 217.104 313.004 216.3Z" fill="#3F3D56"/>
<path d="M298.357 197.225C298.745 196.195 299.369 195.27 300.179 194.524C300.989 193.778 301.963 193.231 303.022 192.927C304.082 192.623 305.198 192.57 306.281 192.773C307.364 192.976 308.385 193.429 309.262 194.096L330.19 180.237L330.226 193.265L310.347 204.428C309.249 205.684 307.744 206.514 306.095 206.773C304.446 207.032 302.758 206.703 301.327 205.844C299.897 204.984 298.815 203.649 298.272 202.074C297.729 200.498 297.759 198.781 298.357 197.225Z" fill="#FFB8B8"/>
<path d="M298.357 197.225C298.745 196.195 299.369 195.27 300.179 194.524C300.989 193.778 301.963 193.231 303.022 192.927C304.082 192.623 305.198 192.57 306.281 192.773C307.364 192.976 308.385 193.429 309.262 194.096L330.19 180.237L330.226 193.265L310.347 204.428C309.249 205.684 307.744 206.514 306.095 206.773C304.446 207.032 302.758 206.703 301.327 205.844C299.897 204.984 298.815 203.649 298.272 202.074C297.729 200.498 297.759 198.781 298.357 197.225Z" fill="#FFB8B8"/>
<path d="M324.816 200.155L341.92 186.63C343.77 186.01 345.442 184.951 346.792 183.544C348.142 182.136 349.13 180.423 349.67 178.551C350.211 176.679 350.289 174.704 349.896 172.795C349.504 170.886 348.654 169.101 347.418 167.593L331.889 147.276C330.809 145.959 329.292 145.075 327.613 144.783C325.934 144.492 324.206 144.813 322.745 145.689C321.284 146.565 320.188 147.936 319.656 149.552C319.125 151.168 319.193 152.921 319.85 154.491L332.137 174.556L314.08 183.106C313.66 183.305 313.287 183.59 312.986 183.944C312.685 184.297 312.462 184.71 312.333 185.156C312.203 185.601 312.17 186.069 312.235 186.528C312.3 186.988 312.463 187.428 312.711 187.82L320 199.336C320.246 199.724 320.572 200.057 320.955 200.312C321.339 200.567 321.771 200.739 322.226 200.817C322.244 200.82 322.262 200.823 322.28 200.826C322.726 200.893 323.181 200.868 323.618 200.753C324.054 200.637 324.462 200.434 324.816 200.155Z" fill="white"/>
<path d="M320.498 126.81C320.572 126.594 320.596 126.363 320.567 126.136C320.538 125.91 320.457 125.693 320.331 125.502C320.205 125.311 320.037 125.151 319.84 125.035C319.643 124.919 319.422 124.85 319.193 124.832C318.726 124.857 318.268 124.977 317.849 125.184C317.429 125.391 317.055 125.68 316.75 126.035C316.126 126.754 315.399 127.378 314.592 127.885C313.757 128.305 312.625 128.246 312.149 127.445C311.702 126.692 312.008 125.685 312.278 124.811C312.967 122.588 313.352 120.283 313.424 117.957C313.502 115.361 313.135 112.652 311.695 110.627C309.837 108.014 306.515 107.022 303.37 107.094C300.226 107.165 297.133 108.134 294.018 108.747C292.943 108.958 291.679 109.066 290.96 108.235C290.195 107.35 290.476 105.918 290.802 104.724C291.646 101.625 292.541 98.4207 294.502 95.9178C296.622 93.317 299.651 91.6148 302.978 91.154C306.172 90.759 309.415 91.1265 312.439 92.2263C317.367 93.7766 321.702 96.7918 324.867 100.869C328.129 105.204 329.538 110.653 328.787 116.023C328.053 120.7 325.57 124.925 321.839 127.847L320.498 126.81Z" fill="#2F2E41"/>
</g>
<defs>
<clipPath id="clip0">
<rect width="513" height="356.999" fill="white"/>
</clipPath>
</defs>
</svg>
