<svg width="595" height="249" viewBox="0 0 595 249" fill="none" xmlns="http://www.w3.org/2000/svg">
<path d="M297.5 249C461.805 249 595 244.282 595 238.463C595 232.643 461.805 227.926 297.5 227.926C133.195 227.926 0 232.643 0 238.463C0 244.282 133.195 249 297.5 249Z" fill="#3F3D56"/>
<path d="M529.535 179.54C530.639 177.626 531.21 175.454 531.188 173.248C531.188 167.563 527.649 162.951 523.261 162.951C518.873 162.951 515.339 167.563 515.339 173.248C515.317 175.454 515.888 177.626 516.992 179.54C515.909 181.463 515.339 183.629 515.339 185.832C515.339 188.035 515.909 190.202 516.992 192.124C515.909 194.046 515.339 196.212 515.339 198.414C515.339 200.616 515.909 202.782 516.992 204.704C515.909 206.626 515.339 208.793 515.339 210.996C515.339 213.199 515.909 215.365 516.992 217.288C515.888 219.202 515.317 221.374 515.339 223.58C515.339 229.265 518.878 233.877 523.261 233.877C527.644 233.877 531.188 229.265 531.188 223.58C531.21 221.374 530.639 219.202 529.535 217.288C530.618 215.365 531.188 213.199 531.188 210.996C531.188 208.793 530.618 206.626 529.535 204.704C530.618 202.782 531.188 200.616 531.188 198.414C531.188 196.212 530.618 194.046 529.535 192.124C530.618 190.202 531.188 188.035 531.188 185.832C531.188 183.629 530.618 181.463 529.535 179.54Z" fill="#3F3D56"/>
<path d="M523.241 170.96C527.616 170.96 531.162 166.35 531.162 160.663C531.162 154.977 527.616 150.367 523.241 150.367C518.866 150.367 515.319 154.977 515.319 160.663C515.319 166.35 518.866 170.96 523.241 170.96Z" fill="#3F3D56"/>
<path d="M523.241 158.375C527.616 158.375 531.162 153.765 531.162 148.079C531.162 142.392 527.616 137.782 523.241 137.782C518.866 137.782 515.319 142.392 515.319 148.079C515.319 153.765 518.866 158.375 523.241 158.375Z" fill="#3F3D56"/>
<path d="M493.582 61.9651C492.499 60.5974 491.513 59.1573 490.63 57.6549L511.452 54.263L488.931 54.4286C486.771 49.7634 485.593 44.7099 485.469 39.5774C485.345 34.4448 486.277 29.341 488.208 24.5782L518.418 40.1331L490.559 19.8064C493.166 15.3248 496.675 11.4243 500.867 8.34829C505.06 5.27223 509.846 3.08653 514.927 1.9275C520.009 0.768461 525.276 0.660949 530.401 1.61165C535.526 2.56236 540.398 4.5509 544.715 7.45326C549.031 10.3556 552.699 14.1096 555.49 18.481C558.28 22.8525 560.133 27.7476 560.933 32.8613C561.733 37.9749 561.464 43.1974 560.141 48.2029C558.818 53.2085 556.47 57.8899 553.244 61.9551C554.934 64.0831 556.385 66.3882 557.571 68.8294L530.546 82.7736L559.36 73.1747C561.383 79.1115 561.883 85.4552 560.814 91.6318C559.745 97.8084 557.141 103.623 553.239 108.55C557.644 114.106 560.385 120.781 561.149 127.811C561.912 134.841 560.667 141.942 557.555 148.303C554.444 154.664 549.592 160.027 543.554 163.779C537.516 167.531 530.536 169.521 523.413 169.521C516.289 169.521 509.309 167.531 503.271 163.779C497.233 160.027 492.381 154.664 489.27 148.303C486.158 141.942 484.913 134.841 485.677 127.811C486.44 120.781 489.181 114.106 493.587 108.55C488.324 101.909 485.463 93.7059 485.463 85.2573C485.463 76.8088 488.324 68.6054 493.587 61.9651H493.582Z" fill="#57B894"/>
<path opacity="0.1" d="M561.383 85.2572C561.396 93.7079 558.533 101.915 553.259 108.549C557.665 114.106 560.406 120.781 561.169 127.811C561.933 134.841 560.687 141.942 557.576 148.303C554.464 154.663 549.612 160.026 543.574 163.779C537.537 167.531 530.557 169.521 523.433 169.521C516.31 169.521 509.33 167.531 503.292 163.779C497.254 160.026 492.402 154.663 489.29 148.303C486.179 141.942 484.934 134.841 485.697 127.811C486.461 120.781 489.202 114.106 493.607 108.549C488.497 102.142 561.383 81.0323 561.383 85.2572Z" fill="black"/>
<path d="M497.98 4.51245H97.02C91.3189 4.51245 86.6973 9.09981 86.6973 14.7586V223.074C86.6973 228.732 91.3189 233.32 97.02 233.32H497.98C503.681 233.32 508.303 228.732 508.303 223.074V14.7586C508.303 9.09981 503.681 4.51245 497.98 4.51245Z" fill="#F2F2F2"/>
<path d="M86.9502 15.8022H222.43V233.571H97.273C94.5352 233.571 91.9096 232.491 89.9737 230.57C88.0378 228.648 86.9502 226.042 86.9502 223.324V15.8022Z" fill="#00487C"/>
<path d="M508.303 14.7585V20.574H86.6973V14.7585C86.6973 13.4132 86.9643 12.081 87.4831 10.8382C88.002 9.59536 88.7624 8.46616 89.721 7.51512C90.6797 6.56408 91.8177 5.80982 93.0701 5.29545C94.3224 4.78108 95.6647 4.51668 97.02 4.51734H497.98C499.336 4.51668 500.678 4.78108 501.93 5.29545C503.183 5.80982 504.321 6.56408 505.279 7.51512C506.238 8.46616 506.998 9.59536 507.517 10.8382C508.036 12.081 508.303 13.4132 508.303 14.7585Z" fill="#3F3D56"/>
<path d="M97.5654 15.8022C99.2405 15.8022 100.599 14.4543 100.599 12.7916C100.599 11.1289 99.2405 9.78101 97.5654 9.78101C95.8902 9.78101 94.5322 11.1289 94.5322 12.7916C94.5322 14.4543 95.8902 15.8022 97.5654 15.8022Z" fill="white"/>
<path d="M105.148 15.8022C106.824 15.8022 108.182 14.4543 108.182 12.7916C108.182 11.1289 106.824 9.78101 105.148 9.78101C103.473 9.78101 102.115 11.1289 102.115 12.7916C102.115 14.4543 103.473 15.8022 105.148 15.8022Z" fill="white"/>
<path d="M112.731 15.8022C114.407 15.8022 115.765 14.4543 115.765 12.7916C115.765 11.1289 114.407 9.78101 112.731 9.78101C111.056 9.78101 109.698 11.1289 109.698 12.7916C109.698 14.4543 111.056 15.8022 112.731 15.8022Z" fill="white"/>
<path opacity="0.3" d="M483.411 47.7249H309.248C308.902 47.7249 308.621 48.0034 308.621 48.347V52.6221C308.621 52.9658 308.902 53.2443 309.248 53.2443H483.411C483.757 53.2443 484.037 52.9658 484.037 52.6221V48.347C484.037 48.0034 483.757 47.7249 483.411 47.7249Z" fill="#6C63FF"/>
<path d="M480.884 58.262H445.234C444.888 58.262 444.607 58.5405 444.607 58.8842V70.184C444.607 70.5277 444.888 70.8062 445.234 70.8062H480.884C481.23 70.8062 481.511 70.5277 481.511 70.184V58.8842C481.511 58.5405 481.23 58.262 480.884 58.262Z" fill="#00487C"/>
<path opacity="0.3" d="M483.411 114.842H309.248C308.902 114.842 308.621 115.12 308.621 115.464V119.739C308.621 120.083 308.902 120.361 309.248 120.361H483.411C483.757 120.361 484.037 120.083 484.037 119.739V115.464C484.037 115.12 483.757 114.842 483.411 114.842Z" fill="#6C63FF"/>
<path d="M480.884 125.379H445.234C444.888 125.379 444.607 125.657 444.607 126.001V137.301C444.607 137.645 444.888 137.923 445.234 137.923H480.884C481.23 137.923 481.511 137.645 481.511 137.301V126.001C481.511 125.657 481.23 125.379 480.884 125.379Z" fill="#00487C"/>
<path opacity="0.3" d="M483.411 183.083H309.248C308.902 183.083 308.621 183.361 308.621 183.705V187.98C308.621 188.323 308.902 188.602 309.248 188.602H483.411C483.757 188.602 484.037 188.323 484.037 187.98V183.705C484.037 183.361 483.757 183.083 483.411 183.083Z" fill="#6C63FF"/>
<path d="M480.884 193.62H445.234C444.888 193.62 444.607 193.898 444.607 194.242V205.542C444.607 205.885 444.888 206.164 445.234 206.164H480.884C481.23 206.164 481.511 205.885 481.511 205.542V194.242C481.511 193.898 481.23 193.62 480.884 193.62Z" fill="#00487C"/>
<path d="M270.551 151.23C284.377 151.23 295.585 140.105 295.585 126.382C295.585 112.659 284.377 101.535 270.551 101.535C256.725 101.535 245.518 112.659 245.518 126.382C245.518 140.105 256.725 151.23 270.551 151.23Z" fill="#3F3D56"/>
<path d="M292.642 139.489C292.614 139.549 292.578 139.604 292.535 139.654C292.263 140.102 291.967 140.536 291.651 140.954C288.875 144.768 285.061 147.719 280.656 149.459C280.221 149.639 279.776 149.805 279.326 149.961C278.909 149.63 278.524 149.262 278.174 148.862C277.129 147.685 276.43 146.246 276.151 144.702C275.485 144.83 274.808 144.894 274.129 144.893C274.062 144.898 273.994 144.898 273.927 144.893C268.72 144.802 264.251 141.019 262.255 135.62L262.174 135.389C260.956 131.872 260.819 128.075 261.779 124.481C261.805 124.36 261.845 124.24 261.88 124.124C263.589 118.299 268.098 114.054 273.462 113.718C273.629 113.718 273.796 113.718 273.968 113.718C274.139 113.718 274.241 113.718 274.377 113.718H274.62C281.414 113.964 286.884 120.487 287.136 128.645C288.525 129.551 289.625 130.83 290.306 132.334C290.987 133.838 291.222 135.504 290.983 137.135C291.661 137.825 292.221 138.62 292.642 139.489Z" fill="#192534"/>
<path opacity="0.1" d="M292.536 139.654C292.263 140.102 291.968 140.536 291.651 140.954C291.285 140.302 290.831 139.703 290.302 139.172C290.36 138.758 290.39 138.341 290.393 137.923C290.393 136.487 290.033 135.073 289.345 133.809C288.658 132.545 287.664 131.471 286.455 130.683C286.177 122.353 280.469 115.7 273.478 115.7C268.483 115.7 264.151 119.082 261.972 124.049C261.917 124.18 261.866 124.305 261.805 124.44C261.623 124.872 261.462 125.309 261.3 125.765C261.478 124.848 261.726 123.945 262.043 123.066L262.114 122.995C264.06 117.672 268.407 113.893 273.513 113.667C273.68 113.667 273.847 113.667 274.019 113.667C274.191 113.667 274.292 113.667 274.428 113.667H274.671C281.369 114.069 286.733 120.562 286.99 128.635C288.382 129.538 289.485 130.817 290.168 132.321C290.852 133.825 291.087 135.492 290.848 137.125C291.558 137.862 292.129 138.718 292.536 139.654Z" fill="black"/>
<path d="M266.157 132.529C266.22 133.037 266.161 133.553 265.986 134.034C265.687 134.722 264.975 135.339 265.172 136.042C265.272 136.262 265.423 136.456 265.613 136.607C265.802 136.759 266.025 136.864 266.264 136.915C268.442 137.647 270.813 137.211 273.118 137.311C273.887 137.378 274.658 137.405 275.429 137.391C276.204 137.374 276.954 137.114 277.572 136.649C276.375 136.071 275.244 135.366 274.2 134.546C273.947 134.36 273.717 134.142 273.518 133.899C273.089 133.211 272.883 132.409 272.926 131.601C272.926 130.803 272.926 130.005 272.926 129.212C271.278 129.212 269.635 129.187 267.987 129.187C267.482 129.187 265.849 129.062 265.662 129.629C265.571 129.91 265.925 130.738 265.981 131.054C266.065 131.542 266.124 132.035 266.157 132.529Z" fill="#A0616A"/>
<path opacity="0.1" d="M266.157 132.529C266.22 133.037 266.161 133.553 265.986 134.034C265.687 134.722 264.975 135.339 265.172 136.042C265.272 136.262 265.423 136.456 265.613 136.607C265.802 136.759 266.025 136.864 266.264 136.915C268.442 137.647 270.813 137.211 273.118 137.311C273.887 137.378 274.658 137.405 275.429 137.391C276.204 137.374 276.954 137.114 277.572 136.649C276.375 136.071 275.244 135.366 274.2 134.546C273.947 134.36 273.717 134.142 273.518 133.899C273.089 133.211 272.883 132.409 272.926 131.601C272.926 130.803 272.926 130.005 272.926 129.212C271.278 129.212 269.635 129.187 267.987 129.187C267.482 129.187 265.849 129.062 265.662 129.629C265.571 129.91 265.925 130.738 265.981 131.054C266.065 131.542 266.124 132.035 266.157 132.529Z" fill="black"/>
<path d="M269.545 131.807C272.753 131.807 275.353 129.225 275.353 126.041C275.353 122.857 272.753 120.276 269.545 120.276C266.337 120.276 263.736 122.857 263.736 126.041C263.736 129.225 266.337 131.807 269.545 131.807Z" fill="#A0616A"/>
<path d="M280.56 142.765C280.56 142.921 280.529 143.086 280.504 143.267C280.316 144.202 280.04 145.118 279.68 146.002C279.467 146.601 279.21 147.185 278.912 147.748C278.694 148.134 278.406 148.49 278.173 148.867L277.84 149.404C277.627 149.766 277.446 150.145 277.299 150.538C276.324 150.785 275.332 150.965 274.331 151.075C273.353 151.191 272.369 151.25 271.384 151.25C266.102 151.25 260.404 149.89 256.365 147.111C256.365 147.111 256.957 146.704 256.871 146.609C256.871 146.378 256.845 146.152 256.845 145.921C256.839 145.327 256.937 144.736 257.134 144.175C257.306 143.637 257.606 143.149 258.008 142.75C258.514 142.248 259.191 141.937 259.732 141.456C260.423 140.792 260.912 139.949 261.142 139.022C261.269 138.621 261.36 138.194 261.446 137.783C261.523 137.22 261.679 136.671 261.911 136.152C261.943 136.086 261.98 136.022 262.022 135.961C262.099 135.832 262.191 135.713 262.295 135.605C262.811 135.106 263.414 134.705 264.074 134.421C264.625 134.14 265.399 133.919 265.783 134.386V134.421C265.909 134.708 266.015 135.003 266.102 135.304C266.41 135.936 267.269 136.016 267.967 136.001C270.434 135.95 272.896 135.746 275.337 135.389L276.52 135.199C277.375 135.058 277.971 135.801 278.451 136.523C279.695 138.385 280.747 140.527 280.56 142.765Z" fill="#6C63FF"/>
<path opacity="0.1" d="M262.821 143.156C262.28 143.277 261.967 143.819 261.714 144.311C261.235 145.119 261.024 146.056 261.112 146.99C261.098 147.357 261.137 147.723 261.229 148.079C261.322 148.437 261.55 148.746 261.866 148.942" stroke="black" stroke-miterlimit="10"/>
<path d="M277.324 123.496C277.763 121.794 275.3 119.699 271.825 118.817C268.349 117.935 265.176 118.6 264.737 120.302C264.299 122.004 266.761 124.099 270.237 124.981C273.713 125.863 276.886 125.198 277.324 123.496Z" fill="#192534"/>
<path opacity="0.1" d="M270.56 123.773C267.472 122.99 265.187 121.264 265 119.679C264.856 119.857 264.753 120.064 264.696 120.286C264.257 121.987 266.718 124.079 270.191 124.962C273.664 125.845 276.839 125.178 277.269 123.457C277.317 123.267 277.331 123.07 277.309 122.875C276.384 124.139 273.589 124.541 270.56 123.773Z" fill="black"/>
<path d="M280.711 146.855C280.711 147.728 280.711 148.596 280.656 149.459C280.221 149.64 279.776 149.805 279.326 149.961C278.664 150.189 277.989 150.38 277.304 150.533C276.329 150.781 275.337 150.96 274.337 151.07C274.16 148.992 273.761 146.99 273.958 144.883C274.122 143.268 274.681 141.718 275.585 140.367C275.94 139.775 276.448 139.288 277.057 138.957C277.36 138.797 277.704 138.726 278.047 138.753C278.39 138.779 278.718 138.902 278.993 139.107C279.337 139.464 279.578 139.906 279.69 140.387C280.031 141.328 280.305 142.292 280.509 143.272C280.509 143.378 280.545 143.493 280.56 143.603C280.7 144.681 280.751 145.769 280.711 146.855Z" fill="#A0616A"/>
<path d="M295.579 194.623C295.59 198.779 294.547 202.87 292.545 206.52C292.323 206.922 292.09 207.328 291.828 207.73C291.8 207.789 291.764 207.845 291.721 207.895C291.449 208.343 291.153 208.777 290.837 209.195C288.916 211.839 286.485 214.077 283.684 215.778L283.537 215.878C282.617 216.427 281.663 216.918 280.681 217.349C280.408 217.469 280.125 217.584 279.842 217.7C279.559 217.815 279.296 217.921 279.013 218.011C278.871 218.071 278.719 218.121 278.573 218.171C278.556 218.169 278.539 218.169 278.522 218.171C278.214 218.282 277.895 218.377 277.582 218.473L277.344 218.528C277.061 218.613 276.778 218.683 276.495 218.743C275.518 218.992 274.525 219.171 273.523 219.28C272.551 219.397 271.574 219.456 270.596 219.456C270.495 219.456 270.393 219.456 270.292 219.456C268.936 219.452 267.582 219.328 266.248 219.085L266.006 219.045C265.758 219.004 265.5 218.954 265.262 218.894L264.792 218.789C264.294 218.68 263.801 218.546 263.316 218.387C262.328 218.093 261.361 217.736 260.419 217.318L260.313 217.273C258.935 216.653 257.617 215.909 256.375 215.05C256.27 214.989 256.168 214.92 256.072 214.845C252.577 212.372 249.782 209.048 247.954 205.194C246.127 201.339 245.329 197.083 245.637 192.833C245.945 188.584 247.348 184.485 249.713 180.93C252.078 177.375 255.323 174.482 259.139 172.532C262.954 170.581 267.211 169.636 271.5 169.789C275.79 169.943 279.967 171.188 283.631 173.406C287.296 175.624 290.324 178.74 292.425 182.455C294.526 186.17 295.629 190.358 295.629 194.618L295.579 194.623Z" fill="#3F3D56"/>
<path d="M276.606 188.637C276.546 189.995 275.961 191.277 274.972 192.217C273.983 193.156 272.667 193.681 271.298 193.681C269.929 193.681 268.613 193.156 267.624 192.217C266.635 191.277 266.05 189.995 265.99 188.637C265.99 188.552 265.99 188.467 265.99 188.386C265.99 186.989 266.549 185.649 267.545 184.661C268.54 183.673 269.89 183.118 271.298 183.118C272.706 183.118 274.056 183.673 275.052 184.661C276.047 185.649 276.606 186.989 276.606 188.386C276.601 188.467 276.606 188.552 276.606 188.637Z" fill="#192534"/>
<path opacity="0.1" d="M276.606 188.637C276.546 189.995 275.961 191.277 274.972 192.217C273.983 193.156 272.667 193.681 271.298 193.681C269.929 193.681 268.613 193.156 267.624 192.217C266.635 191.277 266.05 189.995 265.99 188.637C265.99 188.552 265.99 188.467 265.99 188.386C267.488 187.17 269.363 186.505 271.298 186.505C273.233 186.505 275.109 187.17 276.606 188.386C276.601 188.467 276.606 188.552 276.606 188.637Z" fill="black"/>
<path d="M271.294 203.62C275.926 203.62 279.68 199.893 279.68 195.296C279.68 190.698 275.926 186.971 271.294 186.971C266.662 186.971 262.907 190.698 262.907 195.296C262.907 199.893 266.662 203.62 271.294 203.62Z" fill="#192534"/>
<path d="M266.213 187.473C266.214 186.196 266.682 184.962 267.53 184.002C268.378 183.041 269.548 182.418 270.824 182.25C270.073 182.149 269.308 182.208 268.583 182.425C267.857 182.641 267.186 183.009 266.615 183.504C266.044 183.999 265.587 184.61 265.273 185.295C264.96 185.98 264.798 186.723 264.798 187.476C264.798 188.228 264.96 188.971 265.273 189.656C265.587 190.341 266.044 190.952 266.615 191.447C267.186 191.942 267.857 192.31 268.583 192.526C269.308 192.743 270.073 192.802 270.824 192.701C269.547 192.532 268.376 191.909 267.528 190.947C266.68 189.986 266.213 188.751 266.213 187.473Z" fill="#192534"/>
<path d="M261.83 198.677C260.866 197.831 260.243 196.667 260.079 195.4C259.914 194.133 260.219 192.849 260.936 191.788C260.757 191.945 260.588 192.113 260.43 192.29C259.949 192.806 259.577 193.412 259.335 194.073C259.094 194.734 258.988 195.437 259.023 196.139C259.059 196.841 259.236 197.529 259.544 198.162C259.852 198.796 260.284 199.362 260.815 199.827C261.347 200.292 261.966 200.647 262.638 200.871C263.309 201.095 264.019 201.183 264.726 201.131C265.432 201.078 266.121 200.886 266.751 200.566C267.382 200.245 267.941 199.803 268.397 199.264C268.552 199.09 268.695 198.905 268.827 198.713C267.854 199.549 266.609 200.006 265.322 199.999C264.035 199.993 262.795 199.523 261.83 198.677Z" fill="#192534"/>
<path d="M266.905 205.853C266.469 205.938 266.046 206.085 265.652 206.289C264.954 206.791 264.979 207.795 265.187 208.613C265.662 210.479 266.824 212.271 268.604 213.033C269.705 213.436 270.88 213.607 272.052 213.535C273.32 213.535 274.756 213.364 275.545 212.371C275.9 211.847 276.142 211.256 276.257 210.635C276.647 209.129 277.041 207.574 276.9 206.018C276.131 206.084 275.272 206.129 274.665 205.647C274.058 205.165 273.922 204.247 273.654 203.485C273.625 203.362 273.556 203.253 273.457 203.173C273.346 203.124 273.223 203.106 273.103 203.123C272.296 203.158 271.488 203.124 270.687 203.023C270.181 202.958 268.958 202.441 268.584 202.877C268.311 203.194 268.483 204.157 268.27 204.603C268.137 204.891 267.948 205.15 267.714 205.364C267.48 205.579 267.205 205.745 266.905 205.853Z" fill="#FFC1C7"/>
<path opacity="0.05" d="M266.905 205.853C266.469 205.938 266.046 206.085 265.652 206.289C264.954 206.791 264.979 207.795 265.187 208.613C265.662 210.479 266.824 212.271 268.604 213.033C269.705 213.436 270.88 213.607 272.052 213.535C273.32 213.535 274.756 213.364 275.545 212.371C275.9 211.847 276.142 211.256 276.257 210.635C276.647 209.129 277.041 207.574 276.9 206.018C276.131 206.084 275.272 206.129 274.665 205.647C274.058 205.165 273.922 204.247 273.654 203.485C273.625 203.362 273.556 203.253 273.457 203.173C273.346 203.124 273.223 203.106 273.103 203.123C272.296 203.158 271.488 203.124 270.687 203.023C270.181 202.958 268.958 202.441 268.584 202.877C268.311 203.194 268.483 204.157 268.27 204.603C268.137 204.891 267.948 205.15 267.714 205.364C267.48 205.579 267.205 205.745 266.905 205.853Z" fill="black"/>
<path d="M271.178 205.135C274.416 205.135 277.042 202.529 277.042 199.315C277.042 196.1 274.416 193.494 271.178 193.494C267.939 193.494 265.313 196.1 265.313 199.315C265.313 202.529 267.939 205.135 271.178 205.135Z" fill="#FFC1C7"/>
<path d="M284.033 211.924C283.992 211.974 283.952 212.035 283.906 212.085L283.659 212.406C282.41 213.891 281.399 215.558 280.661 217.348C280.388 217.469 280.105 217.584 279.822 217.7C279.539 217.815 279.276 217.92 278.993 218.011C278.851 218.071 278.699 218.121 278.553 218.171C278.536 218.169 278.519 218.169 278.502 218.171C278.194 218.282 277.875 218.377 277.562 218.472L277.324 218.528C277.041 218.613 276.758 218.683 276.475 218.743C275.498 218.992 274.505 219.171 273.503 219.28C272.531 219.397 271.554 219.456 270.576 219.456C270.475 219.456 270.374 219.456 270.272 219.456C268.916 219.452 267.562 219.328 266.228 219.085L265.986 219.044C265.738 219.004 265.48 218.954 265.242 218.894L264.772 218.789C264.274 218.68 263.781 218.546 263.296 218.387C263.432 217.546 263.809 216.762 264.383 216.129C263.246 214.779 261.375 214.248 260.167 212.973C260.062 212.852 259.964 212.724 259.874 212.592C259.811 212.496 259.758 212.393 259.717 212.286C259.681 212.201 259.659 212.111 259.651 212.02C259.613 211.835 259.598 211.646 259.606 211.458C259.576 210.033 259.641 208.407 260.753 207.514C261.3 207.134 261.914 206.862 262.563 206.711C263.692 206.36 264.791 205.921 265.849 205.396C265.946 205.62 266.011 205.857 266.041 206.099C266.142 206.681 266.132 207.293 266.269 207.87C266.534 208.899 267.175 209.794 268.068 210.379C268.959 210.958 269.973 211.324 271.031 211.448C272.072 211.598 272.901 211.061 273.882 210.695C274.316 210.557 274.717 210.332 275.06 210.033C275.503 209.525 275.739 208.872 275.722 208.201C275.722 207.539 275.646 206.876 275.687 206.194C275.687 206.125 275.696 206.056 275.712 205.988C275.713 205.814 275.77 205.644 275.873 205.503C275.976 205.362 276.121 205.256 276.288 205.201C276.477 205.185 276.668 205.22 276.839 205.301L278.73 206.018C279.549 206.3 280.338 206.661 281.086 207.097C281.911 207.63 282.605 208.34 283.116 209.176C283.626 210.012 283.939 210.951 284.033 211.924Z" fill="#6C63FF"/>
<path opacity="0.1" d="M266.204 219.089L265.961 219.049C265.713 219.009 265.455 218.959 265.218 218.899L264.748 218.793C264.249 218.685 263.756 218.551 263.271 218.392C262.284 218.098 261.316 217.741 260.375 217.323C259.901 215.795 259.73 214.19 259.869 212.596C259.931 211.913 260.073 211.239 260.294 210.589C261.356 211.593 263.165 211.026 264.368 211.829C264.695 212.058 264.961 212.361 265.147 212.712C265.484 213.355 265.712 214.048 265.824 214.764C265.9 215.155 265.971 215.552 266.032 215.948C266.032 216.019 266.032 216.074 266.032 216.134C266.032 216.194 266.032 216.259 266.032 216.325C266.072 216.606 266.107 216.897 266.123 217.183C266.204 217.83 266.204 218.452 266.204 219.089Z" fill="black"/>
<path d="M265.961 219.049C265.713 219.009 265.455 218.959 265.218 218.899L264.748 218.793C264.249 218.685 263.756 218.551 263.271 218.392C262.284 218.098 261.316 217.741 260.375 217.323L260.269 217.278C259.688 215.59 259.469 213.801 259.627 212.024C259.699 211.383 259.838 210.751 260.041 210.138C261.103 211.141 262.912 210.584 264.116 211.387C264.579 211.718 264.931 212.179 265.127 212.712C265.323 213.227 265.47 213.76 265.567 214.302C265.678 214.889 265.784 215.477 265.855 216.074C265.871 216.156 265.879 216.24 265.88 216.325C265.88 216.38 265.88 216.45 265.88 216.505C265.88 216.56 265.88 216.646 265.88 216.721C265.976 217.489 265.971 218.271 265.961 219.049Z" fill="#6C63FF"/>
<path opacity="0.1" d="M283.518 215.878C282.597 216.427 281.643 216.918 280.662 217.348C280.389 217.469 280.106 217.584 279.822 217.7C279.539 217.815 279.276 217.92 278.993 218.011C278.852 218.071 278.7 218.121 278.554 218.171C278.537 218.169 278.52 218.169 278.503 218.171C278.195 218.282 277.876 218.377 277.563 218.472L277.325 218.527C277.325 218.081 277.325 217.619 277.376 217.168C277.411 216.811 277.452 216.455 277.502 216.099C277.502 216.034 277.502 215.968 277.527 215.903C277.532 215.862 277.532 215.819 277.527 215.778C277.588 215.437 277.654 215.09 277.719 214.749C277.824 214.031 278.054 213.337 278.397 212.697C278.586 212.352 278.855 212.057 279.18 211.834C280.384 211.031 282.214 211.578 283.225 210.594C283.424 211.178 283.561 211.78 283.634 212.391C283.771 213.552 283.732 214.728 283.518 215.878Z" fill="black"/>
<path d="M283.664 215.778L283.518 215.878C282.597 216.427 281.643 216.918 280.661 217.348C280.388 217.469 280.105 217.584 279.822 217.7C279.539 217.815 279.276 217.92 278.993 218.011C278.852 218.071 278.7 218.121 278.553 218.171C278.537 218.169 278.52 218.169 278.503 218.171C278.194 218.282 277.876 218.377 277.563 218.472C277.563 217.88 277.562 217.293 277.613 216.706C277.613 216.555 277.613 216.4 277.653 216.249C277.653 216.184 277.653 216.109 277.653 216.044C277.653 215.978 277.653 215.933 277.653 215.888C277.729 215.346 277.82 214.819 277.932 214.287C278.028 213.745 278.175 213.212 278.371 212.697C278.567 212.165 278.919 211.703 279.382 211.372C280.586 210.569 282.416 211.116 283.427 210.123C283.644 210.753 283.786 211.407 283.851 212.07C283.987 213.308 283.924 214.559 283.664 215.778Z" fill="#6C63FF"/>
<path d="M271.061 198.497C274.948 198.497 278.098 196.412 278.098 193.84C278.098 191.269 274.948 189.184 271.061 189.184C267.175 189.184 264.024 191.269 264.024 193.84C264.024 196.412 267.175 198.497 271.061 198.497Z" fill="#192534"/>
<path opacity="0.05" d="M265.212 218.196C265.212 218.302 265.212 218.412 265.212 218.528C265.212 218.643 265.212 218.748 265.212 218.859C265.21 218.872 265.21 218.886 265.212 218.899L264.742 218.793C264.734 218.705 264.734 218.616 264.742 218.528C264.742 218.062 264.842 217.602 265.036 217.179C265.231 216.755 265.515 216.379 265.869 216.074C265.916 216.025 265.968 215.983 266.026 215.948C266.298 215.73 266.605 215.56 266.936 215.447C267.239 215.33 267.561 215.269 267.886 215.266C267.93 215.261 267.974 215.261 268.018 215.266C268.099 215.261 268.18 215.261 268.261 215.266H268.094C267.32 215.347 266.601 215.703 266.072 216.27C266.013 216.324 265.96 216.384 265.915 216.45C265.51 216.95 265.266 217.558 265.212 218.196Z" fill="black"/>
<path d="M270.359 218.528C270.358 218.842 270.321 219.155 270.248 219.461C268.891 219.457 267.538 219.333 266.204 219.09L265.961 219.049C265.713 219.009 265.455 218.959 265.218 218.899V218.859C265.218 218.748 265.218 218.643 265.218 218.528C265.218 218.412 265.218 218.302 265.218 218.196C265.261 217.523 265.492 216.875 265.885 216.325C265.93 216.256 265.983 216.192 266.042 216.134C266.277 215.842 266.581 215.611 266.926 215.462C267.192 215.336 267.482 215.271 267.776 215.271C267.809 215.266 267.843 215.266 267.877 215.271C267.946 215.266 268.015 215.266 268.084 215.271C269.363 215.487 270.359 216.862 270.359 218.528Z" fill="#6C63FF"/>
<path opacity="0.05" d="M278.992 218.011C278.851 218.071 278.699 218.121 278.553 218.171C278.48 217.453 278.163 216.78 277.653 216.265L277.501 216.114C276.996 215.664 276.364 215.379 275.691 215.296H275.524C275.602 215.291 275.68 215.291 275.757 215.296C275.802 215.291 275.848 215.291 275.893 215.296C276.22 215.304 276.543 215.365 276.849 215.477C277.092 215.56 277.325 215.671 277.541 215.808C277.598 215.836 277.649 215.874 277.693 215.918C278.038 216.165 278.33 216.477 278.553 216.836C278.776 217.195 278.926 217.594 278.992 218.011Z" fill="black"/>
<path d="M278.553 218.171C278.536 218.169 278.519 218.169 278.502 218.171C278.194 218.282 277.875 218.377 277.562 218.472L277.324 218.527C277.041 218.613 276.758 218.683 276.475 218.743C275.498 218.991 274.505 219.171 273.503 219.28C273.451 219.027 273.426 218.77 273.427 218.512C273.427 216.846 274.438 215.472 275.707 215.281C275.774 215.276 275.842 215.276 275.909 215.281C275.941 215.276 275.973 215.276 276.005 215.281C276.302 215.28 276.596 215.345 276.864 215.472C277.116 215.582 277.345 215.737 277.542 215.928C277.597 215.97 277.648 216.017 277.693 216.069C278.2 216.659 278.502 217.397 278.553 218.171Z" fill="#6C63FF"/>
<path opacity="0.1" d="M271.061 198.035C267.29 198.035 264.211 196.078 264.029 193.615C264.029 193.69 264.029 193.765 264.029 193.845C264.029 196.419 267.184 198.502 271.071 198.502C274.959 198.502 278.108 196.419 278.108 193.845C278.108 193.765 278.108 193.69 278.108 193.615C277.906 196.078 274.827 198.035 271.061 198.035Z" fill="black"/>
<path d="M245.517 59.2707C245.508 63.4243 246.551 67.5135 248.55 71.1626C248.777 71.5691 249.01 71.9755 249.268 72.3719C249.297 72.4319 249.334 72.4876 249.379 72.5375C249.657 72.9813 249.959 73.41 250.284 73.822C251.334 75.2718 252.544 76.5998 253.893 77.781C254.144 78.0192 254.407 78.2436 254.682 78.4533C255.548 79.1716 256.467 79.8241 257.432 80.4052L257.583 80.5056C258.504 81.0527 259.456 81.5453 260.435 81.9808L261.279 82.327C261.557 82.4424 261.82 82.5528 262.108 82.6431C262.249 82.6983 262.396 82.7485 262.548 82.7987H262.618C262.925 82.9091 263.239 83.0094 263.559 83.0997L263.791 83.1549C264.074 83.2402 264.363 83.3155 264.646 83.3707C265.03 83.471 265.409 83.5563 265.803 83.6266C266.395 83.742 267.006 83.8423 267.613 83.9126C268.584 84.0278 269.562 84.0848 270.54 84.0832H270.838C272.195 84.0749 273.548 83.949 274.882 83.7069C274.964 83.6988 275.045 83.6854 275.125 83.6667C275.373 83.6266 275.631 83.5764 275.868 83.5162C276.03 83.4861 276.177 83.451 276.338 83.4108C276.844 83.3004 277.349 83.17 277.815 83.0144C278.113 82.9191 278.406 82.8288 278.699 82.7284C279.291 82.5227 279.882 82.3019 280.448 82.051C280.537 82.022 280.623 81.9868 280.706 81.9457L280.817 81.8955C281.565 81.561 282.293 81.188 283.001 80.7765C283.603 80.4353 284.189 80.064 284.755 79.6726H284.791C284.883 79.6193 284.971 79.5589 285.054 79.492C288.552 77.0214 291.352 73.6989 293.183 69.844C295.014 65.989 295.816 61.7313 295.51 57.4801C295.204 53.2289 293.802 49.1273 291.437 45.5697C289.073 42.012 285.826 39.118 282.009 37.1658C278.192 35.2136 273.934 34.269 269.643 34.4227C265.351 34.5763 261.172 35.8232 257.507 38.0434C253.842 40.2636 250.814 43.3823 248.714 47.0999C246.614 50.8174 245.513 55.0087 245.517 59.2707Z" fill="#3F3D56"/>
<path d="M276.106 69.1152C276.475 69.4377 276.732 69.8681 276.839 70.3445C276.111 70.5352 275.368 70.179 274.691 69.8428C272.587 68.8635 270.367 68.1537 268.083 67.7303C267.901 67.7135 267.726 67.6476 267.578 67.5397C267.463 67.386 267.404 67.1987 267.41 67.0076C267.415 66.8165 267.485 66.6328 267.608 66.4859C267.861 66.225 268.336 66.2601 268.68 66.2451C270.05 66.1755 271.42 66.3934 272.699 66.8844C273.979 67.3755 275.14 68.1288 276.106 69.0951V69.1152Z" fill="#6C63FF"/>
<path d="M268.711 67.1181C268.559 67.494 268.333 67.8357 268.046 68.1228C267.758 68.4099 267.415 68.6365 267.038 68.789C266.628 68.9345 266.188 68.9596 265.774 69.075C265.562 69.119 265.363 69.2111 265.192 69.3444C265.022 69.4776 264.885 69.6482 264.793 69.8428C264.737 70.0179 264.712 70.2011 264.717 70.3847C264.651 72.1158 264.601 73.8971 265.299 75.5027C265.9 76.8776 267.002 77.9614 268.094 78.99C269.368 80.1993 270.718 81.4236 272.396 81.9655C273.377 82.2817 274.534 82.3168 275.348 81.6896C275.668 81.4145 275.945 81.0951 276.172 80.7412C276.74 80.0032 277.215 79.1995 277.588 78.3478C278.28 76.5815 278.048 74.6046 277.805 72.7229C277.804 72.6111 277.76 72.5038 277.684 72.4219C277.578 72.3566 277.451 72.335 277.33 72.3616C276.896 72.4054 276.459 72.3127 276.08 72.0967C275.702 71.8806 275.402 71.552 275.222 71.1574C275.117 70.7992 275.078 70.4254 275.106 70.0535L275.141 67.9059C275.158 67.6754 275.131 67.4438 275.06 67.2235C274.861 66.8656 274.541 66.5898 274.155 66.4458C272.974 65.8587 271.742 65.3768 270.475 65.0057C269.919 64.8451 269.494 64.5742 269.247 65.1663C268.999 65.7583 268.999 66.496 268.711 67.1181Z" fill="#FBBEBE"/>
<path opacity="0.1" d="M268.711 67.1181C268.559 67.494 268.333 67.8357 268.046 68.1228C267.758 68.4099 267.415 68.6365 267.038 68.789C266.628 68.9345 266.188 68.9596 265.774 69.075C265.562 69.119 265.363 69.2111 265.192 69.3444C265.022 69.4776 264.885 69.6482 264.793 69.8428C264.737 70.0179 264.712 70.2011 264.717 70.3847C264.651 72.1158 264.601 73.8971 265.299 75.5027C265.9 76.8776 267.002 77.9614 268.094 78.99C269.368 80.1993 270.718 81.4236 272.396 81.9655C273.377 82.2817 274.534 82.3168 275.348 81.6896C275.668 81.4145 275.945 81.0951 276.172 80.7412C276.74 80.0032 277.215 79.1995 277.588 78.3478C278.28 76.5815 278.048 74.6046 277.805 72.7229C277.804 72.6111 277.76 72.5038 277.684 72.4219C277.578 72.3566 277.451 72.335 277.33 72.3616C276.896 72.4054 276.459 72.3127 276.08 72.0967C275.702 71.8806 275.402 71.552 275.222 71.1574C275.117 70.7992 275.078 70.4254 275.106 70.0535L275.141 67.9059C275.158 67.6754 275.131 67.4438 275.06 67.2235C274.861 66.8656 274.541 66.5898 274.155 66.4458C272.974 65.8587 271.742 65.3768 270.475 65.0057C269.919 64.8451 269.494 64.5742 269.247 65.1663C268.999 65.7583 268.999 66.496 268.711 67.1181Z" fill="black"/>
<path d="M274.564 68.8594C278.21 68.8594 281.166 65.9255 281.166 62.3063C281.166 58.6871 278.21 55.7532 274.564 55.7532C270.918 55.7532 267.962 58.6871 267.962 62.3063C267.962 65.9255 270.918 68.8594 274.564 68.8594Z" fill="#FBBEBE"/>
<path d="M265.793 83.6567C266.385 83.7721 266.996 83.8725 267.603 83.9427C268.574 84.0579 269.552 84.1149 270.53 84.1133H270.828C272.185 84.105 273.538 83.9791 274.872 83.737C274.954 83.7289 275.035 83.7155 275.115 83.6969C275.363 83.6567 275.621 83.6065 275.858 83.5463C276.02 83.5162 276.167 83.4811 276.328 83.441C276.834 83.3306 277.339 83.2001 277.804 83.0446C278.103 82.9492 278.396 82.8589 278.689 82.7586C279.281 82.5528 279.872 82.332 280.438 82.0812C280.293 81.6351 280.173 81.1811 280.079 80.7214C279.916 79.74 279.852 78.7449 279.887 77.7509C279.887 76.9531 279.923 76.1603 279.887 75.3675C279.9 74.7244 279.806 74.0836 279.609 73.4708C279.509 73.1646 279.348 72.8814 279.136 72.6376C278.925 72.3938 278.666 72.1943 278.376 72.0508C277.622 71.7196 276.49 71.549 275.747 71.9203C275.662 71.9656 275.581 72.0176 275.504 72.0759C275.343 72.2102 275.217 72.3827 275.14 72.5776C274.898 73.1798 274.635 73.7869 274.402 74.389C274.252 74.8085 274.054 75.2093 273.811 75.5832C273.444 76.0751 272.932 76.442 272.347 76.6334C271.761 76.8248 271.13 76.8313 270.54 76.652C270.466 76.628 270.393 76.5995 270.323 76.5667C269.312 76.1603 268.387 75.2822 267.33 75.518C267.038 75.5952 266.767 75.7374 266.539 75.9339C266.31 76.1304 266.129 76.376 266.011 76.652C265.996 76.6809 265.984 76.7112 265.975 76.7423C265.763 77.2671 265.64 77.8233 265.611 78.3881C265.458 80.1452 265.52 81.9142 265.793 83.6567Z" fill="#F2F2F2"/>
<path d="M253.894 77.796C254.144 78.0342 254.407 78.2587 254.682 78.4684C255.548 79.1867 256.467 79.8391 257.432 80.4203L257.584 80.5206C258.504 81.0678 259.456 81.5604 260.435 81.9958L261.279 82.3421C261.557 82.4575 261.82 82.5679 262.108 82.6582C262.25 82.7134 262.396 82.7636 262.548 82.8137H262.619C262.926 82.9241 263.239 83.0245 263.559 83.1148L263.792 83.17C264.075 83.2553 264.363 83.3305 264.646 83.3857C265.03 83.4861 265.409 83.5714 265.804 83.6417C266.395 83.7571 267.007 83.8574 267.613 83.9277C268.585 84.0429 269.562 84.0998 270.54 84.0983H270.839C272.195 84.09 273.548 83.964 274.883 83.7219C274.965 83.7139 275.046 83.7004 275.126 83.6818C275.373 83.6416 275.631 83.5915 275.869 83.5313C276.03 83.5012 276.177 83.466 276.339 83.4259C276.844 83.3155 277.35 83.185 277.815 83.0295C278.113 82.9342 278.406 82.8438 278.7 82.7435C279.291 82.5378 279.882 82.317 280.449 82.0661C280.537 82.0371 280.623 82.0019 280.706 81.9607L280.818 81.9105C281.566 81.576 282.294 81.2031 283.002 80.7916C283.498 79.478 283.92 78.1379 284.265 76.7774C284.263 76.7507 284.263 76.7239 284.265 76.6972C283.477 75.3072 282.779 73.8621 281.996 72.4722C281.773 71.9489 281.415 71.4933 280.957 71.1515C280.5 70.8096 279.96 70.5936 279.392 70.5254C278.844 70.346 278.275 70.2414 277.699 70.2143C277.371 70.184 277.047 70.1286 276.728 70.0487C276.071 69.9032 275.343 69.7627 275.1 70.0487C275.09 70.0562 275.081 70.066 275.075 70.0773C275.069 70.0886 275.065 70.1011 275.065 70.1139C274.974 70.4509 275.015 70.8097 275.181 71.1174C275.292 71.4336 275.439 71.7647 275.515 72.0357C275.56 72.165 275.586 72.3003 275.591 72.4371C275.609 73.0249 275.588 73.6132 275.53 74.1983C275.388 75.0513 274.913 75.804 274.691 76.6319C274.59 77.0233 274.539 77.4297 274.473 77.8261C274.333 78.7214 274.097 79.5993 273.771 80.4454C273.712 80.6251 273.625 80.7944 273.513 80.9471C273.098 81.4489 272.411 81.2582 271.759 81.1629C271.284 80.7615 271.309 80.049 271.253 79.4468C271.114 78.4354 270.803 77.4548 270.333 76.5466L270.161 76.1853C269.656 75.1467 269.15 74.113 268.675 73.0693C268.063 71.7748 267.431 70.2945 267.937 68.9548C268.084 68.5534 268.321 68.1971 268.483 67.8108C268.509 67.754 268.531 67.6953 268.549 67.6352C268.595 67.4872 268.621 67.3335 268.624 67.1786C268.642 67.04 268.631 66.8992 268.591 66.7653C268.551 66.6314 268.483 66.5072 268.392 66.4008C268.365 66.3599 268.331 66.3242 268.291 66.2954C268.274 66.2777 268.253 66.2639 268.23 66.2553C268.064 66.1603 267.877 66.1062 267.685 66.0974C267.494 66.0887 267.303 66.1256 267.128 66.2051C266.929 66.2771 266.734 66.3626 266.547 66.461C265.554 67.016 264.597 67.631 263.68 68.3025C263.411 68.461 263.202 68.7024 263.084 68.9899C263.063 69.1806 263.031 69.3699 262.988 69.5569C262.846 69.9132 262.417 70.0186 262.048 70.0989C260.522 70.4486 259.083 71.1039 257.821 72.0245C256.559 72.945 255.5 74.1116 254.707 75.4528C254.439 75.884 254.229 76.3478 254.081 76.8326C253.991 77.1479 253.928 77.4702 253.894 77.796Z" fill="#6C63FF"/>
<path d="M277.471 58.6082C276.576 59.5164 275.145 59.5515 273.866 59.5314L273.907 59.0297L272.112 59.6669C272.579 59.3237 272.978 58.8985 273.29 58.4125C273.165 58.3203 273.016 58.266 272.861 58.2562C272.706 58.2464 272.551 58.2815 272.416 58.3573C272.146 58.5125 271.922 58.7337 271.763 58.9996C271.254 59.7574 270.929 60.6229 270.816 61.5271C270.703 62.4314 270.804 63.3494 271.111 64.2079C270.929 64.2971 270.726 64.3371 270.522 64.3239C270.319 64.3107 270.123 64.2447 269.954 64.1327C269.617 63.9033 269.358 63.5779 269.211 63.1994C269.104 62.9585 268.993 62.6976 268.74 62.6023C268.631 62.5758 268.517 62.586 268.414 62.6314C268.311 62.6769 268.227 62.7549 268.174 62.8532C268.068 63.0479 268.026 63.2706 268.053 63.4904C268.088 63.9922 268.467 64.494 268.558 64.9957C268.649 65.4975 269.398 65.8989 269.003 66.2351C268.541 66.4077 268.059 66.5207 267.568 66.5713C267.47 66.5423 267.382 66.4901 267.309 66.4193C267.237 66.3484 267.183 66.261 267.153 66.1648C266.754 65.2918 266.895 64.2732 266.648 63.3449C266.418 62.6081 266.066 61.9145 265.606 61.2927C265.495 61.1027 265.363 60.9259 265.212 60.7658C265.053 60.6504 264.922 60.5012 264.828 60.3293C264.762 60.1486 264.888 59.8827 265.08 59.9178C264.767 59.6162 264.429 59.341 264.069 59.0949C264.423 58.6534 264.767 58.2018 265.08 57.7502C265.197 57.5896 265.318 57.3939 265.232 57.2183C265.183 57.1364 265.114 57.0689 265.03 57.0226L264.135 56.4205C264.135 55.999 264.979 56.1545 265.111 55.7581C265.143 55.6536 265.143 55.5416 265.111 55.437L264.797 54.303L265.99 54.8399C266.128 54.9187 266.287 54.9553 266.445 54.9453C266.759 54.9001 266.91 54.5338 266.951 54.2177C266.918 53.9015 266.96 53.5821 267.072 53.2844C267.613 53.2844 268.154 53.2844 268.69 53.2844C268.725 53.0161 268.654 52.7446 268.493 52.5267L272.476 52.306C273.153 52.2294 273.839 52.277 274.498 52.4465C274.709 52.5449 274.938 52.5963 275.171 52.597C275.398 52.597 275.631 52.3612 275.565 52.1404C276.162 52.475 276.709 52.8924 277.188 53.3798C277.315 53.5333 277.471 53.6611 277.648 53.7561C277.737 53.8019 277.838 53.8201 277.938 53.8085C278.038 53.7969 278.133 53.7559 278.209 53.6908C278.32 53.5754 278.371 53.3697 278.532 53.3597C278.694 53.3496 278.714 53.44 278.775 53.5152C279.003 53.8057 279.188 54.1267 279.326 54.4686C279.612 54.43 279.893 54.3558 280.16 54.2478C280.035 54.38 279.954 54.5469 279.927 54.7261C279.9 54.9054 279.928 55.0886 280.009 55.2513C280.14 55.5875 280.383 55.8735 280.544 56.1947C280.704 56.5419 280.811 56.9105 280.863 57.2885C280.944 57.7602 280.944 58.3573 280.524 58.5881C280.325 58.6562 280.111 58.6679 279.905 58.6218C279.7 58.5757 279.512 58.4737 279.361 58.3272C278.396 57.6448 278.219 57.8455 277.471 58.6082Z" fill="#192534"/>
<path d="M254.683 78.4683C255.549 79.1865 256.468 79.839 257.433 80.4201L257.584 80.5205C258.505 81.0676 259.457 81.5602 260.435 81.9957L261.28 82.3419C261.558 82.4573 261.821 82.5677 262.109 82.658C262.25 82.7132 262.397 82.7634 262.549 82.8136C262.372 82.3118 262.255 81.8101 262.099 81.3083C261.681 79.9679 260.936 78.7509 259.93 77.7658C259.06 76.9027 257.675 75.6433 256.391 76.406C256 76.6678 255.658 76.9955 255.38 77.3744C255.134 77.6536 254.923 77.962 254.753 78.2926C254.728 78.3378 254.708 78.398 254.683 78.4683Z" fill="#6C63FF"/>
<path d="M278.72 82.7534C279.311 82.5477 279.903 82.3269 280.469 82.076C280.557 82.047 280.643 82.0118 280.727 81.9707L280.838 81.9205C281.586 81.586 282.314 81.213 283.022 80.8015C283.623 80.4603 284.21 80.089 284.776 79.6976H284.811C284.766 79.1382 284.766 78.5761 284.811 78.0167C284.84 77.829 284.828 77.6373 284.776 77.4547C284.706 77.3101 284.61 77.1793 284.493 77.0684C284.418 76.9945 284.349 76.9157 284.286 76.8325C283.714 76.1953 283.249 75.5079 282.263 75.6082C281.278 75.7086 280.428 76.5515 280.014 77.4898C279.969 77.5801 279.931 77.6741 279.903 77.7708C279.621 78.6425 279.401 79.5329 279.245 80.4352C279.114 80.9922 278.947 81.5291 278.826 82.0861C278.796 82.2918 278.75 82.5226 278.72 82.7534Z" fill="#6C63FF"/>
<path d="M164.765 230.59L164.543 230.71L164.765 230.59Z" fill="url(#paint0_linear)"/>
<path d="M133.711 203.489C131.76 209.069 134.039 218.126 135.096 222.165C135.796 225.088 136.26 228.061 136.481 231.057C138.859 231.458 141.292 231.404 143.649 230.896L141.941 222.572C143.159 217.639 141.941 204.463 141.941 204.463C141.941 204.463 144.706 199.37 144.974 191.608C145.212 183.971 147.107 181.502 147.168 181.422C151.076 183.429 156.045 205.11 156.045 205.11C155.635 210.364 156.126 218.447 157.754 222.813C158.741 225.586 159.157 228.527 158.977 231.463C159.293 231.689 159.655 231.843 160.037 231.916C160.42 231.989 160.813 231.978 161.191 231.885C163.516 231.513 166.307 229.521 166.307 229.521C166.307 229.521 165.412 205.938 164.76 205.03C164.108 204.122 164.76 199.049 164.76 199.049L163.698 190.8C163.698 190.8 163.86 176.815 162.313 174.392C160.979 172.294 160.67 168.616 160.61 167.648C160.61 167.497 160.61 167.412 160.61 167.412L158.254 164.607C158.254 164.607 135.45 162.911 133.736 164.607C133.317 165.024 133.059 165.972 132.902 167.166C132.432 170.834 132.973 176.815 132.973 176.815C132.973 176.815 133.655 181.261 134.636 185.787C135.222 188.506 135.222 191.317 134.636 194.036C134.948 197.217 134.633 200.428 133.711 203.489Z" fill="#575A89"/>
<path d="M135.117 238.939C136.128 240.274 142.123 239.707 143.139 239.291C143.761 239.04 143.716 237.876 143.549 236.681C143.443 235.919 143.286 235.141 143.22 234.574C143.058 233.119 143.726 230.168 143.726 230.168C143.726 230.168 142.381 231.583 142.057 230.168C141.982 229.899 141.833 229.654 141.629 229.462C141.424 229.269 141.17 229.135 140.895 229.075C140.197 228.865 139.447 228.911 138.782 229.205C137.72 229.657 135.956 230.63 136.254 231.945C136.699 233.801 135.112 236.461 135.112 236.461C134.824 236.817 134.668 237.259 134.668 237.715C134.668 238.171 134.824 238.614 135.112 238.97L135.117 238.939Z" fill="#CBCEDA"/>
<path opacity="0.1" d="M135.116 238.94C136.127 240.274 142.122 239.707 143.139 239.291C143.76 239.04 143.715 237.876 143.548 236.682C142.906 236.978 141.809 237.229 140.009 237.058C139.584 237.02 139.157 237.006 138.73 237.018C137.434 237.079 136.136 237.054 134.843 236.943C134.698 237.268 134.647 237.627 134.695 237.979C134.744 238.332 134.889 238.664 135.116 238.94Z" fill="black"/>
<path opacity="0.1" d="M156.01 205.11C155.6 210.364 156.091 218.447 157.718 222.813C158.706 225.586 159.122 228.528 158.942 231.463C159.258 231.689 159.62 231.843 160.002 231.916C160.385 231.989 160.778 231.978 161.156 231.885C160.65 228.478 158.573 213.786 157.228 202.18C156.255 194.142 153.275 186.472 148.558 179.866L147.133 181.422C151.041 183.444 156.01 205.11 156.01 205.11Z" fill="black"/>
<path d="M137.562 120.145L138.574 124.997L143.447 133.121L149.452 130.577C149.452 130.577 157.617 122.087 152.486 120.873C151.87 120.745 151.29 120.488 150.782 120.12C150.342 119.773 149.992 119.326 149.761 118.817C149.53 118.308 149.424 117.752 149.452 117.195C149.492 115.992 149.776 114.809 150.286 113.718L139.777 110.451C140.207 111.822 140.46 113.242 140.53 114.676C140.611 117.516 139.544 118.916 138.675 119.583C138.345 119.842 137.967 120.033 137.562 120.145Z" fill="#FBBEBE"/>
<path opacity="0.1" d="M139.776 110.451C140.206 111.822 140.459 113.242 140.53 114.676C140.719 114.903 140.923 115.118 141.141 115.318C142.678 116.781 144.724 117.599 146.854 117.601C147.726 117.603 148.593 117.466 149.422 117.195C149.461 115.992 149.745 114.809 150.256 113.718L139.776 110.451Z" fill="black"/>
<path d="M138.554 109.111C138.553 110.744 139.04 112.339 139.953 113.697C140.866 115.054 142.164 116.112 143.683 116.737C145.202 117.362 146.874 117.525 148.487 117.207C150.099 116.888 151.581 116.102 152.743 114.948C153.905 113.793 154.697 112.322 155.017 110.721C155.337 109.12 155.171 107.461 154.54 105.954C153.91 104.446 152.843 103.158 151.475 102.253C150.107 101.348 148.499 100.865 146.855 100.867C145.763 100.863 144.681 101.073 143.671 101.485C142.662 101.898 141.745 102.505 140.973 103.272C140.201 104.038 139.59 104.949 139.175 105.951C138.759 106.954 138.548 108.028 138.554 109.111Z" fill="#FBBEBE"/>
<path opacity="0.1" d="M137.562 120.145L138.574 124.997L143.447 133.121L149.452 130.577C149.452 130.577 157.617 122.087 152.486 120.873C151.87 120.745 151.29 120.488 150.782 120.12C151.707 122.629 147.885 127.908 147.885 127.908C147.44 128.555 146.419 128.149 146.419 128.149C143.952 127.777 139.418 120.747 138.68 119.578C138.349 119.839 137.969 120.032 137.562 120.145Z" fill="black"/>
<path opacity="0.1" d="M132.856 167.151C134.302 167.477 142.305 169.239 145.338 168.797C148.679 168.295 155.17 167.989 155.17 167.989C155.17 167.989 159.305 168.21 160.574 167.633C160.574 167.482 160.574 167.397 160.574 167.397L158.219 164.592C158.219 164.592 135.414 162.896 133.701 164.592C133.271 165.024 133.013 165.972 132.856 167.151Z" fill="black"/>
<path d="M147.866 128.149C147.866 128.149 152.163 122.243 150.54 119.94L157.799 122.895C157.799 122.895 162.167 122.368 163.744 128.841C163.996 129.918 164.088 131.025 164.017 132.128C163.974 133.841 164.385 135.535 165.21 137.04C167.005 140.598 166.595 148.761 162.93 149.584C159.265 150.407 157.961 149.986 157.961 149.986C157.961 149.986 158.466 164.778 160.569 166.479C162.672 168.18 155.17 167.774 155.17 167.774C155.17 167.774 148.679 168.095 145.338 168.581C141.996 169.068 132.634 166.88 132.634 166.88C132.634 166.88 134.019 160.658 134.505 156.694C134.99 152.73 136.137 144.301 136.137 144.301L127.827 133.131C127.827 133.131 126.361 126.383 131.492 123.392C136.623 120.401 138.569 119.664 138.569 119.664C138.569 119.664 143.725 127.998 146.415 128.405C146.4 128.395 147.421 128.801 147.866 128.149Z" fill="white"/>
<path opacity="0.1" d="M157.394 130.492C157.394 130.492 157.475 133.161 156.985 134.215C156.495 135.269 154.705 141.084 154.705 141.084H158.775C158.775 141.084 156.576 138.741 156.752 137.607C156.929 136.473 157.394 130.492 157.394 130.492Z" fill="black"/>
<path d="M145.337 150.623C145.337 150.623 154.331 148.44 155.17 146.579C156.009 144.717 158.319 140.557 158.319 140.557L157.369 139.288L152.996 142.695C152.996 142.695 147.784 146.819 145.337 147.211C142.891 147.602 145.337 150.623 145.337 150.623Z" fill="#FBBEBE"/>
<path opacity="0.05" d="M145.337 150.623C145.337 150.623 154.331 148.44 155.17 146.579C156.009 144.717 158.319 140.557 158.319 140.557L157.369 139.288L152.996 142.695C152.996 142.695 147.784 146.819 145.337 147.211C142.891 147.602 145.337 150.623 145.337 150.623Z" fill="black"/>
<path d="M137.562 140.116V144.958H138.346C142.22 144.958 146.03 145.937 149.417 147.803L150.888 148.611L151.282 148.831L153.81 143.187L151.449 141.084H151.328C150.747 141.139 148.249 141.35 147.193 140.994C146.136 140.638 144.938 139.579 141.971 140.332C140.515 140.703 139.266 142.339 137.851 141.837L137.562 140.116Z" fill="#FBBEBE"/>
<path opacity="0.1" d="M129.702 131.305L128.074 133.121V137.547C128.074 137.547 129.459 151.451 133.857 152.986C138.255 154.522 146.106 152.098 146.106 152.098C146.106 152.098 148.128 146.764 147.183 146.438C146.238 146.112 138.801 144.165 138.801 144.165C138.801 144.165 138.903 136.011 137.285 133.588C137.285 133.588 138.346 125.986 134.681 125.825C131.016 125.665 129.702 131.305 129.702 131.305Z" fill="black"/>
<path d="M129.459 131.305L127.826 133.121V137.547C127.826 137.547 129.211 151.451 133.609 152.986C138.007 154.522 145.843 152.098 145.843 152.098C145.843 152.098 147.865 146.764 146.925 146.438C145.985 146.112 138.538 144.165 138.538 144.165C138.538 144.165 138.644 136.011 137.022 133.588C137.022 133.588 138.078 125.986 134.413 125.825C130.748 125.665 129.459 131.305 129.459 131.305Z" fill="white"/>
<path opacity="0.1" d="M140.834 112.614C140.762 112.083 140.827 111.543 141.021 111.043C141.124 110.797 141.305 110.591 141.537 110.457C141.769 110.323 142.038 110.268 142.305 110.301C143.002 110.461 143.316 111.364 143.988 111.58C144.284 111.639 144.592 111.596 144.86 111.458C145.128 111.321 145.342 111.096 145.464 110.822C145.698 110.266 145.795 109.662 145.747 109.061C145.747 108.389 145.747 107.711 145.747 107.054C145.747 106.397 145.773 105.524 146.228 104.947C146.799 104.229 148.133 103.913 149.023 103.943C149.616 103.948 150.185 104.175 150.616 104.58C150.833 104.797 151.097 104.962 151.387 105.065C151.678 105.167 151.987 105.204 152.294 105.172C152.565 105.132 152.818 105.016 153.026 104.838C153.233 104.661 153.386 104.429 153.467 104.169C153.464 104.161 153.464 104.152 153.467 104.144C152.774 103.238 151.899 102.483 150.898 101.929C149.897 101.375 148.792 101.032 147.651 100.922C146.51 100.813 145.359 100.938 144.269 101.292C143.18 101.646 142.176 102.219 141.321 102.977C140.465 103.734 139.777 104.659 139.3 105.694C138.822 106.728 138.566 107.849 138.546 108.987C138.527 110.124 138.744 111.254 139.186 112.304C139.627 113.353 140.283 114.301 141.112 115.087C140.97 114.269 140.877 113.443 140.834 112.614Z" fill="black"/>
<path d="M152.303 104.932C152.574 104.89 152.827 104.774 153.034 104.596C153.242 104.419 153.395 104.188 153.476 103.928C153.542 103.667 153.527 103.386 153.603 103.13C153.795 102.493 154.477 102.162 154.932 101.68C155.852 100.712 155.792 99.1213 155.139 97.9622C154.634 97.0239 153.623 96.2362 152.536 96.4168C151.879 96.5322 151.308 96.9988 150.64 97.039C149.997 96.9945 149.374 96.7947 148.825 96.4569C147.413 95.8217 145.825 95.682 144.321 96.0605C143.859 96.1519 143.431 96.3671 143.083 96.6827C142.847 96.9764 142.627 97.283 142.426 97.601C141.662 98.5644 140.302 98.75 139.094 98.9658C137.886 99.1815 136.516 99.6582 136.117 100.817C135.854 101.58 136.117 102.413 136.258 103.211C136.312 103.376 136.301 103.555 136.228 103.713C136.041 104.024 135.566 103.893 135.217 103.968C134.534 104.109 134.357 104.972 134.332 105.684C134.302 106.482 134.282 107.28 134.266 108.078C134.223 108.449 134.27 108.824 134.403 109.173C134.536 109.522 134.751 109.835 135.03 110.085L137.719 113.291C138.912 114.716 140.176 116.372 139.938 118.209C140.5 118.46 141.172 117.973 141.359 117.386C141.485 116.781 141.454 116.154 141.268 115.564C141.05 114.524 140.908 113.469 140.843 112.408C140.772 111.877 140.836 111.337 141.03 110.838C141.133 110.59 141.315 110.383 141.548 110.249C141.781 110.115 142.052 110.061 142.319 110.095C143.017 110.256 143.33 111.154 144.003 111.375C144.299 111.433 144.606 111.389 144.874 111.252C145.142 111.114 145.355 110.89 145.479 110.617C145.713 110.06 145.81 109.457 145.762 108.856V106.849C145.762 106.116 145.787 105.343 146.242 104.741C146.814 104.024 148.148 103.713 149.038 103.738C149.63 103.747 150.197 103.974 150.63 104.375C150.85 104.585 151.114 104.744 151.404 104.84C151.693 104.937 152 104.968 152.303 104.932Z" fill="#3F3D56"/>
<path opacity="0.1" d="M150.428 130.291L147.901 140.693C147.901 140.693 145.868 140.678 150.428 130.291Z" fill="black"/>
<path opacity="0.1" d="M141.713 128.555C141.713 128.555 145.054 133.984 143.735 139.594L143.113 139.639C143.113 139.639 144.24 137.045 141.713 128.555Z" fill="black"/>
<path opacity="0.1" d="M139.595 159.273C139.595 159.273 135.496 157.929 135.197 161.05C135.197 161.05 135.971 158.907 139.595 159.273Z" fill="black"/>
<path opacity="0.1" d="M151.45 141.325C151.45 141.325 152.264 146.985 150.798 149.248C153.098 150.056 155.542 150.386 157.976 150.217L158.482 141.325H151.45Z" fill="black"/>
<path opacity="0.1" d="M150.898 148.611L151.293 148.832L153.82 143.187L151.46 141.084H151.333C151.364 141.355 152.021 146.217 150.898 148.611Z" fill="black"/>
<path d="M151.45 141.084C151.45 141.084 152.264 146.744 150.798 149.007C153.099 149.812 155.542 150.141 157.976 149.976L160.827 141.084H151.45Z" fill="white"/>
<path d="M158.482 235.497C158.529 235.901 158.71 236.277 158.996 236.567C159.283 236.857 159.658 237.044 160.064 237.098C162.273 237.429 167.601 238.262 168.946 238.899C170.66 239.707 177.419 239.14 177.742 238.332C177.788 238.171 177.801 238.003 177.781 237.836C177.761 237.67 177.709 237.51 177.626 237.364C177.396 236.869 177.013 236.46 176.534 236.195C176.372 236.109 176.203 236.037 176.028 235.979C174.754 235.557 172.353 234.664 171.701 233.726C171.701 233.726 168.703 231.122 167.849 229.712C167.688 229.435 167.461 229.202 167.188 229.033C166.914 228.864 166.603 228.764 166.282 228.743C165.569 228.713 164.765 229.07 164.452 230.62C164.452 230.62 160.544 232.833 159.488 230.891C159.488 230.891 159.321 233.871 158.674 234.689C158.505 234.923 158.436 235.213 158.482 235.497Z" fill="#CBCEDA"/>
<path opacity="0.1" d="M158.481 235.497C158.528 235.901 158.709 236.277 158.996 236.567C159.282 236.857 159.658 237.044 160.064 237.098C162.273 237.429 167.601 238.262 168.946 238.899C170.659 239.707 177.418 239.14 177.742 238.332C177.788 238.171 177.801 238.003 177.781 237.837C177.761 237.67 177.708 237.51 177.626 237.364C177.395 236.869 177.013 236.46 176.534 236.195C175.432 236.922 172.995 237.635 167.606 236.797C162.47 236.004 159.927 235.221 158.689 234.695C158.516 234.925 158.441 235.213 158.481 235.497Z" fill="black"/>
<path opacity="0.1" d="M136.269 103.306C136.269 103.306 136.269 103.281 136.269 103.271C136.113 102.671 136.03 102.054 136.021 101.435C136.061 101.936 136.133 102.433 136.239 102.925C136.276 103.048 136.286 103.178 136.269 103.306Z" fill="black"/>
<path opacity="0.1" d="M141.02 110.873C140.892 111.166 140.824 111.482 140.818 111.801C140.782 111.361 140.851 110.92 141.02 110.512C141.123 110.265 141.305 110.058 141.538 109.924C141.771 109.79 142.042 109.735 142.309 109.769C143.007 109.93 143.32 110.833 143.993 111.048C144.289 111.107 144.596 111.064 144.865 110.927C145.133 110.789 145.346 110.565 145.469 110.291C145.703 109.734 145.8 109.131 145.752 108.53C145.752 107.857 145.752 107.18 145.752 106.522C145.752 105.865 145.777 104.992 146.232 104.415C146.803 103.698 148.138 103.381 149.028 103.411C149.621 103.416 150.19 103.644 150.62 104.049C150.838 104.265 151.101 104.43 151.392 104.533C151.682 104.635 151.992 104.672 152.298 104.641C152.569 104.601 152.823 104.485 153.031 104.307C153.238 104.13 153.391 103.897 153.471 103.637C153.537 103.376 153.522 103.095 153.597 102.839C153.79 102.202 154.472 101.871 154.927 101.389C155.357 100.922 155.601 100.316 155.615 99.6833C155.649 100.057 155.606 100.434 155.488 100.79C155.369 101.147 155.179 101.475 154.927 101.756C154.472 102.257 153.79 102.569 153.597 103.201C153.522 103.462 153.537 103.738 153.471 103.999C153.391 104.258 153.238 104.49 153.03 104.668C152.823 104.845 152.569 104.961 152.298 105.002C151.991 105.034 151.681 104.997 151.391 104.893C151.1 104.79 150.837 104.623 150.62 104.405C150.188 104.002 149.62 103.775 149.028 103.768C148.138 103.738 146.803 104.054 146.232 104.771C145.777 105.348 145.757 106.146 145.752 106.879C145.747 107.611 145.752 108.228 145.752 108.886C145.799 109.485 145.702 110.087 145.469 110.642C145.347 110.917 145.135 111.143 144.866 111.28C144.597 111.418 144.289 111.461 143.993 111.4C143.31 111.184 143.007 110.286 142.309 110.125C142.041 110.09 141.769 110.145 141.536 110.28C141.302 110.415 141.121 110.624 141.02 110.873Z" fill="black"/>
<path opacity="0.1" d="M134.327 108.65C134.477 109.065 134.713 109.445 135.02 109.764L137.709 112.97C138.842 114.32 140.04 115.881 139.949 117.607C139.868 116.026 138.761 114.596 137.709 113.332L135.02 110.125C134.741 109.875 134.526 109.563 134.393 109.214C134.261 108.864 134.214 108.489 134.257 108.118C134.257 108.298 134.28 108.477 134.327 108.65Z" fill="black"/>
<path opacity="0.1" d="M141.349 117.065C141.394 116.923 141.421 116.776 141.43 116.628C141.452 116.897 141.424 117.167 141.349 117.426C141.162 118.013 140.495 118.5 139.929 118.244C139.945 118.127 139.953 118.01 139.954 117.893C140.25 117.964 140.562 117.917 140.823 117.763C141.084 117.608 141.273 117.357 141.349 117.065Z" fill="black"/>
<path opacity="0.1" d="M168.41 230.45C168.41 230.45 167.56 231.955 164.477 230.625L168.41 230.45Z" fill="black"/>
<path opacity="0.1" d="M142.33 230.806C142.33 230.806 139.671 233.917 136.319 231.809L142.33 230.806Z" fill="black"/>
<path opacity="0.1" d="M134.59 194.036C134.59 194.036 136.465 195.2 136.531 195.868C136.597 196.535 135.56 195.366 135.56 195.366L134.59 194.036Z" fill="black"/>
<path opacity="0.1" d="M133.847 202.973C134.5 203.514 135.312 203.829 136.162 203.871C137.567 203.931 137.451 205.747 136.531 205.206C135.58 204.53 134.683 203.784 133.847 202.973Z" fill="black"/>
<path opacity="0.1" d="M133.488 204.137C133.488 204.137 134.393 208.537 135.126 207.689L133.488 204.137Z" fill="black"/>
<path d="M42.1043 231.694C43.6209 228.929 41.897 225.542 39.9356 223.078C37.9742 220.615 35.583 218.061 35.6336 214.905C35.7094 210.389 40.5372 207.719 44.3943 205.326C47.2584 203.551 49.899 201.444 52.2602 199.049C53.2482 198.126 54.066 197.039 54.6766 195.837C55.4754 194.071 55.4501 192.064 55.3995 190.132C55.231 183.686 54.9109 177.248 54.439 170.819" stroke="#3F3D56" stroke-width="4" stroke-miterlimit="10"/>
<path d="M61.7753 170.468C61.7215 169.288 61.3691 168.141 60.7506 167.133C60.1321 166.124 59.2675 165.287 58.2366 164.697L56.6493 167.813L56.6948 164.04C55.2558 163.623 53.7205 163.67 52.3102 164.175C50.8999 164.679 49.6875 165.615 48.8477 166.848C48.0078 168.08 47.584 169.546 47.6373 171.033C47.6905 172.52 48.2182 173.952 49.1441 175.122C50.0699 176.292 51.3463 177.14 52.7891 177.544C54.232 177.948 55.7667 177.887 57.1722 177.369C58.5777 176.851 59.7812 175.904 60.6094 174.664C61.4376 173.424 61.8476 171.954 61.7803 170.468H61.7753Z" fill="#57B894"/>
<path d="M49.1217 218.131C48.3775 219.563 47.1601 220.697 45.6736 221.344C44.1871 221.991 42.5217 222.111 40.9567 221.684C39.3916 221.257 38.0219 220.309 37.0772 218.999C36.1325 217.689 35.6702 216.096 35.7677 214.488C35.8652 212.88 36.5166 211.354 37.6127 210.166C38.7089 208.978 40.1832 208.2 41.7886 207.962C43.3939 207.725 45.0327 208.042 46.4304 208.861C47.8281 209.68 48.8996 210.951 49.4655 212.461L45.0321 216.039L49.9103 214.92C49.9085 216.037 49.6382 217.138 49.1217 218.131Z" fill="#57B894"/>
<path d="M45.619 204.458C43.8561 204.581 42.1105 204.046 40.7253 202.957C39.3402 201.867 38.4157 200.303 38.1337 198.572C37.8517 196.84 38.2326 195.066 39.2015 193.599C40.1703 192.132 41.6571 191.078 43.3694 190.644L43.3289 193.544L44.9365 190.388C45.8674 190.343 46.7981 190.481 47.6752 190.794C48.5523 191.106 49.3585 191.588 50.0476 192.211C50.7366 192.834 51.295 193.586 51.6905 194.423C52.0861 195.261 52.311 196.168 52.3525 197.092C52.3941 197.905 52.2914 198.718 52.0492 199.495C51.6229 200.879 50.7764 202.099 49.6254 202.987C48.4745 203.875 47.0752 204.389 45.619 204.458Z" fill="#57B894"/>
<path d="M62.841 193.083C61.7518 193.123 60.6679 192.913 59.6738 192.47C58.6797 192.026 57.8023 191.36 57.11 190.525C56.4176 189.689 55.9291 188.706 55.6825 187.652C55.4359 186.598 55.4379 185.502 55.6883 184.449C55.9386 183.396 56.4306 182.415 57.1259 181.582C57.8212 180.749 58.701 180.086 59.6967 179.646C60.6924 179.206 61.777 179 62.8661 179.044C63.9552 179.088 65.0192 179.382 65.9753 179.901L64.7216 183.313L67.3048 180.855C68.6864 182.111 69.5099 183.859 69.5948 185.717C69.6284 186.369 69.5689 187.023 69.4179 187.659C69.0638 189.149 68.2305 190.485 67.0439 191.463C65.8574 192.442 64.382 193.01 62.841 193.083Z" fill="#57B894"/>
<path opacity="0.1" d="M60.8201 172.345C59.1822 172.52 57.5898 173.027 55.9469 173.127C54.3039 173.228 52.4992 172.836 51.4578 171.572C50.9017 170.89 50.6187 170.021 50.1485 169.279C49.6995 168.584 49.0848 168.01 48.359 167.608C47.9309 168.496 47.6957 169.464 47.6686 170.448C47.6416 171.432 47.8233 172.411 48.2019 173.321C48.5805 174.231 49.1477 175.052 49.8665 175.73C50.5854 176.409 51.4398 176.93 52.3746 177.259C53.3093 177.589 54.3034 177.719 55.2923 177.643C56.2812 177.567 57.243 177.285 58.1151 176.816C58.9872 176.347 59.7503 175.701 60.3547 174.92C60.9592 174.14 61.3916 173.242 61.6239 172.284C61.3576 172.294 61.0897 172.315 60.8201 172.345Z" fill="black"/>
<path opacity="0.1" d="M62.8412 193.083C61.6176 193.144 60.3988 192.89 59.3041 192.344C58.2095 191.797 57.2764 190.979 56.5962 189.967C55.916 188.956 55.512 187.786 55.4237 186.573C55.3354 185.36 55.5658 184.145 56.0925 183.047C56.6554 183.423 57.1396 183.904 57.5181 184.462C58.0236 185.22 58.332 186.098 58.9234 186.791C60.0305 188.08 61.9161 188.502 63.6298 188.426C65.3435 188.351 66.9966 187.864 68.6851 187.709C68.9226 187.709 69.1602 187.674 69.4029 187.669C69.0477 189.155 68.2158 190.486 67.0324 191.463C65.8491 192.439 64.3782 193.008 62.8412 193.083Z" fill="black"/>
<path opacity="0.1" d="M45.6181 204.458C44.4054 204.52 43.1972 204.271 42.1094 203.735C41.0217 203.2 40.0911 202.395 39.4072 201.399C38.7233 200.403 38.309 199.25 38.2042 198.049C38.0993 196.848 38.3075 195.641 38.8087 194.543C39.3982 194.923 39.9122 195.408 40.3253 195.973C40.8763 196.746 41.22 197.634 41.8671 198.346C43.0652 199.671 45.0772 200.138 46.887 200.093C48.6967 200.047 50.3397 199.631 52.0837 199.495C51.6553 200.885 50.8035 202.108 49.6456 202.997C48.4876 203.885 47.0805 204.396 45.6181 204.458Z" fill="black"/>
<path opacity="0.1" d="M49.1217 218.131C48.3541 219.834 46.9365 221.164 45.1807 221.829C43.425 222.495 41.4748 222.44 39.7594 221.679C38.0439 220.917 36.7036 219.51 36.0334 217.767C35.3631 216.024 35.4178 214.088 36.1853 212.386C36.7721 212.764 37.2972 213.23 37.7423 213.766C38.4197 214.578 38.8646 215.507 39.6431 216.274C41.094 217.689 43.4345 218.282 45.5223 218.327C46.725 218.332 47.9269 218.267 49.1217 218.131Z" fill="black"/>
<path d="M31.4023 228.513C31.4023 228.513 37.0035 228.367 38.6718 227.148C40.34 225.928 47.2656 224.534 47.7004 226.445C48.1351 228.357 56.1173 235.979 49.7933 236.009C43.4692 236.039 35.1078 235.005 33.4194 234.002C31.7309 232.998 31.4023 228.513 31.4023 228.513Z" fill="#656380"/>
<path opacity="0.2" d="M49.9297 235.342C43.6057 235.397 35.2393 234.368 33.5559 233.335C32.2718 232.557 31.7613 229.772 31.5894 228.493H31.4023C31.4023 228.493 31.7562 232.974 33.4244 234.012C35.0927 235.051 43.4793 236.059 49.7983 236.019C51.6233 236.019 52.2552 235.362 52.2198 234.409C51.9822 234.976 51.3098 235.332 49.9297 235.342Z" fill="black"/>
<path d="M149.598 44.0518C149.196 43.7415 148.746 43.4896 148.263 43.3047C147.642 43.0678 147.002 42.8755 146.348 42.7296C145.851 42.6184 145.365 42.4669 144.897 42.2767C144.612 42.1636 144.348 42.0086 144.116 41.8178C143.976 41.7041 143.869 41.5595 143.804 41.3972C143.76 41.2616 143.737 41.1206 143.736 40.9787C143.733 40.7742 143.77 40.5708 143.845 40.3783C143.912 40.2048 144.025 40.0502 144.175 39.9295C144.399 39.764 144.649 39.6314 144.916 39.5362C145.226 39.4251 145.555 39.3698 145.887 39.3735C146.378 39.3719 146.866 39.4537 147.327 39.6151C147.795 39.7867 148.207 40.0693 148.522 40.4349L148.614 40.536L148.739 40.4652L150.261 39.5918L150.405 39.51L150.315 39.3765C149.873 38.7393 149.237 38.2389 148.488 37.9391C147.673 37.5992 146.789 37.4268 145.895 37.4336C145.295 37.4279 144.698 37.5101 144.126 37.6773C143.605 37.8319 143.122 38.0833 142.708 38.4162C142.312 38.7424 141.996 39.1433 141.781 39.5922C141.565 40.0411 141.455 40.5276 141.458 41.0192C141.458 42.0432 141.876 42.8782 142.702 43.5008C143.079 43.8005 143.504 44.0437 143.961 44.2216C144.546 44.4507 145.151 44.6346 145.769 44.7715C146.903 45.0444 147.695 45.3517 148.123 45.6813C148.279 45.8029 148.408 45.952 148.502 46.12C148.589 46.2954 148.631 46.487 148.625 46.68C148.625 47.8809 147.791 48.4642 146.072 48.4642C145.458 48.4742 144.849 48.364 144.284 48.1407C143.816 47.962 143.424 47.6447 143.17 47.238L143.088 47.1066L142.944 47.1764L141.274 47.979L141.12 48.0528L141.204 48.1933C141.619 48.8898 142.274 49.4508 143.152 49.8602C144.062 50.2758 145.065 50.4857 146.079 50.4728C147.465 50.4728 148.619 50.12 149.509 49.4245C149.95 49.0934 150.304 48.6733 150.545 48.1961C150.786 47.719 150.907 47.1971 150.9 46.6699C150.898 45.5903 150.461 44.7088 149.598 44.0518Z" fill="white"/>
<path d="M154.092 41.9967V39.6067H152.112V42.0378L151.013 42.3719L150.9 42.4065V43.9357H152.108V48.3069C152.108 49.1526 152.23 49.8209 152.471 50.3011C152.683 50.7477 153.025 51.1062 153.444 51.3209C153.782 51.4824 154.148 51.5638 154.517 51.5599C154.596 51.5599 154.678 51.5599 154.76 51.5491C155.249 51.507 155.731 51.398 156.195 51.2246L156.331 51.1738L156.294 51.0235L155.966 49.6987L155.931 49.557L155.796 49.5765C155.512 49.6211 155.225 49.6456 154.938 49.6501C154.761 49.6598 154.585 49.6226 154.425 49.5419C154.31 49.4773 154.221 49.3681 154.177 49.2359C154.113 49.0269 154.084 48.8071 154.092 48.587V43.9368H156.334V41.9967H154.092Z" fill="white"/>
<path d="M163.179 41.7799H163.027V46.9432C163.035 47.2205 162.967 47.4949 162.831 47.7376C162.705 47.9501 162.538 48.136 162.339 48.2847C162.153 48.4243 161.942 48.5293 161.718 48.5945C161.526 48.6548 161.326 48.6882 161.125 48.6938C160.898 48.6927 160.672 48.6593 160.454 48.5945C160.248 48.5345 160.056 48.4331 159.892 48.2966C159.717 48.1506 159.58 47.9667 159.492 47.7594C159.382 47.493 159.331 47.2074 159.339 46.9204V41.7799H157.42V46.9214C157.42 47.6512 157.539 48.2539 157.776 48.7136C157.984 49.1376 158.285 49.5108 158.657 49.8058C158.992 50.0636 159.38 50.2463 159.795 50.341C160.143 50.4237 160.5 50.468 160.858 50.4731C161.326 50.4773 161.79 50.3839 162.219 50.1991C162.543 50.0584 162.846 49.8761 163.122 49.6569L163.383 50.209L163.425 50.2983H165.027V41.7799H163.179Z" fill="white"/>
<path d="M172.724 37.4333H172.548V42.4172C172.246 42.1828 171.905 41.9907 171.535 41.8478C170.971 41.6404 170.363 41.5389 169.75 41.5496C169.099 41.5446 168.454 41.6644 167.862 41.9004C167.297 42.1287 166.79 42.4534 166.372 42.8555C165.942 43.2703 165.606 43.7526 165.382 44.2766C164.908 45.3971 164.908 46.6284 165.382 47.7489C165.606 48.2729 165.942 48.7551 166.372 49.17C166.791 49.572 167.299 49.8964 167.865 50.124C168.457 50.359 169.1 50.478 169.75 50.4728C170.35 50.4815 170.945 50.3799 171.497 50.1747C171.918 50.0097 172.308 49.7892 172.652 49.5208L172.95 50.1697L172.994 50.2691H174.806V37.4333H172.719H172.724ZM169.899 48.689C169.549 48.6897 169.203 48.6189 168.89 48.4823C168.57 48.3439 168.287 48.1493 168.057 47.9109C167.813 47.6574 167.623 47.3684 167.494 47.0572C167.22 46.382 167.22 45.6454 167.494 44.9702C167.621 44.6614 167.812 44.3753 168.056 44.1255C168.286 43.893 168.57 43.7045 168.888 43.572C169.204 43.4403 169.549 43.3724 169.899 43.3732C170.252 43.3706 170.604 43.4173 170.94 43.5114C171.249 43.6014 171.53 43.7532 171.76 43.9546C172.014 44.1847 172.206 44.4614 172.321 44.7645C172.471 45.1688 172.541 45.5921 172.529 46.0167C172.538 46.4246 172.468 46.8308 172.321 47.2182C172.2 47.5264 172.006 47.8088 171.751 48.047C171.52 48.26 171.238 48.426 170.925 48.533C170.597 48.6402 170.249 48.6931 169.899 48.689Z" fill="white"/>
<path d="M185.673 41.7799H185.389H183.221H183.106L183.057 41.8776L180.28 47.4468L177.447 41.8765L177.397 41.7799H177.282H175.094H174.807L174.93 42.0226L179.008 50.0084L176.793 54.5805L176.678 54.8199H176.958H179.127H179.243L179.292 54.7222L185.555 42.0204L185.673 41.7799Z" fill="white"/>
<path d="M191.381 45.6315C191.037 45.3613 190.653 45.1419 190.242 44.9804C189.672 44.7566 189.085 44.5767 188.486 44.4425C188.328 44.4041 188.157 44.3602 187.98 44.3119C187.815 44.2675 187.656 44.2056 187.506 44.1274C187.371 44.0584 187.252 43.9657 187.153 43.8541C187.068 43.7585 187.023 43.636 187.028 43.5104C187.026 43.3915 187.066 43.2756 187.141 43.1811C187.228 43.0697 187.336 42.9748 187.459 42.9011C187.59 42.821 187.733 42.761 187.882 42.7233C188.027 42.6839 188.177 42.6632 188.328 42.6618C188.743 42.6618 189.07 42.7518 189.3 42.9286C189.525 43.0945 189.686 43.3295 189.755 43.595L189.797 43.7585L189.967 43.719L191.674 43.3205L191.836 43.2832L191.806 43.1251C191.738 42.7662 191.591 42.4256 191.375 42.1261C191.158 41.8294 190.888 41.5722 190.578 41.3664C189.916 40.926 189.13 40.6912 188.325 40.6934C187.86 40.6915 187.397 40.7688 186.959 40.9217C186.549 41.0632 186.168 41.2719 185.832 41.5387C185.519 41.7898 185.258 42.0956 185.062 42.44C184.868 42.7816 184.767 43.165 184.768 43.5543C184.759 43.9364 184.851 44.3144 185.037 44.6522C185.216 44.9607 185.459 45.2302 185.751 45.4437C186.069 45.6712 186.417 45.8559 186.786 45.9926C187.191 46.146 187.606 46.2719 188.028 46.3692C188.189 46.4076 188.388 46.4526 188.621 46.5031C188.842 46.5502 189.058 46.6193 189.264 46.7095C189.449 46.788 189.618 46.8956 189.765 47.0279C189.821 47.0774 189.865 47.1377 189.895 47.2049C189.924 47.2721 189.939 47.3446 189.937 47.4176C189.94 47.5387 189.903 47.6575 189.831 47.7569C189.669 47.9883 189.445 48.1738 189.183 48.294C188.921 48.4142 188.631 48.4649 188.342 48.4408C187.982 48.447 187.625 48.3718 187.301 48.2212C187.01 48.0818 186.767 47.8063 186.576 47.4023L186.503 47.2486L186.343 47.3177L184.731 48.0192L184.587 48.0818L184.637 48.2267C184.873 48.912 185.354 49.4939 185.994 49.868C186.671 50.2746 187.456 50.4846 188.254 50.4729C188.781 50.4762 189.305 50.3999 189.807 50.2467C190.261 50.1108 190.686 49.8958 191.06 49.6122C191.404 49.3483 191.686 49.0176 191.889 48.6417C192.09 48.2686 192.194 47.8543 192.193 47.4341C192.198 47.0993 192.137 46.7666 192.013 46.4537C191.876 46.1334 191.659 45.8508 191.381 45.6315Z" fill="white"/>
<path d="M199.671 42.0693C199.302 41.6122 198.831 41.2542 198.299 41.0258C197.755 40.8012 197.174 40.6883 196.588 40.6935C195.998 40.6903 195.415 40.8209 194.879 41.0759C194.353 41.3277 193.879 41.6833 193.485 42.1227C193.082 42.5772 192.762 43.1045 192.543 43.6782C192.309 44.2846 192.19 44.9318 192.193 45.5844C192.188 46.5453 192.458 47.4864 192.971 48.2888C193.483 49.0913 194.214 49.7191 195.072 50.0929C195.654 50.3474 196.281 50.4768 196.913 50.4731C197.624 50.4801 198.33 50.3416 198.989 50.0657C199.59 49.8152 200.138 49.4451 200.6 48.9764L200.716 48.8577L200.6 48.739L199.507 47.6105L199.392 47.4917L199.277 47.6105C198.695 48.1995 197.911 48.5266 197.096 48.52C196.782 48.5213 196.471 48.4675 196.175 48.361C195.889 48.2574 195.621 48.1046 195.385 47.9089C195.147 47.7106 194.939 47.4758 194.77 47.2129C194.639 47.0094 194.532 46.7899 194.453 46.5593H200.885V46.3905C200.901 45.5323 200.794 44.6765 200.569 43.8503C200.389 43.2003 200.084 42.5945 199.671 42.0693ZM195.206 43.2806C195.398 43.0997 195.617 42.9525 195.854 42.8449C196.083 42.7418 196.331 42.6892 196.581 42.6902C196.868 42.6844 197.153 42.7404 197.418 42.8547C197.901 43.0689 198.282 43.4714 198.478 43.9745C198.559 44.1777 198.616 44.3902 198.647 44.6073H194.425C194.49 44.3796 194.58 44.1603 194.693 43.9538C194.829 43.7028 195.002 43.4756 195.206 43.2806Z" fill="white"/>
<path d="M210.384 41.7799H208.214H208.099L208.051 41.8776L205.275 47.4468L202.44 41.8765L202.391 41.7799H202.277H200.087H199.8L199.924 42.0226L204.002 50.0084L201.787 54.5805L201.671 54.8199H201.952H204.121H204.237L204.285 54.7222L210.548 42.0204L210.666 41.7799H210.384Z" fill="white"/>
<path d="M132.214 32.0066C125.119 31.8335 119.647 35.1249 117.814 36.3893C117.729 36.2885 117.63 36.2004 117.52 36.128C110.819 31.8148 103.593 32 103.289 32.0066L102 32.0485V58.565L103.45 58.4371C107.677 58.0635 111.3 58.673 113.928 60.2008C115.813 61.292 116.566 62.5001 116.623 62.596L117.667 64.6L118.912 62.596C122.339 57.2819 131.926 58.4228 132.021 58.4349L133.513 58.6146V32.0385L132.214 32.0066ZM115.991 55.3915C117.724 55.2592 122.587 52.6094 122.789 50.3045C122.9 49.0512 122.346 47.972 121.502 47.196C119.858 45.6837 117.276 45.8336 116.991 45.8557C116.692 45.8854 115.457 45.8788 114.832 45.3155C114.645 45.1469 114.397 44.8405 114.397 44.113C114.397 41.9205 117.463 39.7159 118.644 39.0546C118.707 39.0199 118.766 38.9805 118.823 38.9366C118.876 38.8947 123.893 34.9684 130.848 34.6675V55.6991C127.941 55.5888 121.522 55.8556 117.777 59.8205C116.124 58.1472 112.548 55.6748 105.846 55.6748C105.462 55.6748 105.069 55.6829 104.665 55.6991V34.6995C106.802 34.8461 111.262 35.4633 115.497 37.9997C115.216 38.2201 114.923 38.4649 114.628 38.7327C112.707 40.4875 111.732 42.292 111.732 44.1152C111.732 45.7565 112.445 46.743 113.042 47.2809C114.243 48.3634 115.891 48.5177 116.734 48.5177C116.977 48.5177 117.152 48.5045 117.232 48.4978C117.583 48.4714 119 48.5056 119.692 49.1416C119.877 49.3124 120.124 49.6189 120.124 50.3045C120.124 52.4936 117.044 54.7268 115.858 55.3915H115.991Z" fill="white"/>
<defs>
<linearGradient id="paint0_linear" x1="164.654" y1="230.71" x2="164.654" y2="230.59" gradientUnits="userSpaceOnUse">
<stop stop-color="#808080" stop-opacity="0.25"/>
<stop offset="0.54" stop-color="#808080" stop-opacity="0.12"/>
<stop offset="1" stop-color="#808080" stop-opacity="0.1"/>
</linearGradient>
</defs>
</svg>
