<svg width="18" height="24" viewBox="0 0 18 24" fill="none" xmlns="http://www.w3.org/2000/svg">
<path d="M1.5 9.25H6C6.79565 9.25 7.55871 9.56607 8.12132 10.1287C8.68393 10.6913 9 11.4544 9 12.25V22.75C9 22.1533 8.76295 21.581 8.34099 21.159C7.91903 20.7371 7.34674 20.5 6.75 20.5H1.5V9.25Z" stroke="#61F2BE" stroke-width="2" stroke-linecap="round" stroke-linejoin="round"/>
<path d="M16.5 9.25H12C11.2044 9.25 10.4413 9.56607 9.87868 10.1287C9.31607 10.6913 9 11.4544 9 12.25V22.75C9 22.1533 9.23705 21.581 9.65901 21.159C10.081 20.7371 10.6533 20.5 11.25 20.5H16.5V9.25Z" stroke="#61F2BE" stroke-width="2" stroke-linecap="round" stroke-linejoin="round"/>
</svg>
