<svg width="430" height="283" viewBox="0 0 430 283" fill="none" xmlns="http://www.w3.org/2000/svg">
<path d="M75.8104 27.3797C75.658 26.1753 75.3499 24.9957 74.8937 23.8707C74.8355 23.6579 74.7337 23.4596 74.5946 23.2884C74.4556 23.1172 74.2824 22.9768 74.0861 22.8761C73.8237 22.8079 73.5486 22.8048 73.2848 22.8672L69.1707 23.4966C68.8263 23.5123 68.4966 23.6404 68.232 23.8613C67.6962 24.4248 68.2238 25.3321 68.2074 26.1094C68.189 26.9836 67.4122 27.6931 66.5699 27.9278C65.7101 28.1015 64.8232 28.0905 63.9679 27.8956L58.2152 27.0017C59.9095 26.4609 61.4175 25.4546 62.5672 24.0978C63.3243 23.2011 63.727 21.5269 62.6329 21.1023C62.3078 21.0131 61.9689 20.9859 61.6337 21.0221C59.0274 21.0423 56.9763 18.8664 54.5363 17.95C52.9747 17.4014 51.2795 17.3605 49.6932 17.8334C48.107 18.3062 46.7108 19.2684 45.7045 20.5825L48.769 20.7303C49.0574 20.7143 49.3432 20.7906 49.5853 20.9479C50.257 21.4997 49.422 22.5595 49.5166 23.4234C49.6395 24.5459 51.1301 24.7856 52.2537 24.8991C53.3773 25.0126 54.8027 25.9254 54.2622 26.9169C48.6149 28.8618 42.8681 23.1148 36.9372 23.8223C35.4361 24.0013 34.0187 24.5909 32.5531 24.9617C23.6005 27.2266 14.3451 21.1836 5.19958 22.4634C3.16641 22.81 1.16815 23.337 -0.771507 24.0381C-2.01623 24.4467 -3.31456 24.8883 -4.21897 25.8361C-5.12338 26.7838 -5.46759 28.4046 -4.6108 29.3956C-6.97234 29.5901 -9.34964 29.3641 -11.6322 28.7283C-11.015 29.0713 -10.5015 29.5742 -10.1456 30.1842C-9.78978 30.7941 -9.60471 31.4886 -9.60985 32.1947C-13.2971 32.7959 -16.8867 33.8903 -20.2821 35.4485C-19.6484 36.5022 -18.9083 37.4881 -18.0732 38.3907L-22.7412 41.3893C-21.1641 41.7867 -20.3488 43.9369 -21.2659 45.2798C-19.6306 44.5524 -18.6172 42.6707 -16.8686 42.2892C-15.723 42.0393 -14.5574 42.5079 -13.4706 42.9481C-12.3839 43.3882 -11.1894 43.8151 -10.0644 43.4847C-8.93938 43.1543 -8.10958 41.6957 -8.82445 40.7664C-4.01583 39.3636 0.953781 38.5872 5.96119 38.4566C6.34751 38.4082 6.73928 38.4825 7.08098 38.6691C7.73282 39.1213 7.56132 40.098 7.52621 40.8905C7.4911 41.683 8.10883 42.7245 8.8172 42.3673C7.9838 43.0899 8.69624 44.4503 9.4958 45.2101C10.2954 45.97 11.2591 47.0185 10.7696 48.0069C10.6418 48.2649 10.4251 48.4713 10.3022 48.7316C9.93933 49.5 10.5154 50.3957 11.195 50.906C11.8745 51.4163 12.7068 51.7729 13.1789 52.4795C13.6509 53.1861 13.4365 54.4229 12.5925 54.5215L10.1933 51.4758C9.37367 52.3256 8.81173 53.3904 8.57269 54.5466C11.1168 56.6261 11.4994 60.8587 9.36956 63.3607C8.28114 64.6393 6.73332 65.4162 5.38242 66.4135C4.03152 67.4108 2.7815 68.8309 2.7849 70.5099C2.79077 73.4106 2.55373 76.1056 3.64083 78.795C5.64545 83.754 7.95986 88.582 10.5704 93.2507C11.2559 94.4766 12.1419 95.8203 13.5306 96.0314C11.7755 91.7591 10.1956 87.4204 8.79081 83.0153C9.70577 83.0188 10.7631 83.0915 11.2995 83.8327C11.7436 84.4464 11.6482 85.2809 11.7862 86.0258C11.9618 86.7475 12.2545 87.4355 12.6527 88.0625L21.0338 102.99C21.7286 104.228 22.5255 105.556 23.8534 106.057C24.7024 106.378 25.6846 106.317 26.466 106.778C27.0785 107.14 27.491 107.782 28.1154 108.122C29.8809 109.085 32.3361 107.239 33.986 108.388C34.4578 108.717 34.7579 109.239 35.1926 109.616C36.7164 110.935 39.2162 110.053 40.9753 111.037C42.109 111.671 42.6966 112.94 43.3013 114.09C44.816 116.97 47.2669 119.791 50.5131 120.021C51.5328 120.093 52.5744 119.899 53.5711 120.126C54.5678 120.353 55.549 121.223 55.389 122.232C55.1147 123.963 55.97 125.858 55.7403 127.595C55.3219 130.76 50.833 132.15 50.4474 135.319C50.363 136.012 50.4951 136.728 50.3299 137.408C50.1274 138.24 49.5023 138.917 49.2802 139.745C48.8593 141.312 49.9825 142.873 51.2165 143.927C52.4505 144.982 53.9225 145.891 54.5971 147.368C55.3102 148.928 54.9599 150.748 55.1918 152.448C55.6981 156.159 58.9039 158.91 62.2031 160.684C63.2083 161.225 64.2876 161.748 64.9382 162.686C65.7874 163.909 65.7028 165.523 65.9863 166.985C66.6808 170.566 69.6958 173.517 69.7814 177.164C69.8423 179.756 68.4013 182.107 67.5405 184.553C66.7335 186.896 66.4414 189.386 66.6843 191.853C66.9272 194.319 67.6992 196.704 68.9478 198.845C69.5918 199.932 70.3619 200.957 70.8175 202.136C71.6303 204.239 71.3666 206.63 72.1161 208.757C73.107 211.568 75.8298 213.891 75.5692 216.86C76.8054 219.427 79.535 220.688 82.2798 221.452L87.1991 222.821C88.141 223.084 89.1253 223.348 90.0844 223.158C91.0436 222.968 91.9589 222.172 91.9341 221.195C89.5218 220.651 87.0321 220.072 85.0435 218.602C83.0549 217.132 81.6926 214.515 82.4472 212.16C82.797 211.068 83.5413 209.807 82.8337 208.905C82.4285 208.389 81.6876 208.254 81.2306 207.782C80.5178 207.047 80.7627 205.812 81.2752 204.926C81.7876 204.039 82.5283 203.247 82.735 202.244C82.8394 201.683 82.7696 201.104 82.5352 200.583C82.3008 200.063 81.9128 199.627 81.4234 199.333C82.3356 198.989 83.1651 198.457 83.8583 197.771C84.4986 197.04 84.7944 195.913 84.2907 195.082C85.7865 195.271 87.5524 195.364 88.5343 194.22C89.3184 193.306 89.2646 191.941 88.9548 190.777C88.6449 189.614 88.1213 188.484 88.105 187.28C91.5555 187.444 95.0136 187.326 98.4452 186.929C97.949 185.258 96.8213 183.846 95.3014 182.993C96.8555 182.73 98.2714 180.869 98.7624 179.372C99.2534 177.874 99.1282 176.243 98.8247 174.696C98.7082 174.298 98.6922 173.877 98.7782 173.471C98.9532 172.913 99.5011 172.573 100.008 172.282L107.722 167.852C108.183 167.622 108.6 167.314 108.956 166.942C109.764 165.992 109.644 164.559 109.23 163.383C108.817 162.207 108.154 161.102 107.994 159.865C107.518 156.167 111.476 153.514 112.812 150.033C113.337 148.667 113.444 147.183 113.545 145.723C113.654 144.155 113.662 142.334 112.458 141.324C111.304 140.355 109.501 140.572 108.294 139.671C107.187 138.845 106.805 137.241 105.595 136.574C104.497 135.968 103.12 136.353 101.898 136.068C99.7472 135.567 98.3937 133.088 96.1971 132.859C94.9577 132.729 93.555 133.335 92.5392 132.613C91.6441 131.977 91.6083 130.699 91.4379 129.614C91.1393 127.929 90.3313 126.375 89.1226 125.163C87.914 123.95 86.3628 123.137 84.6779 122.833C83.4 122.628 82.0091 122.706 80.922 122.004C79.8212 121.293 79.3165 119.962 78.4518 118.977C77.0582 117.39 74.8634 116.827 72.8073 116.343L64.4442 114.377C62.9595 114.028 61.0459 113.843 60.2492 115.144C60.0134 115.639 59.8464 116.164 59.753 116.704C59.4545 117.682 58.8537 118.539 58.037 119.154C57.2203 119.769 56.2298 120.109 55.2077 120.125C54.5069 118.93 53.3713 118.051 52.0381 117.673C51.1901 117.436 50.2824 117.41 49.4736 117.062C49.0331 116.847 48.6411 116.545 48.3216 116.173C48.0022 115.801 47.7619 115.369 47.6156 114.901C47.4693 114.433 47.42 113.94 47.4706 113.453C47.5214 112.965 47.671 112.493 47.9105 112.066C48.3926 111.207 48.5789 110.214 48.4404 109.239C48.3019 108.265 47.8464 107.363 47.1442 106.672C45.722 105.396 43.6646 105.087 41.7576 105.215C41.2581 104.125 42.0933 102.896 42.9932 102.104C43.8931 101.312 44.9859 100.533 45.1819 99.3509C45.4902 97.4907 43.1164 96.0779 41.3141 96.6325C39.5118 97.1872 38.3615 98.9376 37.601 100.663C37.1647 101.653 36.7938 102.696 36.1056 103.53C35.4174 104.365 34.3091 104.963 33.2608 104.695C31.7768 104.316 31.2036 102.553 30.8751 101.057C30.4345 99.0496 29.9912 97.0146 30.0835 94.9617C30.1759 92.9089 30.868 90.8011 32.3819 89.4114C34.8489 87.1468 38.6334 87.3688 41.9628 87.73C41.1762 86.8439 41.3706 85.3504 42.2123 84.5163C42.6565 84.1216 43.1904 83.8412 43.7676 83.6994C44.3447 83.5577 44.9477 83.5588 45.5243 83.7027C46.5276 83.9115 47.4314 84.4518 48.0902 85.2367C49.0363 86.3901 49.3054 87.9474 50.0205 89.2565C50.7356 90.5657 52.3437 91.6824 53.6599 90.98C54.7967 90.3733 54.9771 88.7971 54.6942 87.5401C54.4113 86.2831 53.8103 85.0607 53.9128 83.7763C54.1084 81.3256 56.6491 79.8504 58.8912 78.8411C61.1332 77.8317 63.7005 76.4743 64.0557 74.0416C64.0679 73.5653 64.1578 73.0941 64.3218 72.6468C64.5704 72.2516 64.916 71.9267 65.3257 71.7028C71.8692 67.3789 78.5215 63.0022 86.0004 60.6395C86.3895 60.5166 86.4352 60.6532 86.8317 60.5569C87.3867 60.2362 87.019 59.349 86.4869 58.9916C85.9548 58.6342 85.2436 58.3601 85.1086 57.7335C85.0094 57.2729 85.2808 56.8207 85.3513 56.3549C85.5245 55.2101 84.155 54.1532 83.0914 54.6109C82.4906 53.8154 83.6794 52.891 84.6405 52.6264C87.5269 51.8321 90.4897 51.3481 93.4788 51.1827C93.8237 51.1279 94.1771 51.188 94.4845 51.3538C94.9865 51.7015 94.9224 52.499 94.5666 52.9954C94.2108 53.4917 93.6574 53.8033 93.214 54.2233C92.7296 54.6951 92.3841 55.291 92.2152 55.9457C92.0463 56.6005 92.0605 57.2891 92.2563 57.9363C93.8167 58.73 95.5132 59.547 97.2414 59.2674C98.9697 58.9878 100.504 57.0462 99.6913 55.4955C98.9348 54.0515 96.6625 53.7258 96.2718 52.1431C95.8142 50.2902 98.4376 48.6421 97.8467 46.8273C97.5878 46.0323 96.7955 45.5645 96.1875 44.9905C95.4695 44.2868 94.981 43.3825 94.7864 42.3962C94.5917 41.4099 94.6999 40.3878 95.0967 39.4641C94.1064 39.6383 93.0888 39.5725 92.1291 39.2722C91.1695 38.972 90.2959 38.446 89.5815 37.7384C88.2624 36.4072 87.2099 34.3073 85.3367 34.3669C83.6176 34.4215 82.137 36.4268 80.5296 35.815C80.1342 35.6645 79.7172 35.3582 79.3341 35.5377C79.2085 35.6192 79.1031 35.7282 79.0259 35.8564C78.9486 35.9846 78.9015 36.1287 78.8881 36.2778C78.4797 38.2306 79.1823 40.4555 78.118 42.1429C76.9597 43.9791 74.2806 44.2337 72.8764 45.8895C72.1142 46.7883 71.8188 47.9995 71.1182 48.9471C70.4176 49.8947 68.9305 50.4972 68.0897 49.6714C68.503 48.822 68.6158 47.8575 68.4099 46.9357C68.2039 46.0138 67.6913 45.189 66.9558 44.5962C66.1751 44.087 65.3337 43.6777 64.4511 43.3781C63.4649 42.9607 62.5267 42.4378 61.6529 41.8187C61.2152 41.5547 60.8596 41.1742 60.6257 40.7197C60.4407 40.1506 60.4656 39.5341 60.6959 38.9818C61.1223 37.7595 61.8745 36.6769 62.8712 35.8509C63.8679 35.0248 65.0714 34.4867 66.3516 34.2946C67.4711 34.1423 68.7741 34.1959 69.515 33.3431C69.907 32.8918 70.1127 32.2095 70.6817 32.0262C71.0456 31.9531 71.4235 31.9996 71.7588 32.1588L75.9374 33.6295C76.4036 33.8399 76.9167 33.9248 77.4259 33.8756C77.6784 33.8416 77.9086 33.7134 78.0705 33.5167C78.2323 33.32 78.3138 33.0694 78.2986 32.8151C78.1651 32.1213 77.0973 31.7883 77.1945 31.0885C77.2489 30.8617 77.3708 30.6567 77.5442 30.5007C79.0522 28.8958 80.8964 27.6442 82.9447 26.8354C84.9931 26.0266 87.195 25.6806 89.3927 25.8222C89.9201 26.6883 89.086 27.714 88.392 28.4533C87.698 29.1927 87.1402 30.5138 87.9796 31.0829C88.3235 31.2584 88.7061 31.3446 89.0921 31.3334C90.1209 31.4727 91.1207 31.7759 92.0535 32.2315C93.4974 32.8598 94.9136 33.5473 96.3021 34.2939C96.1794 33.3785 96.0624 32.4141 96.4094 31.5582C96.7564 30.7023 97.7426 30.0309 98.604 30.3642C99.4342 30.6855 99.86 31.7846 100.744 31.8853C101.924 32.0197 102.39 30.2768 101.897 29.1966C101.404 28.1164 100.429 27.2118 100.347 26.0273C100.292 25.2282 100.596 24.2371 99.9579 23.7532C99.7307 23.6079 99.4728 23.5175 99.2046 23.4891L83.2643 20.5561C82.3177 20.3819 80.9501 20.5154 80.9081 21.4769C80.8847 22.0135 81.3642 22.5445 81.1518 23.0379C80.9252 23.5645 80.1806 23.5164 79.6384 23.7027C78.7969 23.9917 78.3747 24.9907 78.4555 25.8766C78.6035 26.7569 78.9444 27.5935 79.4539 28.3265C78.4171 27.8929 76.8472 27.8132 75.8104 27.3797Z" fill="#3F3D56"/>
<path d="M63.0915 13.8497C62.0863 13.5171 61.0031 13.5016 59.9888 13.8053C58.9746 14.1091 58.0782 14.7173 57.4214 15.5476C57.1589 15.8932 56.9385 16.3695 57.1582 16.7437C57.4732 17.2801 58.2759 17.0682 58.8677 16.8763C59.7375 16.5656 60.6843 16.543 61.568 16.8119C62.1237 17.0027 62.6208 17.3398 63.1789 17.5234C63.4506 17.637 63.7481 17.6746 64.0395 17.632C64.3309 17.5894 64.6052 17.4683 64.8331 17.2817C65.2161 16.8911 65.2401 16.2838 65.2408 15.7368C65.2674 15.5537 65.2527 15.367 65.1979 15.1904C65.1432 15.0137 65.0496 14.8515 64.9241 14.7155C64.7007 14.5862 64.4497 14.5119 64.1919 14.499C63.6144 14.3921 63.0923 14.0871 62.7156 13.6365" fill="#3F3D56"/>
<path d="M68.8386 12.2493C68.6137 12.237 68.3893 12.2828 68.1872 12.3823C67.9851 12.4818 67.812 12.6316 67.6845 12.8173C67.5571 13.0031 67.4795 13.2185 67.4594 13.4428C67.4392 13.6672 67.4771 13.8929 67.5695 14.0984C68.2603 14.2868 68.982 14.3338 69.6915 14.2367C70.0454 14.1818 70.375 14.0234 70.639 13.7814C70.9029 13.5394 71.0893 13.2248 71.1747 12.877C70.3394 13.029 69.4775 12.8644 68.757 12.4153" fill="#3F3D56"/>
<path d="M88.1232 9.57708C86.2429 9.9768 84.4164 10.5972 82.6816 11.4254C83.4994 11.7397 84.1946 12.3084 84.6647 13.0476C85.1349 13.7868 85.3551 14.6575 85.2929 15.5314C85.2195 15.8668 85.228 16.215 85.3176 16.5465C85.5175 17.031 86.0966 17.2128 86.6057 17.3371C87.5204 17.6154 88.4756 17.7373 89.4309 17.6977C89.9088 17.6727 90.3729 17.5289 90.7812 17.2794C91.1895 17.0299 91.5291 16.6826 91.7694 16.2688C91.9079 15.876 92.0703 15.4922 92.2557 15.1193C93.4761 13.2609 97.1014 15.508 98.4117 13.7119C98.8732 13.0791 98.831 12.1267 99.4327 11.6253C99.744 11.4069 100.105 11.2693 100.482 11.2248C103.117 10.7014 105.779 10.3223 108.455 10.0894C109.723 9.9791 111.376 9.52381 111.387 8.25111C106.61 7.31315 101.658 7.97933 97.299 10.1461C95.7287 10.9326 93.6517 12.5869 92.139 11.5443C91.5726 11.1539 91.6006 10.1026 90.8211 9.66363C90.0241 9.21482 88.9692 9.39736 88.1232 9.57708Z" fill="#3F3D56"/>
<path d="M103.744 12.4976L105.986 12.9284C105.573 12.9101 105.162 12.9801 104.778 13.1336C104.394 13.287 104.048 13.5205 103.762 13.8185C103.476 14.1164 103.256 14.472 103.119 14.8614C102.981 15.2508 102.928 15.6651 102.963 16.0767C105.062 16.7781 107.351 16.0956 109.563 16.1888C111.775 16.282 114.348 17.8617 113.971 20.0428C113.857 20.7023 113.475 21.3613 113.674 22.0006C113.812 22.4487 114.208 22.7666 114.431 23.1793C114.896 24.0392 114.524 25.1269 113.937 25.9086C113.35 26.6903 112.561 27.3141 112.046 28.1448C110.765 30.211 111.493 32.8821 112.256 35.1904C112.477 36.0626 112.884 36.8764 113.45 37.5756C114.581 38.7779 116.424 38.8825 118.075 38.9066C119.276 38.9241 120.652 38.8648 121.412 37.9341C122.404 36.7191 121.71 34.8234 122.363 33.3974C122.956 32.1023 124.467 31.5467 125.836 31.1526C128.344 30.4307 130.9 29.817 133.271 28.7265C136.215 27.3725 138.967 25.2624 142.202 25.0881C143.11 25.0392 144.041 25.1463 144.915 24.8976C145.79 24.6489 146.62 23.8929 146.554 22.9863C146.498 22.2116 145.842 21.6427 145.33 21.0588C144.818 20.4748 144.415 19.5768 144.886 18.9589L153.368 17.3748C152.767 15.7365 152.298 13.5788 153.68 12.5124C154.179 12.1276 154.846 11.9738 155.27 11.5086C155.994 10.7158 155.63 9.35013 154.795 8.67588C153.96 8.00163 152.831 7.84511 151.761 7.75628C148.042 7.44744 144.302 7.65151 140.575 7.85574C133.291 8.25498 126.007 8.65421 118.723 9.05344C117.257 9.13381 115.564 9.01103 114.219 9.51124C113.08 9.93472 112.271 10.7121 110.969 10.9852C108.565 11.4894 105.919 11.1482 103.744 12.4976Z" fill="#3F3D56"/>
<path d="M143.911 30.2186C143.683 30.1824 143.449 30.2354 143.259 30.3666C143.133 30.5053 143.058 30.6828 143.046 30.8698C142.901 31.6951 143.074 32.5446 143.529 33.2482C143.761 33.5934 144.081 33.8702 144.456 34.05C144.83 34.2297 145.247 34.3058 145.661 34.2704C146.671 34.1417 147.415 33.2805 148.343 32.8602C149.773 32.2131 155.848 31.2043 151.646 28.9342C150.198 28.1518 149.262 28.8424 148.12 29.3577C146.822 30.022 145.366 30.3196 143.911 30.2186Z" fill="#3F3D56"/>
<path d="M180.719 11.2163C180.229 11.4168 179.818 11.7741 179.552 12.2324C179.429 12.4652 179.401 12.7361 179.472 12.9893C179.544 13.2424 179.71 13.4584 179.936 13.5925C180.12 13.6589 180.314 13.6897 180.509 13.6833L182.504 13.7429C183.352 13.7682 184.41 13.9487 184.638 14.7654C184.807 15.3719 184.429 16.1512 184.886 16.5846C185.082 16.7364 185.317 16.8283 185.564 16.8493C186.222 17.0181 186.908 17.0403 187.575 16.9142C189.026 16.5248 188.264 15.6389 188.721 14.85C189.42 13.6429 189.299 14.3736 190.532 13.6818C191.442 13.171 192.619 12.2442 191.859 10.9421C190.538 8.67773 182.669 10.2436 180.719 11.2163Z" fill="#3F3D56"/>
<path d="M220.101 10.0776L218.942 10.2322C216.329 10.5808 213.702 10.9327 211.186 11.7172C212.275 12.1478 213.418 12.4282 214.582 12.5506C215.224 12.582 215.861 12.6726 216.485 12.8211C217.597 13.1519 218.717 14.0062 219.79 13.5686C220.456 13.2972 220.673 12.6041 221.225 12.2367C221.606 11.9831 223.05 11.5725 223.212 11.3165C224.517 9.24672 221.104 9.94376 220.101 10.0776Z" fill="#3F3D56"/>
<path d="M225.188 15.3427C223.64 16.2079 222.205 17.2593 220.912 18.4735C220.368 18.9851 219.812 19.6215 219.861 20.3669C219.927 21.3576 220.983 21.9323 221.897 22.3194L225.601 23.8873C226.05 23.2541 225.639 22.38 225.174 21.7577C224.71 21.1355 224.158 20.4155 224.363 19.6667C224.598 18.8121 225.64 18.5209 226.513 18.3737C227.937 18.1339 231.778 18.1531 231.316 15.8589C230.772 13.1557 226.617 14.5439 225.188 15.3427Z" fill="#3F3D56"/>
<path d="M224.443 168.322C224.09 169.343 224.057 170.545 224.667 171.437C225.351 172.436 226.721 172.809 227.906 172.556C229.086 172.242 230.138 171.566 230.913 170.622C231.622 169.832 232.206 168.938 232.643 167.97C233.253 166.462 233.684 164.888 233.925 163.279L235.075 157.242C235.332 155.893 235.322 151.756 232.842 153.104C232.164 153.472 230.596 156.379 229.886 157.204C228.606 158.689 228.437 160.131 227.763 161.931C226.919 164.185 225.223 166.064 224.443 168.322Z" fill="#3F3D56"/>
<path d="M355.436 199.216C354.625 198.9 353.837 198.525 353.079 198.094C352.32 200.183 351.916 202.383 351.885 204.605L357.438 201.463C358.273 200.99 359.22 200.334 359.202 199.374C359.21 199.256 359.185 199.137 359.131 199.031C359.077 198.926 358.996 198.836 358.895 198.773C358.772 198.724 358.637 198.708 358.506 198.727C357.683 198.796 356.932 199.201 356.155 199.483C355.378 199.765 354.47 199.914 353.757 199.495" fill="#3F3D56"/>
<path d="M384.731 201.082C384.121 201.248 383.526 201.461 382.95 201.721C381.676 202.369 380.809 203.601 379.662 204.454C378.564 205.272 377.243 205.72 375.947 206.156C375.565 206.494 375.74 207.173 376.154 207.469C376.6 207.722 377.11 207.837 377.621 207.799C378.968 207.828 380.388 207.841 381.568 207.191C382.233 206.759 382.855 206.265 383.426 205.716C384.806 204.565 386.463 203.805 388.103 203.071C388.7 202.846 389.252 202.516 389.733 202.097C390.764 201.081 390.836 199.515 389.35 199.169C388.149 198.89 385.874 200.712 384.731 201.082Z" fill="#3F3D56"/>
<path d="M397.675 192.628C397.741 191.929 397.649 191.225 397.403 190.567C397.157 189.91 396.766 189.316 396.257 188.833C396.242 190.23 396.2 191.719 395.413 192.875C394.853 193.699 393.975 194.255 393.361 195.04C392.747 195.824 392.475 197.068 393.195 197.756C393.655 198.106 394.216 198.299 394.794 198.307C396.227 198.475 397.886 198.569 398.891 197.534C399.439 196.969 399.706 196.132 400.375 195.717C400.625 195.612 400.847 195.453 401.027 195.251C401.303 194.812 400.864 194.233 400.37 194.075C399.876 193.916 399.331 193.991 398.834 193.841C398.338 193.69 397.882 193.132 398.137 192.68" fill="#3F3D56"/>
<path d="M374.669 141.378C373.917 141.561 373.139 141.607 372.371 141.514C371.095 141.279 370.102 140.318 369.072 139.53C366.623 137.665 363.647 136.626 360.57 136.559C357.771 136.507 354.946 137.265 352.197 136.736C352.377 137.735 353.232 138.484 354.144 138.929C355.056 139.374 356.062 139.598 356.979 140.035C358.446 140.74 359.61 141.951 360.257 143.445C360.553 144.134 360.738 144.884 361.185 145.485C362.099 146.715 363.831 146.985 365.36 146.884C367.353 146.753 369.435 146.18 371.289 146.922C372.707 147.49 373.723 148.732 374.907 149.697C376.091 150.662 377.759 151.379 379.119 150.682C377.707 150.225 376.477 149.328 375.61 148.123C374.744 146.917 374.285 145.467 374.301 143.982C375.635 144.105 379.477 144.057 379.27 141.791C379.094 139.87 375.815 141.171 374.669 141.378Z" fill="#3F3D56"/>
<path d="M357.221 157.004C357.458 155.705 358.754 154.558 358.35 153.301C358.071 152.432 357.063 152.003 356.15 151.981C355.237 151.96 354.34 152.232 353.428 152.257C352.834 152.226 352.238 152.234 351.645 152.283C349.833 152.581 348.716 154.48 347.009 155.155C345.971 155.565 344.804 155.487 343.725 155.771C341.273 156.415 339.722 158.731 338.009 160.598C335.241 163.602 331.634 165.705 327.656 166.635C326.263 166.958 324.764 167.164 323.657 168.069C322.19 169.268 321.829 171.322 321.502 173.188C320.6 178.341 319.222 183.399 317.386 188.298L323.206 189.041C324.312 189.182 325.459 189.32 326.525 188.992C327.3 188.7 328.034 188.309 328.709 187.83C331.301 186.22 334.202 185.173 337.224 184.756C338.748 184.547 340.346 184.509 341.777 185.075C343.207 185.641 344.434 186.926 344.554 188.46C345.172 188.267 345.832 188.246 346.461 188.4C347.091 188.553 347.667 188.874 348.128 189.329C349.039 190.257 349.636 191.448 349.834 192.734C349.987 193.53 350.14 194.484 350.879 194.818C351.482 195.091 352.174 194.797 352.833 194.745C355.071 194.566 356.928 197.175 359.127 196.725C361.486 196.243 362.065 192.711 364.366 192.004C365.688 191.597 367.542 192.091 368.174 190.862C368.732 189.779 367.619 188.528 367.734 187.315C367.875 185.821 369.638 185.187 370.996 184.55C375.68 182.352 377.903 176.049 375.633 171.4C374.288 168.646 371.642 166.478 371.154 163.452C370.778 161.124 371.695 158.409 370.211 156.576C369.456 155.644 368.177 155.13 367.728 154.017C367.445 153.317 367.559 152.523 367.406 151.783C367.254 151.044 366.609 150.27 365.878 150.462C363.758 151.018 363.081 157.568 361.946 159.159C360.221 161.578 356.678 159.984 357.221 157.004Z" fill="#3F3D56"/>
<path d="M318.03 143.853C317.305 143.65 316.514 143.45 315.82 143.74C315.125 144.03 314.72 145.05 315.277 145.555C319.636 145.386 324.022 145.217 328.345 145.809C333.324 146.491 338.253 148.18 343.255 147.683C340.397 146.84 337.493 146.167 334.557 145.665L329.66 144.73C328.347 144.455 327.019 144.25 325.684 144.116C322.891 143.885 320.776 144.623 318.03 143.853Z" fill="#3F3D56"/>
<path d="M322.393 128.672C322.031 128.642 321.583 128.616 321.396 128.927C321.217 129.224 321.422 129.617 321.325 129.95C321.194 130.406 320.598 130.522 320.128 130.46C319.658 130.398 319.149 130.25 318.733 130.476C318.522 130.62 318.363 130.829 318.281 131.071C318.198 131.313 318.197 131.575 318.276 131.819C318.446 132.301 318.722 132.74 319.082 133.103C319.698 133.879 320.399 134.583 321.173 135.201C322.672 136.307 324.701 136.839 325.645 138.445C325.778 138.756 325.983 139.031 326.242 139.248C326.695 139.535 327.286 139.317 327.774 139.094L329.484 138.313C329.792 138.202 330.066 138.015 330.283 137.77C330.673 137.24 330.434 136.486 330.106 135.915C329.778 135.344 329.358 134.754 329.429 134.099C329.554 132.932 331.055 132.486 331.672 131.487C332.294 130.481 331.889 129.184 331.96 128.003C332.044 126.622 332.912 124.825 331.516 123.793C330.329 122.916 329.195 123.727 328.343 124.695C326.546 126.737 325.696 128.948 322.393 128.672Z" fill="#3F3D56"/>
<path d="M332.771 108.036C333.354 109.153 334.571 109.82 335.208 110.908C335.898 112.088 335.819 113.612 336.568 114.755C337.335 115.929 338.881 116.551 339.311 117.886C339.782 119.342 338.715 121.113 339.565 122.385C339.724 122.593 339.924 122.766 340.153 122.893C340.382 123.02 340.634 123.097 340.895 123.121C341.155 123.145 341.418 123.115 341.666 123.032C341.914 122.949 342.142 122.816 342.336 122.64C342.695 122.25 342.887 121.735 342.871 121.205C342.855 120.675 342.633 120.173 342.252 119.804C341.749 119.345 341.026 119.147 340.606 118.611C340.387 118.301 340.241 117.946 340.179 117.572C339.95 116.494 339.987 115.376 340.286 114.314C340.399 114.045 340.427 113.748 340.368 113.462C340.179 112.912 339.434 112.873 338.911 112.618C337.724 112.038 337.753 110.363 337.96 109.058C337.822 109.927 334.728 108.45 334.403 107.958C333.76 106.98 334.11 105.095 333.983 104.015C332.593 104.684 332.057 106.669 332.771 108.036Z" fill="#3F3D56"/>
<path d="M301.596 125.23C301.025 124.59 300.165 123.922 299.399 124.307C298.815 124.601 298.654 125.41 298.883 126.022C299.162 126.617 299.592 127.129 300.129 127.507C301.725 128.823 303.443 130.011 304.835 131.541C307.327 134.278 308.646 137.972 311.356 140.494C311.9 141.078 312.621 141.469 313.409 141.605C314.198 141.678 315.085 141.173 315.175 140.385C315.25 139.737 314.798 139.156 314.356 138.676C313.303 137.531 312.151 136.477 311.157 135.281C310.699 134.822 310.41 134.219 310.34 133.574C310.335 132.93 310.922 132.256 311.546 132.415C310.787 132.221 310.224 130.957 309.111 130.719C308.18 130.521 307.955 131.097 306.847 130.622C304.734 129.716 303.076 126.886 301.596 125.23Z" fill="#3F3D56"/>
<path d="M351.245 62.9795C350.639 62.7994 350.043 62.5866 349.46 62.3419C347.891 61.8711 345.816 63.0241 346.025 64.6485C346.164 65.7278 347.168 66.4554 347.723 67.3916C348.546 68.7799 348.326 70.5408 347.894 72.0956C347.788 72.577 347.586 73.0322 347.301 73.434C346.901 73.8582 346.424 74.2016 345.895 74.4452C343.776 75.6331 341.908 77.2202 340.393 79.1188C340.228 79.2941 340.113 79.5104 340.061 79.745C339.986 80.2935 340.537 80.693 340.849 81.1504C341.541 82.1666 341.041 83.5339 341.109 84.7616C341.099 84.9352 341.133 85.1086 341.208 85.2653C341.283 85.4221 341.397 85.5571 341.54 85.6574C341.957 85.8693 342.451 85.5093 342.678 85.0995C343.428 83.7396 342.863 81.5567 344.271 80.901C344.537 80.777 344.86 80.7247 345.038 80.4907C345.32 80.1195 345.048 79.5699 345.191 79.1263C345.405 78.4601 346.317 78.4302 347.016 78.4598C348.221 78.5101 349.425 78.3498 350.574 77.9861C351.025 77.8789 351.435 77.6418 351.752 77.3041C352.173 76.7788 352.136 76.0318 352.052 75.3639C351.63 72.0342 350.575 68.8158 348.944 65.8826C350.181 66.0406 351.527 66.1774 352.594 65.5328C353.192 65.1718 353.909 64.0924 353.612 63.3577C353.144 62.1958 352.297 63.1738 351.245 62.9795Z" fill="#3F3D56"/>
<path d="M192.653 81.2926C192.801 82.0865 192.947 82.9224 192.687 83.687C192.426 84.4515 191.608 85.0903 190.835 84.8561C190.235 84.6743 189.888 84.0712 189.462 83.6114C187.094 81.0543 181.749 82.5348 180.286 79.3712C179.689 78.0801 180.094 76.5333 179.687 75.1704C179.43 74.3827 178.919 73.7026 178.233 73.237C177.548 72.7714 176.727 72.5466 175.9 72.598C175.146 72.707 174.411 72.9261 173.721 73.2485C169.094 75.1012 164.237 76.316 159.282 76.8593C158.341 76.9167 157.41 77.0861 156.508 77.364C154.474 78.1015 153.084 79.9872 152.095 81.9115C151.106 83.8358 150.375 85.9191 149.049 87.6287C147.655 89.4254 145.702 90.6836 143.881 92.0445C143.179 92.4968 142.594 93.1092 142.175 93.8314C141.78 94.6422 141.803 95.5852 141.833 96.4866L142.206 107.434C142.254 108.842 142.314 110.3 142.944 111.56C143.731 113.134 145.286 114.164 146.364 115.554C147.465 116.983 148.039 118.747 147.988 120.55C147.965 121.275 147.893 122.132 148.457 122.587C148.8 122.81 149.202 122.925 149.611 122.919L164.421 124.131C167.026 124.344 169.913 124.695 171.614 126.679C172.417 127.616 173.062 128.963 174.291 129.063C174.819 129.106 175.332 128.89 175.859 128.848C177.19 128.743 178.359 129.753 179.097 130.865C180.214 132.561 180.721 134.586 180.534 136.607C180.413 137.876 180.02 139.11 179.935 140.382C179.612 145.222 183.716 149.426 183.795 154.276C183.842 157.129 182.488 159.794 181.167 162.324C183.298 165.552 181.553 169.851 182.402 173.624C183.207 177.205 186.192 180.008 186.936 183.601C187.277 185.246 187.296 187.271 188.747 188.118C189.384 188.428 190.09 188.57 190.797 188.528C195.061 188.579 199.277 187.619 203.099 185.728C204.893 184.838 206.753 183.509 207.066 181.531C207.318 179.936 206.51 178.152 207.333 176.763C208.303 175.125 210.789 175.255 212.216 173.996C214.532 171.954 212.726 168.058 213.665 165.117C214.508 162.472 217.412 161.068 218.851 158.694C219.417 157.674 219.824 156.572 220.056 155.428C220.716 152.694 221.126 149.906 221.282 147.098C221.321 145.392 221.447 143.689 221.659 141.996C223.211 132.357 232.742 125.902 235.836 116.641C236.132 115.757 236.271 114.579 235.484 114.078C235.017 113.856 234.488 113.8 233.985 113.922L227.158 114.782C226.31 114.889 225.412 114.989 224.633 114.637C223.854 114.285 223.296 113.3 223.709 112.552C224.869 110.451 222.483 107.798 221.424 105.645C218.57 99.8503 215.172 94.3396 211.275 89.1877C211.025 88.9227 210.869 88.5836 210.83 88.2218L212.767 88.2863C212.113 85.9396 211.034 83.3716 208.754 82.5132C207.469 82.0295 206.046 82.1968 204.675 82.2716C200.749 82.4861 196.539 81.8934 192.653 81.2926Z" fill="#3F3D56"/>
<path d="M204.679 28.4104C205.706 29.5013 206.857 30.6581 208.344 30.8482C210.97 31.1841 212.858 28.4692 214.06 26.1109C214.104 26.7121 214.381 27.2722 214.833 27.6722C215.284 28.0721 215.873 28.2802 216.475 28.2524C217.123 28.1433 217.742 27.9015 218.292 27.5421C223.495 24.6994 229.322 23.1932 235.25 23.1588C235.193 22.7097 235.305 22.2555 235.563 21.8838C235.821 21.512 236.208 21.2491 236.649 21.1457C237.854 20.9068 238.94 21.9488 239.521 23.0312C240.103 24.1136 240.465 25.3683 241.389 26.1785C242.313 26.9887 244.102 26.9534 244.466 25.7801C244.817 24.6537 243.643 23.6932 242.668 23.0291C241.693 22.365 240.665 21.1359 241.322 20.1558C246.303 19.0533 251.315 17.9466 256.412 17.7275C257.28 17.7577 258.145 17.6088 258.953 17.29C259.73 16.9086 260.348 16.0428 260.139 15.2026C259.026 15.4641 257.861 15.3884 256.792 14.9851C255.723 14.5819 254.798 13.8695 254.136 12.9387C261.208 12.3551 268.731 11.8577 274.999 15.1852C275.751 16.7997 271.917 18.143 272.943 19.5992C273.27 20.0636 273.926 20.1181 274.494 20.1286C278.849 20.2095 283.23 20.2888 287.536 19.6313C289.11 19.391 290.7 19.0518 292.28 19.2466C294.912 19.5712 297.162 21.327 299.752 21.8994C300.805 22.1324 301.987 22.1403 302.875 21.5274C303.764 20.9146 304.145 19.5191 303.418 18.7224C305.855 16.3334 309.901 16.9255 313.117 18.0692C316.333 19.2129 319.38 21.0574 322.784 21.3123C325.225 21.4951 327.699 20.8386 330.111 21.2559C331.627 21.5181 333.038 22.1923 334.519 22.6065C337.321 23.3899 340.284 23.2246 343.193 23.2623C350.615 23.3622 357.956 24.8208 364.852 27.5656C365.749 27.8577 366.571 28.3433 367.26 28.9881C367.902 29.6752 368.229 30.7429 367.798 31.5782L360.672 30.5371C361.343 31.8587 363.08 32.0839 364.491 32.5399C365.901 32.9958 367.364 34.5534 366.516 35.7695C364.988 35.2829 363.603 36.8109 362.831 38.2167C362.059 39.6226 361.118 41.3063 359.516 41.3919C358.082 41.4686 356.347 40.2474 355.412 41.3378C356.704 42.967 357.81 44.7351 358.71 46.6093C359.633 48.5334 360.291 50.9578 359.043 52.689C358.846 52.998 358.548 53.229 358.2 53.3423C357.181 53.6003 356.518 52.3532 355.787 51.5973C354.866 50.6447 353.472 50.3749 352.224 49.9282C350.977 49.4814 349.662 48.6026 349.565 47.281C349.504 46.4587 349.938 45.6944 350.258 44.9344C350.795 43.6534 351.03 42.2659 350.945 40.8794C350.875 39.7639 350.562 38.6036 349.761 37.8242C348.96 37.0448 347.576 36.7976 346.716 37.5114C346.315 37.8445 345.993 38.3773 345.472 38.3972C344.551 38.4324 343.844 36.8271 343.103 37.3751C343.19 37.959 343.069 38.5548 342.761 39.0585C340.551 40.981 337.154 40.1677 334.304 40.8468C332.949 41.2347 331.651 41.8013 330.446 42.5317C329.995 42.7246 329.611 43.0467 329.343 43.4574C328.987 44.1487 329.379 45.034 330.006 45.4937C330.671 45.9015 331.419 46.1566 332.194 46.2404C335.669 46.8984 339.194 47.917 341.938 50.1486C344.681 52.3802 346.48 56.0691 345.612 59.497L338.759 52.9502C339.02 55.699 339.167 58.4555 339.203 61.2195C339.247 61.7591 339.173 62.302 338.985 62.81C338.497 63.8888 337.173 64.2519 336.013 64.49C335.69 64.5513 335.384 64.6802 335.115 64.8682C334.845 65.0562 334.619 65.299 334.45 65.5807C334.281 65.8624 334.174 66.1767 334.135 66.5028C334.096 66.829 334.127 67.1596 334.225 67.473C334.637 68.8165 335.665 69.8639 336.606 70.9076C337.547 71.9512 338.473 73.1374 338.597 74.5372C338.72 75.9371 337.664 77.5149 336.262 77.4176C335.199 77.3438 334.41 76.3924 333.957 75.4284C333.504 74.4644 333.234 73.3905 332.553 72.5714C330.491 70.0921 325.86 71.1543 324.013 68.5112C323.543 69.0452 323.216 69.6906 323.065 70.3862C322.914 71.0818 322.943 71.8045 323.15 72.4857C324.009 71.9478 325.185 72.4476 325.831 73.229C326.476 74.0105 326.781 75.0124 327.288 75.8901C327.972 77.0745 329.061 78.1245 329.156 79.4889C329.131 80.0049 329.139 80.5219 329.182 81.0367C329.352 81.8634 330.051 82.457 330.535 83.148C331.663 84.7559 331.607 86.9647 330.88 88.789C330.153 90.6133 328.848 92.1377 327.555 93.6156C325.296 96.1971 322.992 98.7633 320.314 100.907C319.55 101.519 318.735 102.12 318.259 102.975C317.783 103.831 317.758 105.031 318.49 105.682C317.966 105.708 317.028 105.965 316.505 105.991C316.321 103.893 316.281 101.784 316.385 99.6796C314.32 98.6883 312.097 101.343 312.364 103.618C312.63 105.892 314.276 107.718 315.447 109.686C316.304 111.125 316.94 112.803 316.654 114.453C316.368 116.104 314.895 117.626 313.227 117.48C310.572 117.249 309.462 113.439 306.834 113.003C306.602 112.948 306.359 112.973 306.142 113.072C305.752 113.286 305.684 113.808 305.662 114.252C305.555 116.434 305.462 118.702 306.313 120.713C307.559 123.655 310.778 126.126 310.103 129.249C306.466 127.559 304.575 123.48 303.716 119.563C302.857 115.645 302.714 111.533 301.175 107.829C300.006 109.327 297.55 108.089 296.482 106.518C295.47 105.028 294.847 103.305 293.864 101.795C292.882 100.285 291.378 98.9336 289.578 98.8506C287.692 98.7635 286.056 100.058 284.617 101.281C283.434 102.287 282.219 103.332 281.527 104.722C280.521 106.745 280.784 109.13 280.736 111.389C280.683 113.832 280.166 116.408 278.501 118.196C276.836 119.984 273.764 120.607 271.928 118.995C270.969 118.154 270.505 116.897 270.091 115.691C268.099 109.876 266.439 103.951 265.121 97.9469C264.812 99.3174 263.609 101.084 262.459 100.276C262.201 100.059 261.992 99.7902 261.846 99.4864C259.701 95.852 255.729 93.672 251.717 92.3649C247.704 91.0578 243.482 90.4481 239.514 89.0116C237.29 88.2062 235.166 87.1483 233.183 85.8586C232.678 86.6011 232.383 87.4663 232.329 88.3628C232.276 89.2593 232.466 90.1535 232.879 90.9508C233.759 92.5093 235.751 93.411 237.456 92.8662C238.338 92.5847 239.082 91.9731 239.956 91.671C240.83 91.3689 242.004 91.5173 242.386 92.3595C242.752 93.1657 242.199 94.141 242.473 94.9827C242.891 96.2647 244.825 96.3635 245.501 97.5301C246.004 98.3981 245.59 99.5508 244.872 100.251C244.154 100.952 243.195 101.336 242.318 101.823C239.473 103.405 237.45 106.106 234.963 108.207C232.477 110.308 228.968 111.842 226.005 110.494C226.711 106.918 222.45 104.292 221.667 100.732C221.409 99.5599 221.542 98.315 221.174 97.173C220.641 95.5196 219.174 94.3828 217.97 93.1298C216.51 91.5935 215.373 89.7804 214.626 87.7976C213.878 85.8147 213.535 83.7022 213.617 81.5847C213.682 80.1133 213.953 78.6178 213.617 77.1836C213.282 75.7494 212.095 74.3612 210.623 74.4262C207.262 74.5747 203.028 74.8246 201.264 71.9597C200.635 70.9372 200.361 69.4397 201.271 68.6563C201.913 68.1037 202.86 68.1557 203.703 68.2387L211.276 68.9835C213.048 69.1578 214.962 69.3016 216.482 68.3757C218.002 67.4498 218.661 64.9921 217.253 63.9028C216.225 63.1069 214.383 63.15 214.084 61.8846C213.835 60.8306 215.001 59.6348 214.371 58.754C213.919 58.1225 212.904 58.2977 212.288 58.7711C211.673 59.2446 211.226 59.9369 210.537 60.2954C209.329 60.9242 207.885 60.3258 206.585 59.919C205.285 59.5123 203.542 59.4777 202.911 60.6851C202.206 62.0355 203.537 63.8049 202.837 65.1579C201.911 66.9469 198.778 65.9285 197.478 67.4673C195.987 69.233 198.493 71.866 197.99 74.1217C197.348 74.4397 196.634 74.5857 195.919 74.5455C195.203 74.5053 194.511 74.2803 193.908 73.8924C193.316 73.4894 192.844 72.9335 192.542 72.2835C192.24 71.6336 192.12 70.9141 192.195 70.2015C192.32 69.1868 192.849 68.151 192.494 67.192C192.207 66.4167 191.429 65.9552 190.705 65.5554L183.346 61.4891C182.663 62.7564 183.527 64.3276 184.607 65.2795C185.687 66.2314 187.04 66.9484 187.75 68.2011C188.199 69.0691 188.3 70.0756 188.031 71.0153C187.763 71.9549 187.146 72.7568 186.307 73.257C186.202 73.3296 186.082 73.3786 185.956 73.4005C185.83 73.4225 185.701 73.4169 185.577 73.3842C185.46 73.3153 185.358 73.2234 185.276 73.1141C185.195 73.0049 185.137 72.8804 185.104 72.7481C183.806 69.4256 181.856 66.1497 178.739 64.414C175.623 62.6784 171.144 63.0352 169.1 65.959C168.615 66.6535 168.289 67.4451 167.866 68.1793C165.619 72.0801 160.802 73.9273 156.302 73.8066C155.862 73.8309 155.424 73.728 155.04 73.5102C154.313 73.0079 154.346 71.9421 154.457 71.0653L154.929 67.3444C155.024 66.5972 155.162 65.7713 155.753 65.3049C156.587 64.6474 157.79 65.0623 158.851 65.047C159.656 65.0093 160.429 64.7253 161.067 64.2334C161.704 63.7414 162.175 63.0654 162.415 62.2969C162.63 61.5209 162.628 60.701 162.411 59.9256C162.194 59.1503 161.77 58.4489 161.183 57.897C160.697 57.44 160.043 56.8659 160.301 56.2498C160.403 56.0794 160.542 55.9335 160.707 55.8224C160.872 55.7113 161.059 55.6377 161.256 55.6068C163.163 55.053 165.178 54.9079 167.053 54.2545C168.928 53.6011 170.747 52.2642 171.191 50.3288C171.327 49.7357 171.389 49.0172 171.922 48.7231C172.19 48.6103 172.477 48.5516 172.767 48.5506C173.784 48.4059 174.709 47.886 175.362 47.0931C176.014 46.3001 176.346 45.2917 176.292 44.2663C177.191 43.6383 178.45 44.1002 179.32 44.7681C180.189 45.436 180.957 46.3184 182.015 46.6063C183.986 47.1428 185.892 45.3974 187.935 45.3893C188.794 45.3859 189.684 45.6897 190.492 45.3984C191.312 45.1031 191.801 44.2874 192.43 43.6848C193.059 43.0822 194.163 42.7146 194.743 43.3638L194.249 39.7009C195.245 39.9524 196.283 39.9881 197.294 39.8053C198.305 39.6226 199.265 39.2257 200.11 38.6413L193.718 36.4819C193.496 36.4263 193.29 36.3165 193.12 36.1623C192.656 35.662 193.117 34.8823 193.495 34.3135C194.399 32.9529 194.551 30.7117 193.064 30.0343C192.05 29.5719 190.885 30.1269 189.911 30.6699L185.246 33.2709C185.098 34.1576 186.182 34.6601 186.854 35.2573C187.261 35.6187 187.548 36.0945 187.679 36.6224C187.811 37.1503 187.779 37.7055 187.589 38.215C187.399 38.7246 187.059 39.1648 186.614 39.4776C186.169 39.7905 185.64 39.9615 185.096 39.9682C185.403 40.3676 185.616 40.8309 185.72 41.3239C185.824 41.8169 185.816 42.327 185.696 42.8163L182.557 43.0421C182.205 43.1129 181.838 43.0415 181.539 42.8434C181.203 42.5452 181.249 42.0228 181.171 41.5807C180.983 40.5135 179.938 39.7655 178.871 39.5737C177.805 39.3819 176.713 39.6277 175.657 39.8705C175.209 40.0318 174.716 40.0205 174.276 39.8386C174.023 39.6745 173.831 39.4322 173.729 39.1488C173.266 38.0262 173.699 36.7067 174.443 35.7467C175.186 34.7867 176.204 34.0849 177.119 33.2857C179.305 31.3674 180.912 28.8761 181.757 26.093C183.485 25.3691 185.273 24.3855 187.001 23.6615C189.665 22.3129 192.653 21.7341 195.628 21.9903L201.48 22.1021C203.212 22.1352 204.992 22.1776 206.594 22.838C208.196 23.4984 209.604 24.9269 209.714 26.656C209.747 26.8518 209.731 27.0528 209.665 27.2402C209.599 27.4276 209.487 27.5953 209.339 27.7275C209.113 27.851 208.856 27.9087 208.599 27.8943C206.983 27.951 206.294 28.3536 204.679 28.4104Z" fill="#3F3D56"/>
<path d="M158.036 46.748C158.264 46.5317 158.429 46.2565 158.511 45.9527C158.594 45.6489 158.591 45.3282 158.503 45.026C157.946 44.8114 157.341 44.7563 156.755 44.8669C156.169 44.9775 155.626 45.2495 155.186 45.6522C154.839 46.0029 154.541 46.3978 154.298 46.8268C153.529 48.0812 152.848 49.5795 153.294 50.9817C153.33 51.1347 153.397 51.2788 153.49 51.4057C153.582 51.5325 153.7 51.6396 153.834 51.7206C154.034 51.8008 154.249 51.8345 154.464 51.8192C155.311 51.8181 156.157 51.766 156.998 51.6633C157.515 51.6001 158.114 51.4543 158.314 50.974C158.576 50.3425 157.941 49.6279 158.126 48.9697C158.248 48.6753 158.433 48.4111 158.667 48.1954C158.783 48.0868 158.873 47.9525 158.928 47.8034C158.984 47.6542 159.003 47.4942 158.986 47.336C158.911 47.0271 158.438 46.8519 158.268 47.1203" fill="#3F3D56"/>
<path d="M162.428 41.0537C161.675 40.8809 160.899 40.8322 160.131 40.9095C159.961 40.9045 159.793 40.9427 159.642 41.0207C159.496 41.1286 159.389 41.2823 159.34 41.4573C159.178 41.9781 159.218 42.5408 159.452 43.0334C159.686 43.5261 160.097 43.9125 160.603 44.1157C160.879 44.1791 161.144 44.2853 161.387 44.4304C162.036 44.9343 161.622 45.9642 161.745 46.777C161.883 47.6896 162.767 48.4557 162.605 49.3644C162.477 50.0803 161.712 50.6471 161.835 51.3638C161.964 52.1145 162.917 52.34 163.676 52.4001C164.116 52.4772 164.569 52.4253 164.981 52.2507C165.393 51.9689 165.686 51.5444 165.803 51.0591C166.114 50.1339 166.245 49.1577 166.188 48.1833C166.185 47.7401 166.074 47.3044 165.864 46.9139C165.635 46.6046 165.382 46.3144 165.106 46.0462C163.651 44.3541 165.183 41.8302 162.428 41.0537Z" fill="#3F3D56"/>
<path opacity="0.8" d="M353.734 173.605C353.734 173.605 242.309 109.652 194.339 121.769C194.339 121.769 92.6767 132.709 80.8946 156.775C80.8946 156.775 48.578 55.7965 36.7959 52.4305" stroke="#6C63FF" stroke-width="2" stroke-miterlimit="10"/>
<path opacity="0.8" d="M80.8946 156.775C99.5777 106.959 267.893 51.7576 267.893 51.7576C243.993 57.8163 194.339 121.769 194.339 121.769C194.339 121.769 89.3104 45.3622 36.7959 52.4308C36.7959 52.4308 268.062 60.0042 353.734 173.605" stroke="#6C63FF" stroke-width="2" stroke-miterlimit="10"/>
<path d="M36.7962 57.3113C39.492 57.3113 41.6774 55.1262 41.6774 52.4307C41.6774 49.7352 39.492 47.55 36.7962 47.55C34.1004 47.55 31.915 49.7352 31.915 52.4307C31.915 55.1262 34.1004 57.3113 36.7962 57.3113Z" fill="#6C63FF"/>
<path d="M80.8948 161.656C83.5906 161.656 85.776 159.471 85.776 156.776C85.776 154.08 83.5906 151.895 80.8948 151.895C78.199 151.895 76.0137 154.08 76.0137 156.776C76.0137 159.471 78.199 161.656 80.8948 161.656Z" fill="#6C63FF"/>
<path d="M267.894 56.6381C270.59 56.6381 272.775 54.453 272.775 51.7575C272.775 49.062 270.59 46.8768 267.894 46.8768C265.198 46.8768 263.013 49.062 263.013 51.7575C263.013 54.453 265.198 56.6381 267.894 56.6381Z" fill="#6C63FF"/>
<path d="M353.736 178.486C356.431 178.486 358.617 176.301 358.617 173.605C358.617 170.909 356.431 168.724 353.736 168.724C351.04 168.724 348.854 170.909 348.854 173.605C348.854 176.301 351.04 178.486 353.736 178.486Z" fill="#6C63FF"/>
<path d="M194.34 126.65C197.036 126.65 199.221 124.465 199.221 121.769C199.221 119.074 197.036 116.889 194.34 116.889C191.644 116.889 189.459 119.074 189.459 121.769C189.459 124.465 191.644 126.65 194.34 126.65Z" fill="#6C63FF"/>
</svg>
