<svg width="460" height="340" viewBox="0 0 460 340" fill="none" xmlns="http://www.w3.org/2000/svg">
<g clip-path="url(#clip0)">
<path d="M400.684 340C433.443 340 460 336.562 460 332.321C460 328.08 433.443 324.642 400.684 324.642C367.925 324.642 341.368 328.08 341.368 332.321C341.368 336.562 367.925 340 400.684 340Z" fill="#3F3D56"/>
<path d="M179.071 11.2678H0V122.716H179.071V11.2678Z" fill="#F2F2F2"/>
<path d="M190.366 0.409729H11.2949V111.858H190.366V0.409729Z" stroke="#3F3D56" stroke-width="2" stroke-miterlimit="10"/>
<path d="M128.335 83.1635C133.735 77.777 137.412 70.9143 138.901 63.443C140.391 55.9718 139.627 48.2277 136.704 41.1899C133.782 34.1522 128.834 28.1369 122.485 23.9048C116.136 19.6727 108.672 17.4138 101.036 17.4138V55.9291L128.335 83.1635Z" fill="#6C63FF"/>
<path d="M101.036 17.4138C92.4548 17.4148 84.1185 20.2675 77.3436 25.5214C70.5686 30.7753 65.741 38.1309 63.6232 46.4268C61.5053 54.7226 62.2179 63.4859 65.6483 71.3328C69.0788 79.1796 75.0317 85.6629 82.5669 89.7587L101.036 55.9291V17.4138Z" fill="#00487C"/>
<path d="M128.335 83.1635L101.035 55.9291L82.5664 89.7587C89.8874 93.7323 98.3003 95.2372 106.549 94.0485C114.798 92.8599 122.44 89.0415 128.335 83.1635Z" fill="#575A89"/>
<path d="M25.4641 88.7081H18.0713V96.0833H25.4641V88.7081Z" fill="#00487C"/>
<path d="M36.1429 88.7081H28.75V96.0833H36.1429V88.7081Z" fill="#6C63FF"/>
<path d="M46.8216 88.7081H39.4287V96.0833H46.8216V88.7081Z" fill="#575A89"/>
<path d="M176.197 90.347H145.804V91.5762H176.197V90.347Z" fill="#3F3D56"/>
<path d="M176.197 94.0347H145.804V95.2639H176.197V94.0347Z" fill="#3F3D56"/>
<path d="M176.197 97.7223H145.804V98.9515H176.197V97.7223Z" fill="#3F3D56"/>
<path d="M158.125 166.558H56.2676V278.007H158.125V166.558Z" fill="#F2F2F2"/>
<path d="M168.393 155.905H66.5361V267.353H168.393V155.905Z" stroke="#3F3D56" stroke-width="2" stroke-miterlimit="10"/>
<path d="M77.3668 254.78H71.875V260.259H77.3668V254.78Z" fill="#6C63FF"/>
<path d="M85.2994 254.78H79.8076V260.259H85.2994V254.78Z" fill="#3F3D56"/>
<path d="M93.2321 254.78H87.7402V260.259H93.2321V254.78Z" fill="#575A89"/>
<path d="M154.84 257.16H133.482V258.024H154.84V257.16Z" fill="#3F3D56"/>
<path d="M154.84 259.751H133.482V260.615H154.84V259.751Z" fill="#3F3D56"/>
<path d="M154.84 262.342H133.482V263.206H154.84V262.342Z" fill="#3F3D56"/>
<path d="M117.464 175.572V184.586C122.825 184.586 128.066 186.172 132.524 189.144C136.982 192.115 140.456 196.339 142.508 201.28C144.559 206.222 145.096 211.659 144.05 216.905C143.004 222.151 140.423 226.969 136.632 230.751L143.021 237.125C148.075 232.083 151.518 225.658 152.912 218.663C154.307 211.669 153.591 204.419 150.855 197.831C148.12 191.242 143.487 185.611 137.544 181.649C131.6 177.687 124.612 175.572 117.464 175.572Z" fill="#6C63FF"/>
<path d="M143.022 237.125L136.633 230.751C131.998 235.376 125.841 238.167 119.301 238.61C112.761 239.052 106.282 237.115 101.065 233.157L95.5957 240.336C102.554 245.612 111.193 248.194 119.912 247.603C128.632 247.013 136.842 243.29 143.022 237.125Z" fill="#575A89"/>
<path d="M90.357 211.629C90.357 204.457 93.2129 197.579 98.2965 192.507C103.38 187.436 110.275 184.586 117.464 184.586V175.572C109.898 175.572 102.523 177.941 96.3777 182.345C90.2327 186.748 85.628 192.965 83.2125 200.118C80.7971 207.271 80.6928 215 82.9143 222.215C85.1358 229.431 89.5711 235.769 95.595 240.336L101.064 233.157C97.734 230.637 95.0344 227.382 93.1768 223.647C91.3191 219.912 90.354 215.799 90.357 211.629Z" fill="#00487C"/>
<path d="M382.631 57.7702C382.631 57.7702 380.955 70.1896 385.265 71.6226C389.574 73.0556 388.377 84.042 388.377 84.042L375.449 93.8342L363.958 94.7895L361.085 79.9818L362.761 76.1604C362.761 76.1604 369.225 68.5177 364.676 60.6362C360.127 52.7547 382.631 57.7702 382.631 57.7702Z" fill="#FFB9B9"/>
<path opacity="0.1" d="M382.631 57.7702C382.631 57.7702 380.955 70.1896 385.265 71.6226C389.574 73.0556 388.377 84.042 388.377 84.042L375.449 93.8342L363.958 94.7895L361.085 79.9818L362.761 76.1604C362.761 76.1604 369.225 68.5177 364.676 60.6362C360.127 52.7547 382.631 57.7702 382.631 57.7702Z" fill="black"/>
<path d="M370.661 154.498L355.578 189.845C355.578 189.845 343.848 183.158 336.905 183.875C329.962 184.591 321.344 176.232 321.344 176.232L329.962 134.675L346.002 90.4904L368.267 104.582L370.661 154.498Z" fill="#575A89"/>
<path opacity="0.1" d="M370.661 154.498L355.578 189.845C355.578 189.845 343.848 183.158 336.905 183.875C329.962 184.591 321.344 176.232 321.344 176.232L329.962 134.675L346.002 90.4904L368.267 104.582L370.661 154.498Z" fill="black"/>
<path d="M394.362 304.725V316.189H383.589L385.265 302.814L394.362 304.725Z" fill="#575A89"/>
<path d="M422.372 284.902L430.273 289.678L424.527 302.814L418.542 302.097L412.796 293.977L422.372 284.902Z" fill="#575A89"/>
<path d="M396.517 151.154L410.642 184.352C410.642 184.352 405.614 221.133 405.854 224.238C406.093 227.342 406.333 228.537 405.136 231.164C403.939 233.791 403.46 235.463 404.178 238.568C404.896 241.673 405.136 242.867 404.657 244.061C404.178 245.255 400.826 294.455 399.151 297.799C397.475 301.142 400.108 306.635 398.432 307.113C396.757 307.591 384.308 306.397 383.589 303.531C382.871 300.665 385.983 293.738 384.308 291.589C382.632 289.439 384.547 212.057 382.153 206.803C379.759 201.548 353.424 196.772 353.424 196.772C353.424 196.772 351.03 181.486 352.467 179.098C353.903 176.71 355.818 161.663 355.818 161.663L396.517 151.154Z" fill="#2F2E41"/>
<path d="M382.632 314.278C382.632 314.278 389.336 306.397 395.081 314.278C395.081 314.278 395.56 323.593 399.63 325.503C403.7 327.414 401.785 335.057 396.039 335.296C390.293 335.534 382.872 336.49 382.632 333.385C382.393 330.28 383.59 328.369 381.435 327.414C379.281 326.459 381.435 320.965 381.435 320.965L382.632 314.278Z" fill="#2F2E41"/>
<path d="M383.35 200.115C383.35 200.115 383.11 217.311 381.434 219.7C379.759 222.088 378.801 223.521 379.759 226.148C380.716 228.775 382.153 233.552 381.434 234.507C380.716 235.463 382.153 240.478 382.153 240.478C382.153 240.478 400.587 249.315 409.205 267.705C409.205 267.705 418.063 282.274 420.697 282.513C423.33 282.752 426.442 280.841 425.006 286.335C423.57 291.828 418.063 298.993 413.993 298.276C409.924 297.56 406.811 290.634 406.811 290.634C406.811 290.634 374.971 258.391 371.619 257.436C368.267 256.48 358.691 248.838 357.015 244.061C355.339 239.284 351.748 199.399 353.424 196.772C355.1 194.144 361.325 190.562 361.325 190.562L383.35 200.115Z" fill="#2F2E41"/>
<path d="M424.767 283.946C424.767 283.946 439.61 284.424 439.849 288.006C440.089 291.589 433.625 312.845 434.582 317.861C435.54 322.876 427.161 334.34 421.654 331.952C416.148 329.563 420.457 317.144 420.457 317.144C420.457 317.144 414.951 300.187 415.909 299.948C416.866 299.709 426.442 296.843 425.964 293.977C425.485 291.111 424.767 283.946 424.767 283.946Z" fill="#2F2E41"/>
<path d="M371.499 70.5478C379.697 70.5478 386.342 63.9182 386.342 55.7401C386.342 47.562 379.697 40.9324 371.499 40.9324C363.302 40.9324 356.656 47.562 356.656 55.7401C356.656 63.9182 363.302 70.5478 371.499 70.5478Z" fill="#FFB9B9"/>
<path d="M386.462 78.5488C386.462 78.5488 378.322 87.1468 372.337 85.7138C366.352 84.2808 363.24 74.0109 363.24 74.0109L352.467 72.1003C352.467 72.1003 344.806 106.015 344.806 109.358C344.806 112.702 352.467 148.766 352.467 155.215C352.467 161.663 346.242 165.484 355.818 165.246C365.394 165.007 360.846 161.902 374.731 161.663C388.617 161.424 390.771 164.529 393.644 159.514C395.603 156.241 398.022 153.266 400.826 150.677L395.799 133.003L395.08 83.0866C395.08 83.0866 388.943 71.1449 386.146 72.1002C386.146 72.1002 387.659 77.3546 386.462 78.5488Z" fill="#6C63FF"/>
<path d="M383.513 69.9879C383.513 69.9879 396.278 71.3838 399.869 74.011C403.46 76.6381 413.515 78.5488 413.275 80.4595C413.036 82.3702 401.544 109.597 401.544 109.597C401.544 109.597 396.278 131.092 400.826 136.108C405.375 141.123 422.373 195.816 419.5 200.354C416.627 204.892 407.53 186.502 407.53 186.502C407.53 186.502 395.32 147.094 388.617 140.407C381.913 133.72 381.435 97.6555 381.435 95.9837C381.435 94.3119 383.513 69.9879 383.513 69.9879Z" fill="#00487C"/>
<path d="M364.843 72.758C364.843 72.758 349.115 66.8458 343.609 69.2342C338.103 71.6226 334.751 72.1002 334.751 72.1002L332.836 95.506C332.836 95.506 332.118 129.182 325.893 137.302C319.669 145.422 315.599 179.337 316.556 182.68C317.514 186.024 314.881 191.756 318.95 190.323C323.02 188.89 334.272 155.931 334.272 155.931C334.272 155.931 334.272 137.063 340.976 131.809C347.679 126.554 358.691 104.82 359.17 99.5662C359.649 94.3118 364.198 79.7429 364.198 79.7429L364.843 72.758Z" fill="#00487C"/>
<path d="M418.782 148.05C418.782 148.05 411.599 161.424 410.642 163.813C409.684 166.201 402.981 182.442 393.405 178.859C383.829 175.277 402.741 157.842 402.741 157.842L407.051 143.273C407.051 143.273 418.303 140.884 418.782 148.05Z" fill="#FFB9B9"/>
<path d="M337.145 72.1002H334.751C334.751 72.1002 332.357 70.1895 329.484 71.3837C326.611 72.5779 319.908 70.906 319.908 71.6225C319.908 72.339 312.486 69.473 309.374 70.906C306.262 72.339 295.01 72.8167 295.01 72.8167C295.01 72.8167 290.461 84.2807 293.573 86.4303C296.685 88.5798 301.234 86.9079 303.389 88.5798C305.543 90.2516 309.613 88.3409 311.05 90.4904C312.486 92.6399 317.753 96.4613 318.95 94.073C320.147 91.6846 317.753 89.5351 322.781 92.1623C327.808 94.7894 335.708 94.7895 335.708 94.7895L337.145 72.1002Z" fill="#00487C"/>
<path d="M372.837 44.7995C370.828 44.3365 368.743 44.8495 366.709 45.1821C364.674 45.5147 362.432 45.6244 360.712 44.492C359.441 43.6558 358.659 42.2723 357.926 40.9415C357.619 40.4662 357.415 39.9328 357.326 39.3749C357.24 38.3906 357.868 37.4927 358.534 36.7619C361.63 33.3673 366.153 31.5093 370.715 30.9192C374.465 30.434 378.375 30.7589 381.838 32.2742C385.301 33.7894 388.277 36.5642 389.639 40.0837C390.266 41.8849 390.658 43.7593 390.804 45.6605C391.01 47.0594 391.036 48.4786 390.883 49.8841C390.699 50.926 390.425 51.9499 390.062 52.944L387.807 59.7378C387.645 60.3797 387.342 60.9779 386.92 61.489C386.703 61.7393 386.411 61.9129 386.087 61.9837C385.763 62.0545 385.425 62.0187 385.123 61.8817C385.304 61.1438 385.331 60.3768 385.204 59.6279C385.134 59.2547 384.953 58.9111 384.685 58.6414C384.417 58.3717 384.074 58.1882 383.7 58.1147C382.869 58.0267 382.159 58.6696 381.37 58.9464C380.991 59.0586 380.593 59.0912 380.2 59.0423C379.808 58.9933 379.429 58.8638 379.089 58.662C378.75 58.4601 378.455 58.1903 378.225 57.8694C377.995 57.5485 377.833 57.1835 377.751 56.7974C377.627 56.0207 377.836 55.1893 377.541 54.4599C377.195 53.6053 376.278 53.1575 375.589 52.5434C374.961 51.9648 374.511 51.2192 374.293 50.3942C374.074 49.5693 374.097 48.6993 374.357 47.8865C374.541 47.3211 375.062 47.0641 374.958 46.4146C374.821 45.5624 373.562 44.9667 372.837 44.7995Z" fill="#2F2E41"/>
<path d="M310.09 96.9028H208.232V208.351H310.09V96.9028Z" fill="#F2F2F2"/>
<path d="M320.357 86.2496H218.5V197.698H320.357V86.2496Z" stroke="#3F3D56" stroke-width="2" stroke-miterlimit="10"/>
<path d="M228.357 93.2151V178.44H310.911" stroke="#3F3D56" stroke-width="2" stroke-miterlimit="10"/>
<path d="M251.357 148.53H232.875V178.031H251.357V148.53Z" fill="#575A89"/>
<path d="M278.053 128.453H259.571V178.031H278.053V128.453Z" fill="#6C63FF"/>
<path d="M304.75 105.098H286.268V178.031H304.75V105.098Z" fill="#00487C"/>
<path d="M232.617 185.125H227.125V190.604H232.617V185.125Z" fill="#6C63FF"/>
<path d="M240.549 185.125H235.058V190.604H240.549V185.125Z" fill="#3F3D56"/>
<path d="M248.482 185.125H242.99V190.604H248.482V185.125Z" fill="#575A89"/>
<path d="M310.09 187.505H288.732V188.368H310.09V187.505Z" fill="#3F3D56"/>
<path d="M310.09 190.096H288.732V190.96H310.09V190.096Z" fill="#3F3D56"/>
<path d="M310.09 192.687H288.732V193.551H310.09V192.687Z" fill="#3F3D56"/>
<path d="M297.483 72.803C301.848 72.9923 305.092 76.9416 304.62 81.2751C304.192 85.2011 302.614 90.0863 297.643 91.9628C288.785 95.3065 289.264 76.4386 290.939 75.722C292.057 75.2444 293.812 72.6438 297.483 72.803Z" fill="#FFB9B9"/>
<path d="M410.641 79.1835L413.275 80.4594C413.275 80.4594 419.021 92.1623 419.26 93.8342C419.499 95.506 423.33 101.716 421.893 103.388C420.457 105.059 418.302 109.358 419.739 111.03C421.175 112.702 424.527 119.389 424.527 121.778C424.527 124.166 420.936 130.615 423.33 131.331C425.724 132.048 425.006 141.362 424.527 142.079C424.048 142.795 417.824 154.498 417.824 154.498C417.824 154.498 416.626 141.123 404.896 146.617C404.896 146.617 403.938 139.929 404.896 139.452C405.853 138.974 408.247 136.108 406.332 135.63C404.417 135.152 401.783 129.42 402.262 128.704C402.741 127.987 403.938 127.032 402.741 126.316C401.544 125.599 400.586 121.539 400.826 120.822C401.065 120.106 398.192 116.762 398.192 116.762L410.641 79.1835Z" fill="#00487C"/>
</g>
<defs>
<clipPath id="clip0">
<rect width="460" height="340" fill="white"/>
</clipPath>
</defs>
</svg>
