<svg width="24" height="24" viewBox="0 0 24 24" fill="none" xmlns="http://www.w3.org/2000/svg">
<circle cx="12" cy="12" r="12" fill="white"/>
<path d="M17.9765 8.19085C17.534 8.39027 17.0615 8.52612 16.5641 8.58815C17.071 8.27493 17.461 7.78126 17.6455 7.19224C17.17 7.47675 16.6431 7.68386 16.0821 7.7992C15.6341 7.30758 14.9956 7 14.2867 7C12.9282 7 11.8268 8.12934 11.8268 9.52063C11.8268 9.72056 11.8493 9.9128 11.8903 10.0968C9.84534 9.9979 8.03292 8.99108 6.81997 7.46906C6.60647 7.83919 6.48698 8.26929 6.48698 8.73784C6.48698 9.61445 6.92196 10.3849 7.58093 10.8376C7.17745 10.8243 6.79797 10.7105 6.46698 10.5218V10.5531C6.46698 11.7757 7.31345 12.7954 8.4399 13.0276C8.23341 13.0845 8.01542 13.1152 7.79193 13.1152C7.63493 13.1152 7.48444 13.0999 7.33394 13.0712C7.64943 14.0723 8.55639 14.8023 9.63585 14.8228C8.79588 15.499 7.73143 15.9019 6.58498 15.9019C6.38998 15.9019 6.19549 15.8901 6 15.8676C7.09445 16.5822 8.3839 17 9.77834 17C14.3052 17 16.7776 13.1573 16.7776 9.83027C16.7776 9.72312 16.7776 9.61496 16.7701 9.5073C17.2505 9.1541 17.67 8.70759 18 8.20111L17.9765 8.19085Z" fill="#00487C"/>
</svg>
