<svg width="24" height="24" viewBox="0 0 24 24" fill="none" xmlns="http://www.w3.org/2000/svg">
<circle cx="12" cy="12" r="12" fill="white"/>
<path d="M12.5 6C11.0058 6 10.8193 6.00687 10.2326 6.033C9.64688 6.0605 9.24813 6.15262 8.8975 6.28875C8.53588 6.429 8.22879 6.61737 7.92308 6.92308C7.61737 7.22879 7.42854 7.53542 7.28875 7.8975C7.15262 8.24813 7.06004 8.64688 7.033 9.23263C7.0055 9.81929 7 10.0058 7 11.5C7 12.9942 7.00687 13.1807 7.033 13.7674C7.0605 14.3527 7.15262 14.7519 7.28875 15.1025C7.429 15.4637 7.61737 15.7712 7.92308 16.0769C8.22879 16.3822 8.53542 16.5715 8.8975 16.7113C9.24858 16.8469 9.64733 16.94 10.2326 16.967C10.8193 16.9945 11.0058 17 12.5 17C13.9942 17 14.1807 16.9931 14.7674 16.967C15.3527 16.9395 15.7519 16.8469 16.1025 16.7113C16.4637 16.571 16.7712 16.3822 17.0769 16.0769C17.3822 15.7712 17.5715 15.465 17.7113 15.1025C17.8469 14.7519 17.94 14.3527 17.967 13.7674C17.9945 13.1807 18 12.9942 18 11.5C18 10.0058 17.9931 9.81929 17.967 9.23263C17.9395 8.64733 17.8469 8.24767 17.7113 7.8975C17.571 7.53588 17.3822 7.22879 17.0769 6.92308C16.7712 6.61737 16.465 6.42854 16.1025 6.28875C15.7519 6.15262 15.3527 6.06004 14.7674 6.033C14.1807 6.0055 13.9942 6 12.5 6ZM12.5 6.99C13.968 6.99 14.1431 6.99733 14.7229 7.02254C15.2592 7.04775 15.5502 7.13667 15.7436 7.21275C16.0012 7.31221 16.1836 7.43138 16.377 7.62342C16.5691 7.81592 16.6883 7.99879 16.7877 8.25638C16.8629 8.44979 16.9527 8.74083 16.977 9.27708C17.0031 9.85733 17.0091 10.0315 17.0091 11.5C17.0091 12.9685 17.0022 13.1431 16.9752 13.7229C16.9472 14.2592 16.8578 14.5502 16.7822 14.7436C16.6795 15.0012 16.5627 15.1836 16.3702 15.377C16.1781 15.5691 15.9925 15.6883 15.7377 15.7877C15.5452 15.8629 15.2495 15.9527 14.7133 15.977C14.1294 16.0031 13.9575 16.0091 12.4863 16.0091C11.0145 16.0091 10.8427 16.0022 10.2592 15.9752C9.7225 15.9472 9.42688 15.8578 9.23438 15.7822C8.97358 15.6795 8.79438 15.5627 8.60233 15.3702C8.40938 15.1781 8.28608 14.9925 8.18983 14.7377C8.11421 14.5452 8.02529 14.2495 7.99733 13.7133C7.97671 13.1358 7.96938 12.9575 7.96938 11.4931C7.96938 10.0283 7.97671 9.84954 7.99733 9.26517C8.02529 8.72892 8.11421 8.43375 8.18983 8.24125C8.28608 7.98 8.40938 7.80125 8.60233 7.60829C8.79438 7.41625 8.97358 7.2925 9.23438 7.19671C9.42688 7.12063 9.71608 7.03125 10.2523 7.00375C10.8367 6.98313 11.0086 6.97625 12.4794 6.97625L12.5 6.99ZM12.5 8.67575C10.9394 8.67575 9.67575 9.94075 9.67575 11.5C9.67575 13.0606 10.9407 14.3243 12.5 14.3243C14.0606 14.3243 15.3243 13.0593 15.3243 11.5C15.3243 9.93937 14.0593 8.67575 12.5 8.67575ZM12.5 13.3333C11.4871 13.3333 10.6667 12.5129 10.6667 11.5C10.6667 10.4871 11.4871 9.66667 12.5 9.66667C13.5129 9.66667 14.3333 10.4871 14.3333 11.5C14.3333 12.5129 13.5129 13.3333 12.5 13.3333ZM16.0961 8.56438C16.0961 8.92875 15.8 9.22438 15.4361 9.22438C15.0717 9.22438 14.7761 8.92829 14.7761 8.56438C14.7761 8.20046 15.0722 7.90483 15.4361 7.90483C15.7995 7.90438 16.0961 8.20046 16.0961 8.56438Z" fill="#00487C"/>
</svg>
