<svg width="24" height="24" viewBox="0 0 24 24" fill="none" xmlns="http://www.w3.org/2000/svg">
<circle cx="12" cy="12" r="12" fill="white"/>
<path d="M9.37487 17V10.253H7.13231V17H9.37487ZM8.25388 9.33128C9.0359 9.33128 9.52267 8.81319 9.52267 8.16575C9.5081 7.50371 9.03593 7 8.26872 7C7.50163 7 7 7.50372 7 8.16575C7 8.81322 7.48665 9.33128 8.23924 9.33128H8.25381H8.25388ZM10.6161 17H12.8587V13.2322C12.8587 13.0305 12.8732 12.8291 12.9325 12.6849C13.0946 12.282 13.4636 11.8647 14.0831 11.8647C14.8946 11.8647 15.2192 12.4835 15.2192 13.3905V17H17.4616V13.1313C17.4616 11.0589 16.3553 10.0946 14.8798 10.0946C13.67 10.0946 13.1388 10.7708 12.8438 11.2314H12.8587V10.2529H10.6162C10.6456 10.886 10.6162 16.9999 10.6162 16.9999L10.6161 17Z" fill="#00487C"/>
</svg>
